<?xml version="1.0" encoding="UTF-8"?>
<svg width="27px" height="21px" viewBox="0 0 27 21" version="1.1" xmlns="http://www.w3.org/2000/svg" xmlns:xlink="http://www.w3.org/1999/xlink">
    <title>icon-manage-external-accounts</title>
    <g id="Page-1" stroke="none" stroke-width="1" fill="none" fill-rule="evenodd">
        <g id="icon-statement-bitcoin" transform="translate(-92.000000, -98.000000)" fill="#BABABA" fill-rule="nonzero">
            <path d="M113.455381,107.955368 C113.852127,107.955205 114.232045,108.115638 114.508588,108.400121 C114.785132,108.684604 114.934751,109.068909 114.922117,109.413085 L114.922117,109.413085 L114.927806,109.501838 C114.935741,109.557348 114.954556,109.610793 114.984562,109.661364 C115.046805,109.767509 115.148712,109.844536 115.267811,109.87546 C115.38691,109.906384 115.513419,109.888664 115.651967,109.808633 L115.651967,109.808633 L115.78926,109.74197 C116.467649,109.458321 117.256465,109.721914 117.62641,110.36399 L117.62641,110.36399 L117.941351,110.910505 L118.022927,111.080767 C118.285505,111.710625 118.076797,112.435667 117.550496,112.81964 L117.550496,112.81964 L117.354935,112.947042 C117.30751,112.983324 117.26775,113.028724 117.236177,113.08382 C117.174094,113.190381 117.157055,113.317295 117.188831,113.436458 C117.220608,113.55562 117.298579,113.657198 117.433566,113.736117 L117.433566,113.736117 L117.566407,113.826026 C117.822162,114.022207 118.006395,114.297714 118.08969,114.610067 C118.190047,114.986406 118.136232,115.387226 117.936882,115.729314 L117.936882,115.729314 L117.590493,116.305497 L117.505038,116.431731 C117.059981,117.015937 116.246391,117.18259 115.633805,116.828399 L115.633805,116.828399 L115.552772,116.787435 C115.497421,116.7643 115.438227,116.751584 115.389138,116.75015 C115.265478,116.749554 115.14671,116.798414 115.059268,116.885856 C114.971826,116.973298 114.922966,117.092066 114.9226,117.249231 L114.9226,117.249231 L114.91296,117.390502 C114.824431,118.124386 114.200215,118.681485 113.455587,118.681485 L113.455587,118.681485 L112.821074,118.681485 C112.010331,118.681485 111.353094,118.024248 111.354544,117.251557 L111.354544,117.251557 L111.348855,117.162804 C111.34092,117.107294 111.322105,117.053849 111.289412,116.998639 C111.228662,116.892447 111.12801,116.814923 111.009829,116.783297 C110.891647,116.751671 110.765728,116.768564 110.623222,116.849706 L110.623222,116.849706 L110.477462,116.917977 C110.177139,117.037477 109.845243,117.054676 109.533429,116.966055 C109.157741,116.85928 108.84009,116.607195 108.65555,116.274018 L108.65555,116.274018 L108.320805,115.694657 L108.253934,115.557964 C107.968952,114.881956 108.230139,114.094183 108.842385,113.741223 L108.842385,113.741223 L108.922207,113.689117 C109.036859,113.600812 109.104514,113.46389 109.104514,113.318426 C109.104514,113.151232 109.015316,112.996738 108.842866,112.895952 L108.842866,112.895952 L108.716632,112.810497 C108.132426,112.36544 107.965773,111.55185 108.341357,110.900294 L108.341357,110.900294 L108.67339,110.35476 C109.077458,109.65346 109.97292,109.411528 110.652968,109.801932 L110.652968,109.801932 L110.731771,109.843159 C110.783329,109.865203 110.838774,109.876878 110.889796,109.877434 C111.145654,109.87746 111.354104,109.672002 111.358664,109.392728 L111.358664,109.392728 L111.369574,109.232759 C111.410514,108.913172 111.5559,108.615494 111.783841,108.386457 C112.058473,108.110505 112.431749,107.955368 112.821074,107.955368 L112.821074,107.955368 Z M113.455587,108.955368 L112.821074,108.955368 C112.697793,108.955368 112.579599,109.004491 112.492641,109.091866 C112.420468,109.164387 112.374429,109.258652 112.364582,109.326912 L112.364582,109.326912 L112.349072,109.570404 C112.268694,110.306619 111.644765,110.87751 110.884553,110.877407 C110.696645,110.875455 110.511138,110.836395 110.308832,110.74872 L110.308832,110.74872 L110.178012,110.681579 C109.954137,110.553298 109.668671,110.630424 109.533792,110.864237 L109.533792,110.864237 L109.201755,111.409778 C109.084021,111.614109 109.13721,111.873776 109.297283,111.99694 L109.297283,111.99694 L109.370515,112.047113 C109.824715,112.309342 110.104514,112.793964 110.104514,113.318426 C110.104514,113.774766 109.892364,114.204127 109.505436,114.500746 L109.505436,114.500746 L109.370897,114.589519 C109.168367,114.706686 109.085569,114.956416 109.162387,115.141145 L109.162387,115.141145 L109.201072,115.221262 L109.525428,115.780845 C109.585782,115.889748 109.687047,115.970111 109.806813,116.00415 C109.906216,116.032401 110.012032,116.026918 110.077457,116.002061 L110.077457,116.002061 L110.15608,115.966506 C110.492101,115.770437 110.892521,115.716717 111.268338,115.817288 C111.644155,115.917859 111.964228,116.164386 112.153385,116.495164 C112.249296,116.656763 112.312246,116.83558 112.342374,117.054 L112.342374,117.054 L112.360633,117.297625 C112.400258,117.515937 112.591333,117.681485 112.821074,117.681485 L112.821074,117.681485 L113.455587,117.681485 C113.692842,117.681485 113.892056,117.50369 113.917526,117.299526 L113.917526,117.299526 L113.923573,117.220546 C113.921691,116.830002 114.076002,116.454909 114.352161,116.17875 C114.628321,115.90259 115.003413,115.74828 115.404925,115.750335 C115.588425,115.755246 115.76929,115.794097 115.966483,115.877549 L115.966483,115.877549 L116.10432,115.946608 C116.30865,116.064341 116.568317,116.011152 116.691481,115.85108 L116.691481,115.85108 L116.745923,115.770597 L117.076109,115.220367 C117.138192,115.113806 117.155231,114.986892 117.123455,114.867729 C117.097081,114.768828 117.03874,114.681584 116.984669,114.638729 L116.984669,114.638729 L116.784595,114.50686 C116.509919,114.310194 116.310409,114.023417 116.222597,113.69412 C116.122239,113.317781 116.176054,112.916961 116.370278,112.583615 C116.466147,112.416236 116.594371,112.269824 116.774354,112.133517 L116.774354,112.133517 L116.903703,112.048533 C117.10634,111.930011 117.189219,111.679756 117.112733,111.493787 L117.112733,111.493787 L117.059444,111.385413 L116.759961,110.863256 C116.656821,110.684247 116.451175,110.597459 116.276145,110.630215 L116.276145,110.630215 L116.203394,110.651652 L116.127005,110.687822 C115.792173,110.885068 115.392634,110.941029 115.016496,110.843365 C114.640357,110.745701 114.318513,110.502433 114.123276,110.169478 C114.027365,110.007879 113.964416,109.829061 113.934287,109.610642 L113.934287,109.610642 L113.917042,109.343133 C113.901027,109.251088 113.857667,109.16517 113.791547,109.097152 C113.703387,109.006461 113.582272,108.955368 113.455587,108.955368 L113.455587,108.955368 Z M110.056912,98.5 C111.366561,98.5 112.438985,99.5112347 112.45363,100.77748 L112.505046,100.777694 C113.76879,100.777694 114.811649,101.719283 114.89636,102.922999 L114.901915,103.081436 L114.901915,105.980616 C114.901915,106.256758 114.678058,106.480616 114.401915,106.480616 C114.156455,106.480616 113.952307,106.30374 113.909971,106.070491 L113.901915,105.980616 L113.901915,103.081436 C113.901915,102.408835 113.353137,101.847435 112.640493,101.783715 L112.505046,101.777694 L97.3450031,101.777694 C96.6133788,101.777694 96.0215641,102.29953 95.9544705,102.956721 L95.9481334,103.081436 L95.9481334,113.002017 C95.9481334,113.674619 96.4969114,114.236019 97.2095559,114.299739 L97.3450031,114.305759 L106.235601,114.305759 C106.511744,114.305759 106.735601,114.529617 106.735601,114.805759 C106.735601,115.051219 106.558726,115.255368 106.325477,115.297704 L106.235601,115.305759 L97.3450031,115.305759 C96.0812584,115.305759 95.0383993,114.364171 94.9536884,113.160455 L94.9503558,113.025238 C94.932783,113.027107 94.9149383,113.028065 94.8968697,113.028065 C93.6331249,113.028065 92.5902658,112.086476 92.5055549,110.88276 L92.5,110.724323 L92.5,100.803742 C92.5,99.5785165 93.4902031,98.5858768 94.7333467,98.505284 L94.8968697,98.5 L110.056912,98.5 Z M113.140646,111.484559 C114.153463,111.484559 114.974514,112.305609 114.974514,113.318426 C114.974514,114.331243 114.153463,115.152294 113.140646,115.152294 C112.127829,115.152294 111.306779,114.331243 111.306779,113.318426 C111.306779,112.305609 112.127829,111.484559 113.140646,111.484559 Z M113.140646,112.484559 C112.680114,112.484559 112.306779,112.857894 112.306779,113.318426 C112.306779,113.778959 112.680114,114.152294 113.140646,114.152294 C113.601179,114.152294 113.974514,113.778959 113.974514,113.318426 C113.974514,112.857894 113.601179,112.484559 113.140646,112.484559 Z M110.056912,99.5 L94.8968697,99.5 C94.1652454,99.5 93.5734307,100.021835 93.506337,100.679027 L93.5,100.803742 L93.5,110.724323 C93.5,111.438962 94.1195188,112.028065 94.8968697,112.028065 L94.948,112.033 L94.9481334,103.081436 C94.9481334,101.856211 95.9383365,100.863571 97.1814801,100.782978 L97.3450031,100.777694 L111.452,100.777 L111.447445,100.679027 C111.384545,100.06291 110.860464,99.5657582 110.192359,99.5060209 L110.056912,99.5 Z M100.600992,109.702187 C102.522989,109.702187 103.702098,110.193375 103.702098,111.413249 C103.702098,111.689392 103.47824,111.913249 103.202098,111.913249 C102.956638,111.913249 102.75249,111.736374 102.710154,111.503125 L102.702098,111.413249 C102.702098,110.985101 102.022955,110.702187 100.600992,110.702187 C99.2580269,110.702187 98.5776385,110.95454 98.5061847,111.34326 L98.4998855,111.413249 C98.4998855,111.689392 98.2760278,111.913249 97.9998855,111.913249 C97.7237431,111.913249 97.4998855,111.689392 97.4998855,111.413249 C97.4998855,110.193375 98.678995,109.702187 100.600992,109.702187 Z M107.318852,108.49608 C107.594994,108.49608 107.818852,108.719938 107.818852,108.99608 C107.818852,109.24154 107.641976,109.445689 107.408727,109.488025 L107.318852,109.49608 L105.152351,109.49608 C104.876209,109.49608 104.652351,109.272223 104.652351,108.99608 C104.652351,108.750621 104.829226,108.546472 105.062475,108.504136 L105.152351,108.49608 L107.318852,108.49608 Z M100.76884,104.066457 C102.122237,104.066457 103.219184,105.163268 103.219184,106.51645 C103.219184,107.869915 102.122305,108.966794 100.76884,108.966794 C99.4149267,108.966794 98.3188473,107.870169 98.3188473,106.51645 C98.3188473,105.163014 99.4149949,104.066457 100.76884,104.066457 Z M100.76884,105.066457 C99.9673632,105.066457 99.3188473,105.715215 99.3188473,106.51645 C99.3188473,107.317996 99.9673229,107.966794 100.76884,107.966794 C101.570021,107.966794 102.219184,107.31763 102.219184,106.51645 C102.219184,105.71558 101.56998,105.066457 100.76884,105.066457 Z M109.106297,105.480616 C109.382439,105.480616 109.606297,105.704473 109.606297,105.980616 C109.606297,106.226075 109.429422,106.430224 109.196173,106.47256 L109.106297,106.480616 L105.152351,106.480616 C104.876209,106.480616 104.652351,106.256758 104.652351,105.980616 C104.652351,105.735156 104.829226,105.531007 105.062475,105.488671 L105.152351,105.480616 L109.106297,105.480616 Z" id="icon-manage-external-accounts"></path>
        </g>
    </g>
</svg>
