<?xml version="1.0" encoding="UTF-8"?>
<svg width="22px" height="23px" viewBox="0 0 22 23" version="1.1" xmlns="http://www.w3.org/2000/svg" xmlns:xlink="http://www.w3.org/1999/xlink">
    <title>icon-ledgers</title>
    <g id="Web" stroke="none" stroke-width="1" fill="none" fill-rule="evenodd">
        <g id="BrightBank-GreenAssets" transform="translate(-780.000000, -972.000000)" fill="#000000" fill-rule="nonzero">
            <path d="M790.822921,972.590755 C791.454927,972.590755 792.274311,972.892181 792.790138,973.300855 L792.922922,973.414824 L795.857389,976.156422 C796.325728,976.593979 796.690047,977.384699 796.747514,978.055355 L796.755427,978.234928 L796.75623,982.083541 C799.281714,982.936373 801.1,985.324976 801.1,988.138262 C801.1,991.666879 798.239491,994.527388 794.710874,994.527388 C792.587995,994.527388 790.706934,993.492044 789.54509,991.898756 L781.384161,991.897816 C780.664901,991.897816 780.073434,991.348659 780.006339,990.646922 L780,990.513655 L780,973.974915 C780,973.255656 780.549158,972.664189 781.250894,972.597093 L781.384161,972.590755 L790.822921,972.590755 Z M794.710874,982.849136 C791.78977,982.849136 789.421748,985.217158 789.421748,988.138262 C789.421748,991.059366 791.78977,993.427388 794.710874,993.427388 C797.631978,993.427388 800,991.059366 800,988.138262 C800,985.217158 797.631978,982.849136 794.710874,982.849136 Z M794.710874,984.251619 C794.984255,984.251619 795.21105,984.451076 795.253675,984.712406 L795.260874,984.801619 L795.260563,985.130235 C795.98653,985.362618 796.512115,986.042961 796.512115,986.846061 C796.512115,987.149817 796.265872,987.396061 795.962115,987.396061 C795.658359,987.396061 795.412115,987.149817 795.412115,986.846061 L795.412115,986.846061 L795.405714,986.750906 C795.35928,986.40863 795.065885,986.144819 794.710874,986.144819 C794.323589,986.144819 794.009633,986.458776 794.009633,986.846061 C794.009633,987.233346 794.323589,987.547302 794.710874,987.547302 C795.705672,987.547302 796.512115,988.353745 796.512115,989.348543 C796.512115,990.151643 795.98653,990.831986 795.260563,991.064369 L795.260874,991.347816 C795.260874,991.651573 795.01463,991.897816 794.710874,991.897816 C794.437493,991.897816 794.210698,991.698359 794.168072,991.437029 L794.160874,991.347816 L794.1602,991.064054 C793.434742,990.831371 792.909633,990.15128 792.909633,989.348543 C792.909633,989.044787 793.155876,988.798543 793.459633,988.798543 C793.763389,988.798543 794.009633,989.044787 794.009633,989.348543 L794.009633,989.348543 L794.016034,989.443698 C794.062468,989.785974 794.355863,990.049785 794.710874,990.049785 C795.098159,990.049785 795.412115,989.735828 795.412115,989.348543 C795.412115,988.961258 795.098159,988.647302 794.710874,988.647302 L794.710874,988.647302 L794.563144,988.641331 C793.637448,988.566187 792.909633,987.791119 792.909633,986.846061 C792.909633,986.043324 793.434742,985.363233 794.1602,985.13055 L794.160874,984.801619 C794.160874,984.497862 794.407117,984.251619 794.710874,984.251619 Z M790.822921,973.690755 L781.384161,973.690755 C781.249846,973.690755 781.137014,973.784399 781.107517,973.909835 L781.1,973.974915 L781.1,990.513655 C781.1,990.64797 781.193645,990.760802 781.31908,990.790299 L781.384161,990.797816 L788.90036,990.798843 C788.528856,989.98883 788.321748,989.087733 788.321748,988.138262 C788.321748,984.609645 791.182257,981.749136 794.710874,981.749136 C795.031941,981.749136 795.347477,981.772819 795.65583,981.818532 L795.655427,978.234928 C795.655427,977.879524 795.448837,977.361011 795.200989,977.061507 L795.106435,976.960205 L792.171968,974.218608 C791.910613,973.974431 791.372791,973.747277 790.967777,973.699813 L790.822921,973.690755 Z M786.179209,986.400576 C786.482965,986.400576 786.729209,986.646819 786.729209,986.950576 C786.729209,987.223957 786.529752,987.450752 786.268422,987.493377 L786.179209,987.500576 L783.469563,987.500576 C783.165806,987.500576 782.919563,987.254333 782.919563,986.950576 C782.919563,986.677195 783.11902,986.4504 783.38035,986.407775 L783.469563,986.400576 L786.179209,986.400576 Z M786.767928,983.009071 C787.071684,983.009071 787.317928,983.255315 787.317928,983.559071 C787.317928,983.832452 787.11847,984.059248 786.85714,984.101873 L786.767928,984.109071 L783.469563,984.109071 C783.165806,984.109071 782.919563,983.862828 782.919563,983.559071 C782.919563,983.28569 783.11902,983.058895 783.38035,983.01627 L783.469563,983.009071 L786.767928,983.009071 Z M791.784375,976.881588 C792.088132,976.881588 792.334375,977.127832 792.334375,977.431588 L792.334375,977.431588 L792.334375,980.193455 C792.334375,980.497212 792.088132,980.743455 791.784375,980.743455 L791.784375,980.743455 L783.469563,980.743455 C783.165806,980.743455 782.919563,980.497212 782.919563,980.193455 L782.919563,980.193455 L782.919563,977.431588 C782.919563,977.127832 783.165806,976.881588 783.469563,976.881588 L783.469563,976.881588 Z M791.234,977.981 L784.019,977.981 L784.019,979.643 L791.234,979.643 L791.234,977.981 Z" id="icon-ledgers"></path>
        </g>
    </g>
</svg>
