<?xml version="1.0" encoding="UTF-8"?>
<svg width="27px" height="26px" viewBox="0 0 27 26" version="1.1" xmlns="http://www.w3.org/2000/svg" xmlns:xlink="http://www.w3.org/1999/xlink">
    <title>icon-transfer-money</title>
    <g id="Page-1" stroke="none" stroke-width="1" fill="none" fill-rule="evenodd">
        <g id="icon-statement-bitcoin" transform="translate(-92.000000, -1255.000000)" fill="#BABABA" fill-rule="nonzero">
            <path d="M105.473633,1256.25958 C106.012154,1255.49049 107.072182,1255.30358 107.841271,1255.8421 L107.841271,1255.8421 L116.106897,1261.62975 C116.875986,1262.16828 117.062897,1263.2283 116.524375,1263.99739 L116.524375,1263.99739 L109.468635,1274.07251 L116.858635,1274.07251 L115.321212,1272.53098 L115.26346,1272.46164 C115.128757,1272.26657 115.148446,1271.99717 115.322273,1271.82387 C115.517828,1271.6289 115.83441,1271.62938 116.029379,1271.82493 L116.029379,1271.82493 L118.424449,1274.2272 L118.4822,1274.29654 C118.616904,1274.49161 118.597214,1274.761 118.423386,1274.93431 L118.423386,1274.93431 L116.028316,1277.32218 L115.958981,1277.37993 C115.76391,1277.51463 115.494515,1277.49494 115.32121,1277.32111 L115.32121,1277.32111 L115.263459,1277.25178 C115.128756,1277.05671 115.148447,1276.78731 115.322274,1276.61401 L115.322274,1276.61401 L116.866635,1275.07251 L109.12795,1275.07302 L109.038075,1275.06497 C108.963283,1275.05139 108.894287,1275.02118 108.835061,1274.9783 L105.526368,1279.70418 C104.987846,1280.47326 103.927818,1280.66018 103.158729,1280.12165 L103.158729,1280.12165 L96.7036352,1275.60151 C96.6987336,1275.59832 96.6969234,1275.59703 96.6951244,1275.59574 L94.8931035,1274.334 C94.1240147,1273.79548 93.9371032,1272.73545 94.475625,1271.96636 L94.475625,1271.96636 L101.044635,1262.58251 L94.1326352,1262.58251 L95.6777258,1264.12354 C95.8515533,1264.29685 95.871244,1264.56624 95.7365414,1264.76131 L95.6787903,1264.83065 C95.5054854,1265.00447 95.2360904,1265.02417 95.0410192,1264.88946 L94.9716843,1264.83171 L92.5766144,1262.44384 C92.4027864,1262.27054 92.3830962,1262.00114 92.5177999,1261.80607 L92.5755515,1261.73673 L94.9706214,1259.33446 C95.1655903,1259.13891 95.4821724,1259.13843 95.6777274,1259.3334 C95.8515541,1259.50671 95.8712436,1259.7761 95.7365401,1259.97117 L95.6787887,1260.04051 L94.1406352,1261.58251 L101.745635,1261.58251 Z M102.378553,1278.3542 L103.732306,1279.3025 C104.048989,1279.52425 104.485471,1279.44728 104.707216,1279.1306 L104.707216,1279.1306 L105.363581,1278.19438 C105.343502,1278.18405 105.323886,1278.17225 105.304875,1278.15894 C104.387485,1277.51657 103.169194,1277.62448 102.378553,1278.3542 Z M109.445863,1258.26913 C108.388225,1259.77959 106.306366,1260.14668 104.795902,1259.08904 L104.743635,1259.04451 L96.5176352,1270.79251 L96.5770055,1270.82684 C97.9480326,1271.78685 98.3770391,1273.5907 97.6536212,1275.04514 L101.546446,1277.77071 C102.665762,1276.59359 104.507474,1276.37982 105.878452,1277.33979 L105.929635,1277.38351 L114.155635,1265.63551 L114.097348,1265.60198 C112.640829,1264.58212 112.247475,1262.60989 113.169555,1261.11597 L113.277434,1260.95202 C113.290697,1260.93308 113.305035,1260.91534 113.320309,1260.89883 L109.481302,1258.21042 C109.47098,1258.2305 109.459175,1258.25012 109.445863,1258.26913 Z M95.9502317,1271.60312 L95.294777,1272.53994 C95.0730327,1272.85662 95.1499963,1273.2931 95.4666799,1273.51485 L95.4666799,1273.51485 L96.8205192,1274.4633 C97.2362405,1273.47062 96.921027,1272.2885 96.003429,1271.64599 C95.9844877,1271.63273 95.9667471,1271.61839 95.9502317,1271.60312 Z M102.765063,1266.06685 C103.658686,1264.79063 105.596488,1264.66668 107.089377,1265.71201 C108.582266,1266.75734 109.128561,1268.62067 108.234938,1269.8969 C107.341314,1271.17313 105.403513,1271.29708 103.910623,1270.25174 C102.417734,1269.20641 101.871439,1267.34308 102.765063,1266.06685 Z M106.5158,1266.53116 C105.440166,1265.778 104.129391,1265.86184 103.584215,1266.64043 C103.039039,1267.41902 103.408566,1268.67942 104.4842,1269.43259 C105.559834,1270.18576 106.87061,1270.10192 107.415786,1269.32332 C107.960962,1268.54473 107.591434,1267.28433 106.5158,1266.53116 Z M114.129635,1261.46551 L114.096586,1261.5256 C113.355725,1262.58366 113.612865,1264.04197 114.670924,1264.78283 C114.689865,1264.7961 114.707606,1264.81043 114.724121,1264.82571 L115.705223,1263.42382 C115.926968,1263.10713 115.850004,1262.67065 115.53332,1262.44891 L115.53332,1262.44891 L114.129635,1261.46551 Z M107.267695,1256.66125 C106.951011,1256.43951 106.514529,1256.51647 106.292785,1256.83316 L106.292785,1256.83316 L105.310773,1258.23445 C105.330851,1258.24477 105.350467,1258.25658 105.369478,1258.26989 C106.427537,1259.01075 107.88585,1258.75361 108.626711,1257.69555 L108.670635,1257.64351 Z" id="icon-transfer-money"></path>
        </g>
    </g>
</svg>
