<?xml version="1.0" encoding="UTF-8"?>
<svg width="221px" height="162px" viewBox="0 0 221 162" version="1.1" xmlns="http://www.w3.org/2000/svg" xmlns:xlink="http://www.w3.org/1999/xlink">
    <title>A060774F-7DEF-4499-9490-26C9B32D133C</title>
    <defs>
        <linearGradient x1="-2.72272571%" y1="50.5582849%" x2="96.4839275%" y2="50.5582849%" id="linearGradient-1">
            <stop stop-color="#FF66A9" offset="0%"></stop>
            <stop stop-color="#F53689" offset="100%"></stop>
        </linearGradient>
        <linearGradient x1="-1.83022727%" y1="46.7867376%" x2="97.1804632%" y2="46.7867376%" id="linearGradient-2">
            <stop stop-color="#83A6FF" offset="0%"></stop>
            <stop stop-color="#5A78FF" offset="100%"></stop>
        </linearGradient>
        <linearGradient x1="92.9418945%" y1="71.4456191%" x2="0%" y2="28.5543809%" id="linearGradient-3">
            <stop stop-color="#2DBF81" offset="0%"></stop>
            <stop stop-color="#35BF84" offset="100%"></stop>
        </linearGradient>
    </defs>
    <g id="Web" stroke="none" stroke-width="1" fill="none" fill-rule="evenodd">
        <g id="Greenleaf_Bank-Assets" transform="translate(-1091.000000, -1051.000000)">
            <g id="img-funds-transfer-successful" transform="translate(1092.000000, 1052.000000)">
                <g id="Group-12">
                    <g id="Group-2" opacity="0.699999988">
                        <path d="M101.992031,7.86569531 C103.595376,7.86569531 105.021351,6.61533249 105.021351,4.82759464 C105.021351,3.2189818 103.774501,1.78773785 101.992031,1.78773785 C100.386931,1.78773785 98.9609551,3.03985679 98.9609551,4.82759464 C99.138324,6.61533249 100.386931,7.86569531 101.992031,7.86569531 Z" id="Path" fill="#6DD391" fill-rule="nonzero"></path>
                        <path d="M153.337689,13.4080339 C154.586295,13.4080339 155.655777,12.3350399 155.655777,11.082921 C155.655777,9.83255817 154.586295,8.75956423 153.337689,8.75956423 C152.089082,8.75956423 151.0196,9.83255817 151.0196,11.082921 C151.0196,12.3350399 152.089082,13.4080339 153.337689,13.4080339 Z" id="Path" fill="#FF9573" fill-rule="nonzero"></path>
                        <path d="M217.877132,89.0198618 C220.551715,86.51738 220.73084,82.4062854 218.233626,79.5455536 C215.738169,76.8639469 211.637611,76.6848219 208.963029,79.1873036 C206.288447,81.6915415 206.111078,85.8026361 208.606535,88.6616118 C211.101992,91.1640935 215.20255,91.3432185 217.877132,89.0198618 Z" id="Path" fill="#EAEEF9" fill-rule="nonzero"></path>
                        <line x1="88.4417511" y1="59.8821934" x2="86.3027877" y2="56.4858427" id="Path" stroke="#BBC6D8" stroke-width="1.5" stroke-linecap="round" stroke-linejoin="round"></line>
                        <path d="M203.550644,21.8831054 C205.152232,20.2780049 205.152232,17.6754238 203.550644,16.0703232 C201.949055,14.4634665 199.353499,14.4634665 197.751911,16.0703232 C196.150322,17.6754238 196.150322,20.2780049 197.751911,21.8831054 C199.353499,23.4899621 201.949055,23.4899621 203.550644,21.8831054 Z" id="Path" fill="#FFFFFF" fill-rule="nonzero"></path>
                        <line x1="21.2277251" y1="35.3929947" x2="12.1344966" y2="26.2769366" id="Path" stroke="#E9EDF2" stroke-width="1.5" stroke-linecap="round" stroke-linejoin="round"></line>
                        <line x1="44.5824654" y1="58.8109556" x2="25.8621457" y2="40.0414643" id="Path" stroke="#E9EDF2" stroke-width="1.5" stroke-linecap="round" stroke-linejoin="round"></line>
                        <line x1="148.167649" y1="39.1475954" x2="155.476652" y2="28.4229244" id="Path" stroke="#E9EDF2" stroke-width="1.5" stroke-linecap="round" stroke-linejoin="round"></line>
                        <line x1="148.880637" y1="63.167687" x2="160.291954" y2="52.9121232" id="Path" stroke="#E9EDF2" stroke-width="1.5" opacity="0.899999976" stroke-linecap="round" stroke-linejoin="round"></line>
                        <line x1="157.79474" y1="73.2884712" x2="166.09968" y2="63.167687" id="Path" stroke="#E9EDF2" stroke-width="1.5" stroke-linecap="round" stroke-linejoin="round"></line>
                        <line x1="129.626454" y1="66.4975259" x2="144.423585" y2="44.510809" id="Path" stroke="#E9EDF2" stroke-width="1.5" stroke-linecap="round" stroke-linejoin="round"></line>
                        <line x1="110.549641" y1="12.8706588" x2="110.370516" y2="0" id="Path" stroke="#E9EDF2" stroke-width="1.5" stroke-linecap="round" stroke-linejoin="round"></line>
                        <line x1="111.083504" y1="45.9402968" x2="110.72701" y2="19.4842352" id="Path" stroke="#E9EDF2" stroke-width="1.5" stroke-linecap="round" stroke-linejoin="round"></line>
                        <line x1="77.8292775" y1="6.05867036" x2="82.532864" y2="18.9767143" id="Path-11" stroke="#E9EDF2" stroke-width="1.5" stroke-linecap="round" stroke-linejoin="round"></line>
                        <line x1="85.1764876" y1="26.2769366" x2="90.8204483" y2="41.6500772" id="Path-11-Copy" stroke="#E9EDF2" stroke-width="1.5" stroke-linecap="round" stroke-linejoin="round"></line>
                        <line x1="46.809825" y1="16.6185937" x2="56.7960799" y2="33.9576594" id="Path-11-Copy-3" stroke="#E9EDF2" stroke-width="1.5" stroke-linecap="round" stroke-linejoin="round"></line>
                        <line x1="64.5983594" y1="39" x2="72.7807504" y2="52.3439172" id="Path-11-Copy-2" stroke="#E9EDF2" stroke-width="1.5" stroke-linecap="round" stroke-linejoin="round"></line>
                        <line x1="31.2353527" y1="72.1402387" x2="44.5824654" y2="77.4171763" id="Path-11-Copy-4" stroke="#E9EDF2" stroke-width="1.5" stroke-linecap="round" stroke-linejoin="round"></line>
                        <line x1="133.012268" y1="37.0033637" x2="138.540558" y2="11.082921" id="Path" stroke="#E9EDF2" stroke-width="1.5" stroke-linecap="round" stroke-linejoin="round"></line>
                        <line x1="167.687597" y1="94.3970106" x2="198.527231" y2="75.2335055" id="Path-Copy" stroke="#E9EDF2" stroke-width="1.5" stroke-linecap="round" stroke-linejoin="round"></line>
                        <line x1="173.238856" y1="65.0198278" x2="192.485672" y2="47.8280391" id="Path-Copy-2" stroke="#E9EDF2" stroke-width="1.5" stroke-linecap="round" stroke-linejoin="round"></line>
                        <line x1="130.516811" y1="48.9783975" x2="131.942787" y2="41.6500772" id="Path" stroke="#E9EDF2" stroke-width="1.5" stroke-linecap="round" stroke-linejoin="round"></line>
                        <line x1="42.3539396" y1="99.0280327" x2="0" y2="86.1582519" id="Path" stroke="#E9EDF2" stroke-width="1.5" stroke-linecap="round" stroke-linejoin="round"></line>
                        <path d="M110.370516,64.887157 C111.439998,64.887157 112.33211,63.993288 112.33211,62.9220502 C112.33211,61.8490563 111.439998,60.9551874 110.370516,60.9551874 C109.301034,60.9551874 108.408921,61.8490563 108.408921,62.9220502 C108.231552,63.993288 109.121909,64.887157 110.370516,64.887157 Z" id="Path" fill="url(#linearGradient-1)" fill-rule="nonzero"></path>
                        <path d="M20.6921062,70.0712455 C22.1180818,70.0712455 23.1875635,69.0000077 23.1875635,67.5687637 C23.1875635,66.1392759 22.1180818,65.066282 20.6921062,65.066282 C19.2661306,65.066282 18.196649,66.1392759 18.196649,67.5687637 C18.196649,69.0000077 19.2661306,70.0712455 20.6921062,70.0712455 Z" id="Path" fill="#FF9573" fill-rule="nonzero"></path>
                        <path d="M146.741674,67.9270137 C147.988524,67.9270137 148.880637,66.8540198 148.880637,65.7810259 C148.880637,64.5306631 147.988524,63.6367941 146.741674,63.6367941 C145.493067,63.6367941 144.60271,64.7097881 144.60271,65.7810259 C144.423585,66.8540198 145.493067,67.9270137 146.741674,67.9270137 Z" id="Path" fill="url(#linearGradient-2)" fill-rule="nonzero"></path>
                        <path d="M209.855142,55.5919738 C211.103748,55.5919738 212.17323,54.520736 212.17323,53.2686171 C212.17323,52.0182542 211.103748,50.9452603 209.855142,50.9452603 C208.606535,50.9452603 207.537053,52.0182542 207.537053,53.2686171 C207.359684,54.520736 208.429166,55.5919738 209.855142,55.5919738 Z" id="Path" fill="#FF9573" fill-rule="nonzero"></path>
                    </g>
                    <g id="Group-5" transform="translate(44.000000, 29.040000)">
                        <g id="16" fill-rule="nonzero">
                            <path d="M127.708978,69.0288313 C127.708978,83.2407121 122.950755,96.4192144 114.976393,107.012674 C110.603425,112.697852 105.331173,117.735971 99.286281,121.611939 C89.5122872,128.071885 77.8086107,131.819079 65.2047988,131.819079 C30.6089687,131.819079 2.57216525,103.653928 2.57216525,69.0288313 C2.57216525,34.2749613 30.6089687,6.23858359 65.0762384,6.23858359 C77.6799439,6.23858359 89.3835139,9.98577786 99.1575077,16.3158862 C105.202399,20.1918537 110.475716,25.2310372 114.84762,30.9151509 C122.950755,41.6384481 127.708978,54.6881772 127.708978,69.0288313 Z" id="Path" fill="#EAEEF9"></path>
                            <path d="M6.76697949,123.327496 C7.92444853,123.327496 8.95325077,122.422891 8.95325077,121.130902 C8.95325077,119.967686 8.0530089,118.934307 6.76697949,118.934307 C5.60940402,118.934307 4.58060178,119.838913 4.58060178,121.130902 C4.58060178,122.294118 5.48084365,123.327496 6.76697949,123.327496 Z" id="Path" fill="#6DD391"></path>
                            <path d="M25.6870646,24.3264319 C26.8445337,24.3264319 27.7447755,23.4218266 27.7447755,22.2586107 C27.7447755,21.096459 26.8445337,20.1918537 25.6870646,20.1918537 C24.5295956,20.1918537 23.6292473,21.096459 23.6292473,22.2586107 C23.6292473,23.4218266 24.5295956,24.3264319 25.6870646,24.3264319 Z" id="Path" fill="#FF9573"></path>
                            <path d="M123.33601,15.9285023 L123.33601,120.57856 C123.33601,122.387771 121.278831,123.292376 119.992163,122.000387 L117.806211,119.932566 C117.034636,119.157798 115.747968,119.157798 114.976393,119.932566 L110.860971,123.938371 C110.089396,124.713139 108.803793,124.713139 108.032217,123.938371 L103.916796,119.932566 C103.144156,119.157798 101.858553,119.157798 101.086978,119.932566 L96.9715557,123.938371 C96.1999807,124.713139 94.9133127,124.713139 94.1417376,123.938371 L90.0263158,119.932566 C89.2547407,119.157798 87.9687113,119.157798 87.1970298,119.932566 L83.2101683,123.938371 C82.4384868,124.713139 81.1524574,124.713139 80.3807759,123.938371 L76.2652477,119.932566 C75.4936726,119.157798 74.2075368,119.157798 73.4358553,119.932566 L69.3204334,123.938371 C68.5487519,124.713139 67.2626161,124.713139 66.4909346,123.938371 L62.3755128,119.932566 C61.6038313,119.157798 60.3176954,119.157798 59.5461204,119.932566 L55.4305921,123.938371 C54.6589106,124.713139 53.3728812,124.713139 52.6011997,123.938371 L47.199642,118.511803 L46.8137481,118.899187 L43.5985681,122.000387 C42.3124323,123.292376 40.2547214,122.387771 40.2547214,120.57856 L40.2547214,15.9285023 C40.2547214,14.1192918 42.3124323,13.2157508 43.5985681,14.5077399 L45.7848394,16.5744969 C46.5565209,17.3492647 47.8426567,17.3492647 48.6143382,16.5744969 L52.7297601,12.5697562 C53.5014416,11.7939241 54.7875774,11.7939241 55.5591525,12.5697562 L59.6746807,16.5744969 C60.4463622,17.3492647 61.7323916,17.3492647 62.5040731,16.5744969 L66.6196014,12.5697562 C67.3912829,11.7939241 68.6773123,11.7939241 69.4489938,12.5697562 L73.5645221,16.5744969 C74.3360971,17.3492647 75.622233,17.3492647 76.3939145,16.5744969 L80.5094427,12.5697562 C81.2810178,11.7939241 82.5671536,11.7939241 83.3388351,12.5697562 L87.3256966,16.5744969 C88.0973781,17.3492647 89.3835139,17.3492647 90.155089,16.5744969 L94.2705108,12.5697562 C95.0420859,11.7939241 96.3287539,11.7939241 97.1003289,12.5697562 L101.215751,16.5744969 C101.987326,17.3492647 103.27293,17.3492647 104.044505,16.5744969 L108.159926,12.5697562 C108.932566,11.7939241 110.21817,11.7939241 110.989745,12.5697562 L115.105166,16.5744969 C115.876741,17.3492647 117.163409,17.3492647 117.934985,16.5744969 L120.120937,14.5077399 C121.278831,13.2157508 123.33601,14.1192918 123.33601,15.9285023 Z" id="Path" fill="#FFFFFF"></path>
                            <path d="M103.835938,103.139687 L103.835938,99.2920312 C106.283854,99.0446354 108.214193,98.240599 109.626953,96.8799219 C111.039714,95.5192448 111.746094,93.7060937 111.746094,91.4404687 C111.746094,89.0706771 111.029948,87.2054427 109.597656,85.8447656 C108.165365,84.4840885 106.003906,83.335 103.113281,82.3975 C101.472656,81.7073958 100.36263,81.0628646 99.7832031,80.4639062 C99.203776,79.8649479 98.9140625,79.0641667 98.9140625,78.0615625 C98.9140625,76.9808333 99.1875,76.1214583 99.734375,75.4834375 C100.28125,74.8454167 101.166667,74.5264062 102.390625,74.5264062 C103.549479,74.5264062 104.451172,74.9072656 105.095703,75.6689844 C105.740234,76.4307031 106.0625,77.5211979 106.0625,78.9404687 L106.0625,78.9404687 L111.628906,78.9404687 L111.667969,78.8428125 C111.707031,76.4339583 111.0625,74.4775781 109.734375,72.9736719 C108.40625,71.4697656 106.570313,70.5550521 104.226563,70.2295312 L104.226563,70.2295312 L104.226563,65.99125 L101.121094,65.99125 L101.121094,70.1709375 C98.6861979,70.4183333 96.7591146,71.241901 95.3398438,72.6416406 C93.9205729,74.0413802 93.2109375,75.8415104 93.2109375,78.0420312 C93.2109375,80.4248437 93.9205729,82.2738021 95.3398438,83.5889062 C96.7591146,84.9040104 98.9401042,86.0563542 101.882813,87.0459375 C103.445313,87.6448958 104.532552,88.2666406 105.144531,88.9111719 C105.75651,89.5557031 106.0625,90.4118229 106.0625,91.4795312 C106.0625,92.5602604 105.74349,93.413125 105.105469,94.038125 C104.467448,94.663125 103.510417,94.975625 102.234375,94.975625 C100.932292,94.975625 99.874349,94.6208073 99.0605469,93.9111719 C98.2467448,93.2015365 97.8398438,92.0133854 97.8398438,90.3467187 L97.8398438,90.3467187 L92.2929688,90.3467187 L92.234375,90.4639062 C92.1822917,93.2503646 92.9602865,95.3629948 94.5683594,96.8017969 C96.1764323,98.240599 98.2304688,99.0706771 100.730469,99.2920312 L100.730469,99.2920312 L100.730469,103.139687 L103.835938,103.139687 Z" id="$" fill="#DFE3ED"></path>
                            <path d="M107.774671,39.442918 L98.7722523,39.442918 C97.871904,39.442918 97.1003289,38.6670859 97.1003289,37.7624807 C97.1003289,36.8589396 97.871904,36.0831076 98.7722523,36.0831076 L107.774671,36.0831076 C108.675019,36.0831076 109.446594,36.8589396 109.446594,37.7624807 C109.446594,38.6670859 108.675019,39.442918 107.774671,39.442918 Z" id="Path" fill="#C5CCDE" opacity="0.550000012"></path>
                            <path d="M90.5414087,39.442918 L55.0448046,39.442918 C54.1445627,39.442918 53.3728812,38.6670859 53.3728812,37.7624807 C53.3728812,36.8589396 54.1445627,36.0831076 55.0448046,36.0831076 L90.5414087,36.0831076 C91.4406927,36.0831076 92.213332,36.8589396 92.213332,37.7624807 C92.213332,38.6670859 91.4406927,39.442918 90.5414087,39.442918 Z" id="Path" fill="#C5CCDE" opacity="0.550000012"></path>
                            <path d="M107.774671,55.462945 L92.341041,55.462945 C91.4406927,55.462945 90.6691176,54.6881772 90.6691176,53.783572 C90.6691176,52.8789667 91.4406927,52.1041989 92.341041,52.1041989 L107.774671,52.1041989 C108.675019,52.1041989 109.446594,52.8789667 109.446594,53.783572 C109.446594,54.6881772 108.675019,55.462945 107.774671,55.462945 Z" id="Path" fill="#C5CCDE" opacity="0.550000012"></path>
                            <path d="M84.1105166,55.462945 L68.2915248,55.462945 C67.3912829,55.462945 66.6196014,54.6881772 66.6196014,53.783572 C66.6196014,52.8789667 67.3912829,52.1041989 68.2915248,52.1041989 L84.239077,52.1041989 C85.1393189,52.1041989 85.9110004,52.8789667 85.9110004,53.783572 C85.9110004,54.6881772 85.0107585,55.462945 84.1105166,55.462945 Z" id="Path" fill="#C5CCDE" opacity="0.550000012"></path>
                            <path d="M62.1182856,55.462945 L55.0448046,55.462945 C54.1445627,55.462945 53.3728812,54.6881772 53.3728812,53.783572 C53.3728812,52.8789667 54.1445627,52.1041989 55.0448046,52.1041989 L62.1182856,52.1041989 C63.0185275,52.1041989 63.790209,52.8789667 63.790209,53.783572 C63.790209,54.6881772 63.0185275,55.462945 62.1182856,55.462945 Z" id="Path" fill="#4988FD"></path>
                            <path d="M81.4096846,71.6128096 L69.1917666,71.6128096 C68.2915248,71.6128096 67.5199497,70.8380418 67.5199497,69.9334365 C67.5199497,69.0288313 68.2915248,68.2540635 69.1917666,68.2540635 L81.4096846,68.2540635 C82.3099265,68.2540635 83.081608,69.0288313 83.081608,69.9334365 C83.081608,70.8380418 82.3099265,71.6128096 81.4096846,71.6128096 Z" id="Path" fill="#C5CCDE" opacity="0.550000012"></path>
                            <path d="M62.6327399,71.6128096 L55.0448046,71.6128096 C54.1445627,71.6128096 53.3728812,70.8380418 53.3728812,69.9334365 C53.3728812,69.0288313 54.1445627,68.2540635 55.0448046,68.2540635 L62.6327399,68.2540635 C63.5329818,68.2540635 64.3046633,69.0288313 64.3046633,69.9334365 C64.3046633,70.8380418 63.5329818,71.6128096 62.6327399,71.6128096 Z" id="Path" fill="#4988FD"></path>
                            <path d="M81.4096846,87.6339009 L55.0448046,87.6339009 C54.1445627,87.6339009 53.3728812,86.8580689 53.3728812,85.9534636 C53.3728812,85.0499226 54.1445627,84.2740906 55.0448046,84.2740906 L81.4096846,84.2740906 C82.3099265,84.2740906 83.081608,85.0499226 83.081608,85.9534636 C83.081608,86.8580689 82.3099265,87.6339009 81.4096846,87.6339009 Z" id="Path" fill="#C5CCDE" opacity="0.550000012"></path>
                            <path d="M81.4096846,100.423955 C72.1498259,100.423955 64.3046633,100.423955 55.0448046,100.423955 C52.8584269,100.423955 52.8584269,103.653928 55.0448046,103.653928 C65.2049052,103.653928 71.3781443,103.653928 81.4096846,103.653928 C82.3099265,103.653928 83.081608,102.87916 83.081608,101.974555 C83.081608,101.06995 82.3099265,100.423955 81.4096846,100.423955 Z" id="Path" fill="#C5CCDE" opacity="0.550000012"></path>
                            <path d="M69.8347813,51.1995937 L69.8347813,88.6672794 C69.8347813,90.9926471 68.0342976,92.8007933 65.7193595,92.8007933 L4.11552825,92.8007933 C1.80048375,92.8007933 0,90.9926471 0,88.6672794 L0,51.1995937 C0,48.874226 1.80048375,47.0650155 4.11552825,47.0650155 L65.7193595,47.0650155 C68.0342976,47.0650155 69.8347813,49.0029992 69.8347813,51.1995937 Z" id="Path" fill="url(#linearGradient-3)"></path>
                            <path d="M95.002709,8.14783282 C97.250387,8.14783282 99.0723684,6.32372291 99.0723684,4.07391641 C99.0723684,1.82304567 97.250387,0 95.002709,0 C92.7539667,0 90.9319853,1.82304567 90.9319853,4.07391641 C90.9319853,6.32372291 92.7539667,8.14783282 95.002709,8.14783282 Z" id="Path" fill="#EAEEF9"></path>
                            <path d="M129.322368,106.557179 C130.801664,106.557179 132,105.356714 132,103.876354 C132,102.397059 130.801664,101.196594 129.322368,101.196594 C127.844137,101.196594 126.644737,102.397059 126.644737,103.876354 C126.644737,105.356714 127.844137,106.557179 129.322368,106.557179 Z" id="Path" fill="#EAEEF9"></path>
                            <path d="M125.968943,37.3399768 C126.916118,37.3399768 127.683437,36.5715944 127.683437,35.6244195 C127.683437,34.6772446 126.916118,33.9088622 125.968943,33.9088622 C125.022833,33.9088622 124.255515,34.6772446 124.255515,35.6244195 C124.255515,36.5715944 125.022833,37.3399768 125.968943,37.3399768 Z" id="Path" fill="#6DD391"></path>
                            <path d="M62.8899671,81.561339 C63.6616486,81.561339 64.4332237,82.2073336 64.4332237,83.1119389 C64.4332237,84.0154799 63.790209,84.6614745 63.0185275,84.6614745 L45.3990519,84.6614745 C44.6274768,84.6614745 43.8557953,84.0154799 43.8557953,83.1119389 C43.8557953,82.3361068 44.49881,81.561339 45.3990519,81.561339 L62.8899671,81.561339 Z M16.7192337,69.9334365 C17.4909152,69.9334365 18.2624903,70.5794311 18.2624903,71.4840364 C18.13393,72.3875774 17.4909152,73.033572 16.7192337,73.033572 L7.20214783,73.033572 C6.43046633,73.033572 5.65878483,72.3875774 5.65878483,71.4840364 C5.65878483,70.7082043 6.30190596,69.9334365 7.20214783,69.9334365 L16.7192337,69.9334365 Z M32.1523317,69.9334365 C32.9240132,69.9334365 33.6956947,70.5794311 33.6956947,71.4840364 C33.5670279,72.3875774 32.9240132,73.033572 32.1523317,73.033572 L22.6352457,73.033572 C21.8635642,73.033572 21.0919892,72.3875774 21.0919892,71.4840364 C21.0919892,70.7082043 21.7350039,69.9334365 22.6352457,69.9334365 L32.1523317,69.9334365 Z M47.5854296,69.9334365 C48.3571111,69.9334365 49.1287926,70.5794311 49.1287926,71.4840364 C49.0001258,72.3875774 48.3571111,73.033572 47.5854296,73.033572 L38.0683437,73.033572 C37.2967686,73.033572 36.5250871,72.3875774 36.5250871,71.4840364 C36.5250871,70.7082043 37.1681018,69.9334365 38.0683437,69.9334365 L47.5854296,69.9334365 Z M63.0185275,69.9334365 C63.790209,69.9334365 64.5617841,70.5794311 64.5617841,71.4840364 C64.4332237,72.3875774 63.790209,73.033572 63.0185275,73.033572 L53.5014416,73.033572 C52.7297601,73.033572 51.9580786,72.3875774 51.9580786,71.4840364 C51.9580786,70.7082043 52.6011997,69.9334365 53.5014416,69.9334365 L63.0185275,69.9334365 Z M69.8347813,54.6881772 L69.8347813,63.4734907 L0,63.4734907 L0,54.6881772 L69.8347813,54.6881772 Z" id="Combined-Shape" fill="#1DA66B"></path>
                            <path d="M15.6903251,87.3752902 C17.9632256,87.3752902 19.8058533,85.5235101 19.8058533,83.2407121 C19.8058533,80.9568498 17.9632256,79.1061339 15.6903251,79.1061339 C13.4174245,79.1061339 11.5747968,80.9568498 11.5747968,83.2407121 C11.5747968,85.5235101 13.4174245,87.3752902 15.6903251,87.3752902 Z" id="Path" fill="#1DA66B"></path>
                            <path d="M10.1601006,87.3752902 C12.4331076,87.3752902 14.2756289,85.5235101 14.2756289,83.2407121 C14.2756289,80.9568498 12.4331076,79.1061339 10.1601006,79.1061339 C7.88720008,79.1061339 6.04467879,80.9568498 6.04467879,83.2407121 C6.04467879,85.5235101 7.88720008,87.3752902 10.1601006,87.3752902 Z" id="Path" fill="#57DEA4"></path>
                        </g>
                        <g id="tick" transform="translate(87.120000, 102.960000)"></g>
                    </g>
                </g>
                <g id="Group-13" transform="translate(134.000000, 129.000000)">
                    <circle id="Oval" fill="#00AF64" cx="16" cy="16" r="16"></circle>
                    <polyline id="Path-13" stroke="#FFFFFF" stroke-width="2" stroke-linecap="round" stroke-linejoin="round" points="10.0265852 16.1431921 14.8137255 20.5425553 22.0794912 12.4845237"></polyline>
                </g>
            </g>
        </g>
    </g>
</svg>
