<svg width="1366" height="402" viewBox="0 0 1366 402" xmlns="http://www.w3.org/2000/svg" xmlns:xlink="http://www.w3.org/1999/xlink">
    <defs>
        <path id="iiaxjwmkka" d="M.453 0h1365.001v401.204H.453z"/>
        <path id="79u6ozz3oc" d="M0 374.468h2262.93V.653H0z"/>
    </defs>
    <g fill="none" fill-rule="evenodd" opacity=".2">
        <mask id="h56jzpykob" fill="#fff">
            <use xlink:href="#iiaxjwmkka"/>
        </mask>
        <g mask="url(#h56jzpykob)">
            <g transform="translate(-438.679 145.69)">
                <path fill="#CDCDCD" d="M574.834 55.063h2.538v-2.362h2.363v-2.54h-2.363V47.8h-2.538v2.361h-2.363v2.54h2.363z"/>
                <path d="M576.103 44.959c3.566 0 6.466 2.905 6.466 6.473 0 3.569-2.9 6.471-6.466 6.471-3.566 0-6.466-2.902-6.466-6.47 0-3.569 2.9-6.474 6.466-6.474m0 15.484c4.964 0 9.004-4.043 9.004-9.01 0-4.97-4.04-9.014-9.004-9.014-4.966 0-9.004 4.043-9.004 9.013 0 4.968 4.038 9.011 9.004 9.011M449.624 37.498h2.538v-2.364h2.363v-2.54h-2.363v-2.361h-2.538v2.361h-2.36v2.54h2.36z" fill="#CDCDCD"/>
                <path d="M450.893 27.394a6.478 6.478 0 0 1 6.47 6.471c0 3.569-2.904 6.474-6.47 6.474-3.563 0-6.466-2.905-6.466-6.474 0-3.568 2.903-6.47 6.466-6.47m0 15.484c4.967 0 9.007-4.043 9.007-9.014 0-4.967-4.04-9.01-9.007-9.01-4.964 0-9.004 4.043-9.004 9.01 0 4.97 4.04 9.014 9.004 9.014M649.912 124.958h2.538v-2.364h2.363v-2.54h-2.363v-2.362h-2.538v2.362h-2.362v2.54h2.362z" fill="#CDCDCD"/>
                <path d="M651.181 114.852c3.566 0 6.467 2.905 6.467 6.473 0 3.569-2.901 6.471-6.467 6.471-3.565 0-6.466-2.902-6.466-6.47 0-3.569 2.9-6.474 6.466-6.474m-9.004 6.473c0 4.968 4.038 9.011 9.004 9.011 4.964 0 9.005-4.043 9.005-9.01 0-4.97-4.04-9.014-9.005-9.014-4.966 0-9.004 4.043-9.004 9.013M1034.935 149.603v2.365h-2.363v2.54h2.363v2.359h2.538v-2.36h2.363v-2.54h-2.363v-2.364z" fill="#CDCDCD"/>
                <path d="M1042.67 153.237c0 3.568-2.9 6.47-6.466 6.47-3.566 0-6.467-2.902-6.467-6.47 0-3.569 2.9-6.474 6.466-6.474 3.566 0 6.467 2.905 6.467 6.474m-15.47 0c0 4.967 4.04 9.01 9.004 9.01 4.966 0 9.004-4.043 9.004-9.01 0-4.97-4.038-9.014-9.005-9.014-4.963 0-9.004 4.044-9.004 9.014M873.735 41.89h2.538v-2.364h2.362v-2.54h-2.362v-2.361h-2.538v2.362h-2.363v2.54h2.363z" fill="#CDCDCD"/>
                <path d="M875.004 31.784c3.565 0 6.466 2.906 6.466 6.474s-2.9 6.47-6.466 6.47a6.478 6.478 0 0 1-6.47-6.47c0-3.568 2.904-6.474 6.47-6.474m0 15.485c4.964 0 9.004-4.044 9.004-9.011 0-4.97-4.04-9.013-9.004-9.013-4.967 0-9.007 4.043-9.007 9.013 0 4.967 4.04 9.01 9.007 9.01M878.06 143.792h-2.538v2.362h-2.363v2.54h2.363v2.362h2.538v-2.362h2.36v-2.54h-2.36z" fill="#CDCDCD"/>
                <path d="M876.79 153.896c-3.565 0-6.468-2.905-6.468-6.473 0-3.566 2.903-6.471 6.469-6.471 3.563 0 6.466 2.905 6.466 6.47 0 3.57-2.903 6.474-6.466 6.474m0-15.484c-4.967 0-9.007 4.043-9.007 9.01 0 4.971 4.04 9.014 9.007 9.014 4.964 0 9.004-4.043 9.004-9.013 0-4.968-4.04-9.01-9.004-9.01M739.226 57.278h2.538v-2.365h2.36v-2.54h-2.36v-2.361h-2.538v2.362h-2.362v2.54h2.362z" fill="#CDCDCD"/>
                <path d="M740.495 47.174c3.566 0 6.467 2.902 6.467 6.47 0 3.569-2.901 6.474-6.467 6.474-3.565 0-6.469-2.905-6.469-6.473a6.478 6.478 0 0 1 6.47-6.471m0 15.484c4.963 0 9.003-4.043 9.003-9.013 0-4.968-4.04-9.011-9.004-9.011-4.966 0-9.006 4.043-9.006 9.01 0 4.97 4.04 9.014 9.006 9.014M1043.426 246.195h2.538v-2.365h2.362v-2.54h-2.362v-2.361h-2.538v2.362h-2.363v2.54h2.363z" fill="#CDCDCD"/>
                <path d="M1044.695 236.09a6.478 6.478 0 0 1 6.469 6.472c0 3.568-2.904 6.473-6.47 6.473-3.565 0-6.466-2.905-6.466-6.473 0-3.569 2.901-6.471 6.467-6.471m0 15.484c4.966 0 9.006-4.043 9.006-9.013 0-4.968-4.04-9.011-9.006-9.011-4.964 0-9.004 4.043-9.004 9.01 0 4.97 4.04 9.014 9.004 9.014" fill="#CDCDCD"/>
                <mask id="jlx7tgau3d" fill="#fff">
                    <use xlink:href="#79u6ozz3oc"/>
                </mask>
                <path fill="#CDCDCD" mask="url(#jlx7tgau3d)" d="M1044.67 36.17h2.537v-2.346h-2.538zM1049.633 36.17h2.538v-2.346h-2.538zM1054.698 36.17h2.538v-2.346h-2.538zM954.06 164.81h2.537v-2.347h-2.538zM959.02 164.81h2.539v-2.347h-2.538zM964.089 164.81h2.538v-2.347h-2.538zM707.68 39.431h2.537v-2.346h-2.538zM712.643 39.431h2.538v-2.346h-2.538zM717.711 39.431h2.538v-2.346h-2.538zM616.245 35.182h2.538v-2.346h-2.538zM621.209 35.182h2.537v-2.346h-2.537zM626.274 35.182h2.538v-2.346h-2.538zM489.012 174.315h2.538v-2.344h-2.538zM493.973 174.315h2.538v-2.344h-2.538zM499.041 174.315h2.538v-2.344h-2.538zM1100.704 23.568h2.538v-2.346h-2.538zM1105.668 23.568h2.538v-2.346h-2.538zM1110.738 23.568h2.538v-2.346h-2.538zM570.31 137.122h2.538v-2.344h-2.538zM580.34 137.122h2.538v-2.344h-2.538zM575.424 132.2h2.343v-2.54h-2.343zM575.424 142.237h2.343v-2.54h-2.343zM886.709 83.256h2.537v-2.347h-2.537zM896.738 83.256h2.538v-2.347h-2.538zM891.822 78.331h2.343v-2.54h-2.343zM891.822 88.37h2.343v-2.54h-2.343zM831.022 45.09h2.537v-2.347h-2.537zM841.051 45.09h2.538v-2.347h-2.538zM836.13 40.165h2.345v-2.54h-2.345zM836.13 50.204h2.345v-2.54h-2.345zM773.652 70.174h2.538V67.83h-2.538zM783.684 70.174h2.538V67.83h-2.538zM778.766 65.254h2.345v-2.54h-2.345zM778.766 75.291h2.345v-2.54h-2.345zM1052.158 217.416h2.538v-2.347h-2.538zM1062.19 217.416h2.538v-2.347h-2.538zM1057.27 212.491h2.344v-2.54h-2.345zM1057.27 222.53h2.344v-2.54h-2.345zM524.504 197.016h.313v1.704h2.537v-1.704h.312a2.799 2.799 0 0 0 2.795-2.796v-3.164a2.796 2.796 0 0 0-2.795-2.792h-3.162a.255.255 0 0 1-.253-.256v-3.164c0-.14.114-.254.253-.254h3.162c.143 0 .257.114.257.254v1.582h2.538v-1.582a2.798 2.798 0 0 0-2.795-2.794h-.312v-1.72h-2.537v1.72h-.313a2.798 2.798 0 0 0-2.791 2.794v3.164a2.798 2.798 0 0 0 2.791 2.796h3.162c.143 0 .257.114.257.252v3.164a.256.256 0 0 1-.257.256h-3.162a.255.255 0 0 1-.253-.256v-1.582h-2.538v1.582a2.798 2.798 0 0 0 2.791 2.796"/>
                <path d="M529.062 212.892h-5.951c-3.982 0-7.22 3.24-7.22 7.225v16.696h-4.786v-25.138h2.385v-8.06h25.193v8.06h2.383v25.138h-4.784v-16.696c0-3.985-3.24-7.225-7.22-7.225zm4.682 23.92H518.43v-16.695a4.689 4.689 0 0 1 4.682-4.686h5.951c2.583 0 4.682 2.1 4.682 4.686v16.696zm-36.57-35.737h-1.713v-8.178l30.624-17.973 30.629 17.973v8.178h-59.539zm2.536 8.06h11.242v-5.523H499.71v5.523zm2.388 27.678h6.469v-25.135h-6.47v25.135zm39.123-27.678h11.242v-5.523h-11.242v5.523zm2.383 27.678h6.471v-25.135h-6.471v25.135zm-2.538 2.54h24.972v-2.54h-13.425v-25.138H555v-8.06h4.25v-12.17l-33.166-19.465-33.161 19.464v12.17h4.25v8.061h2.386v25.138h-8.103v2.54H541.066z" fill="#CDCDCD" mask="url(#jlx7tgau3d)"/>
                <path fill="#CDCDCD" mask="url(#jlx7tgau3d)" d="M513.344 191.427h5.325v-2.54h-5.325zM533.502 191.427h5.324v-2.54h-5.324zM558.358 54.113a9.761 9.761 0 0 1-8.4-8.406h8.4v8.406zm0 17.356a12.28 12.28 0 0 0-10.938 10.946H492.5a12.276 12.276 0 0 0-10.938-10.946V56.653A12.276 12.276 0 0 0 492.5 45.707h54.92a12.28 12.28 0 0 0 10.938 10.946v14.816zm0 10.946h-8.4a9.761 9.761 0 0 1 8.4-8.406v8.406zm-76.796 0v-8.406a9.761 9.761 0 0 1 8.4 8.406h-8.4zm0-36.708h8.4a9.761 9.761 0 0 1-8.4 8.406v-8.406zm-2.538 39.245h81.872V43.167h-81.872v41.785z"/>
                <path d="M519.962 75.772c-5.34 0-9.685-5.252-9.685-11.71 0-6.459 4.345-11.713 9.685-11.713 5.34 0 9.684 5.254 9.684 11.713 0 6.458-4.345 11.71-9.684 11.71m0-25.963c-6.74 0-12.222 6.395-12.222 14.253 0 7.858 5.481 14.25 12.222 14.25 6.738 0 12.222-6.392 12.222-14.25s-5.484-14.253-12.222-14.253M479.023 31.121h81.872v-2.54h-81.872zM479.023 38.43h81.872v-2.54h-81.872zM599.325 63.395h2.538v-6.811h-2.538zM599.325 70.87h2.538v-3.137h-2.538zM606.451 58.608h2.538v-6.811h-2.538zM606.451 66.085h2.538v-3.14h-2.538zM613.572 64.673h2.538V57.86h-2.538zM613.572 72.147h2.538v-3.139h-2.538zM584.547 98.138c1.02-2.66 2.83-5.17 5.235-7.266l.434-.38v-8.38c1.688.64 4.325 1.885 5.87 3.83l.569.722.862-.32c.5-.183 1.026-.325 1.543-.485a9.16 9.16 0 0 0 1.381 2.486 9.983 9.983 0 0 0-1.853 1.427l1.79 1.801c.776-.772 1.875-1.387 3.116-1.867.419-.162.858-.3 1.304-.419.338-.091.678-.183 1.033-.249.488-.096.99-.16 1.5-.208.348-.033.696-.068 1.053-.081.523-.018 1.048.005 1.574.035.355.02.715.038 1.066.084.512.064 1.007.17 1.502.282 2.048.47 3.845 1.288 4.987 2.423l1.789-1.8c-.96-.956-2.218-1.735-3.654-2.332a9.337 9.337 0 0 0 .799-1.689c9.496 2.799 15.8 9.851 15.8 17.887 0 6.029-3.55 11.588-9.735 15.253l-.748.442 1.406 8.406h-7.591l-2.413-5.437-.95.132c-3.243.46-6.047.419-9.044-.043l-.96-.15-2.433 5.498h-7.599l1.409-8.63-.726-.446c-3.784-2.334-6.583-5.45-8.1-9.014l-.33-.772H577.3a1.166 1.166 0 0 1-1.165-1.163v-7.599c0-.642.523-1.165 1.165-1.165h6.934l.312-.813zm23.172-22.265c3.728 0 6.759 3.037 6.759 6.765 0 1.438-.47 2.835-1.335 4-.038-.01-.081-.01-.12-.02a18.825 18.825 0 0 0-4.078-.452c-.325 0-.642.023-.962.038-.068.005-.137.005-.208.01-.83.049-1.637.153-2.42.305-.085.015-.166.033-.25.048a17.16 17.16 0 0 0-2.26.633c-.018.005-.041.007-.059.015a6.724 6.724 0 0 1-1.827-4.577c0-3.728 3.032-6.765 6.76-6.765zM577.301 96.41a3.708 3.708 0 0 0-3.702 3.705v7.599c0 2.04 1.66 3.703 3.702 3.703h5.477c1.67 3.492 4.426 6.56 8.035 8.947l-1.617 9.915h12.232l2.322-5.242c2.624.328 5.12.356 7.87.036l2.307 5.206h12.24l-1.614-9.66c6.126-3.892 9.737-9.568 10.15-15.8 2.168-.363 5.061-1.973 5.607-6.456l-2.52-.307c-.35 2.897-1.944 3.837-3.076 4.152-.695-8.64-7.608-16.035-17.757-18.948.013-.209.058-.414.058-.623 0-5.13-4.172-9.305-9.296-9.305-5.128 0-9.298 4.175-9.298 9.305 0 .244.058.48.079.722-.346.104-.696.195-1.033.31-3.038-3.183-7.982-4.486-8.205-4.541l-1.584-.41v10.627c-2.26 2.072-4.03 4.492-5.164 7.065h-5.213z" fill="#CDCDCD" mask="url(#jlx7tgau3d)"/>
                <path fill="#CDCDCD" mask="url(#jlx7tgau3d)" d="M579.322 104.947h2.538v-3.06h-2.538zM518.453 255.627h2.538v-6.813h-2.538zM525.577 250.84h2.537v-6.814h-2.537zM525.577 258.314h2.537v-3.136h-2.537zM532.7 256.905h2.538v-6.814H532.7zM657.182 152.203h-7.34v2.54h4.802v36.801H645.5v2.54h11.682zM630.728 152.203h-55.4v41.881h55.13v-2.54h-52.592v-36.802h52.862z"/>
                <path d="M586.778 166.84h30.025v-4.477h-30.025v4.478zm-2.538 2.54h35.1v-9.556h-35.1v9.557zM584.24 176.596h35.1v-2.54h-35.1zM584.24 186.462h45.222v-2.54H584.24zM639.682 143.534v51.035l-1.705 3.413-1.708-3.413v-51.035h3.413zm-.436-6.171c0-.698-.569-1.27-1.27-1.27-.7 0-1.268.572-1.268 1.27v3.632H635c-.698 0-1.27.569-1.27 1.27v52.604c0 .198.05.39.135.568l2.843 5.687v2.649a1.27 1.27 0 1 0 2.538 0v-2.65l2.84-5.686c.088-.177.134-.37.134-.568V148.45h2.502v15.33a1.27 1.27 0 1 0 2.538 0v-16.6c0-.703-.566-1.27-1.269-1.27h-3.771v-3.646c0-.701-.569-1.27-1.269-1.27h-1.705v-3.632zM578.632 220.626h2.538v-7.129h-2.538zM578.632 228.176h2.538v-3.182h-2.538zM585.418 215.199h2.538v-7.13h-2.538zM585.418 222.749h2.538v-3.182h-2.538zM612.626 260.555v1.876a3.081 3.081 0 0 0 3.076 3.079h.606v2.306h2.538v-2.306h.607a3.081 3.081 0 0 0 3.076-3.079v-3.753a3.08 3.08 0 0 0-3.076-3.076h-3.751a.54.54 0 0 1-.538-.538v-3.756a.54.54 0 0 1 .538-.539h3.75a.54.54 0 0 1 .539.539v1.88h2.538v-1.88a3.081 3.081 0 0 0-3.076-3.078h-.607v-2.35h-2.538v2.35h-.606a3.081 3.081 0 0 0-3.076 3.078v3.756a3.081 3.081 0 0 0 3.076 3.078h3.75c.298 0 .539.241.539.536v3.753a.538.538 0 0 1-.538.539h-3.751a.538.538 0 0 1-.538-.539v-1.876h-2.538zM574.741 240.191h16.105v-2.54h-16.105zM574.741 257.53h16.105v-2.54h-16.105zM594.034 257.53h10.999v-2.54h-11zM574.741 251.747h16.105v-2.54h-16.105zM574.741 245.97h16.105v-2.54h-16.105z" fill="#CDCDCD" mask="url(#jlx7tgau3d)"/>
                <path d="M624.5 230.005c0 .154-.124.279-.277.279h-13.808a.278.278 0 0 1-.277-.28v-1.546a.28.28 0 0 1 .277-.282H624.223a.28.28 0 0 1 .277.282v1.547zm-14.694-11.401a1.526 1.526 0 0 1 .028-1.55 1.524 1.524 0 0 1 1.342-.761h12.286c.563 0 1.056.277 1.342.762.29.49.3 1.051.028 1.549l-3.84 7.032h-7.346l-3.84-7.032zm7.514 63.92c11.712 0 20.4-4.126 23.825-11.321 2.914-6.118 1.533-13.392-3.786-19.96-7.738-9.556-11.085-15.88-12.326-18.582 1.152-.356 2.005-1.39 2.005-2.656v-1.547a2.82 2.82 0 0 0-2.815-2.822h-.337l3.175-5.815a4.067 4.067 0 0 0-.074-4.059 4.056 4.056 0 0 0-3.525-2.009h-12.286c-1.461 0-2.781.75-3.527 2.01a4.067 4.067 0 0 0-.071 4.058l3.175 5.815h-.338a2.821 2.821 0 0 0-2.814 2.822v1.547c0 1.267.852 2.3 2.005 2.656-1.241 2.702-4.586 9.029-12.33 18.583a28.27 28.27 0 0 0-1.4 1.902l2.096 1.432c.396-.584.812-1.16 1.28-1.734 8.849-10.928 12.102-17.714 13.059-20.02h10.017c.956 2.306 4.212 9.092 13.062 20.02 4.677 5.775 5.94 12.068 3.464 17.267-2.987 6.275-10.837 9.874-21.534 9.874-4.385 0-8.313-.61-11.686-1.806l-.602 1.702v-1.775h-10.998v2.54h10.996c3.586 1.241 7.715 1.879 12.29 1.879zM562.911 132.466v13.142h-24.51a3.955 3.955 0 0 1-3.949-3.951v-5.222a3.954 3.954 0 0 1 3.949-3.95l24.51-.02zm-4.129 27.664a.685.685 0 0 1-.683.686h-63.572a.686.686 0 0 1-.685-.686v-41.97c1.11.866 2.485 1.404 3.995 1.404h60.262c.376 0 .683.307.683.683v9.7h-20.381a6.495 6.495 0 0 0-6.487 6.488v5.222c0 3.578 2.911 6.491 6.487 6.491h20.381v11.982zm-60.945-51.103h12.432l-7.943 7.997h-4.49a4 4 0 0 1-3.994-3.997c0-2.204 1.792-4 3.995-4zm33.74 7.997h-15.225l4.69-4.72c1.795 1.132 4.246 1.165 6.076.053l4.459 4.667zm-7.258-18.537 17.706 18.537h-6.936l-7.794-8.16-.918.88c-1.249 1.193-3.335 1.162-4.543-.041l-.898-.894-8.162 8.215h-6.87l18.415-18.537zm27.388 10.54c.368 0 .67.302.67.67v7.327h-6.842l-7.637-7.997h13.809zm6.392 7.997h-3.185v-7.327c0-1.77-1.441-3.21-3.207-3.21H535.47l-11.116-11.639-11.562 11.64h-14.955c-3.604 0-6.533 2.935-6.533 6.539v47.103a3.229 3.229 0 0 0 3.223 3.225H558.1a3.227 3.227 0 0 0 3.22-3.225v-11.982h1.615a2.52 2.52 0 0 0 2.515-2.52v-13.162a2.52 2.52 0 0 0-2.515-2.52h-1.614v-9.699a3.224 3.224 0 0 0-3.22-3.223zM426.836 101.087l-1.55 2.011 1.002.777c4.827 3.731 10.608 5.707 16.722 5.707 15.09 0 27.365-12.284 27.365-27.385s-12.276-27.388-27.365-27.388a27.1 27.1 0 0 0-11.547 2.552l-1.15.536 1.071 2.304 1.152-.539a24.602 24.602 0 0 1 10.474-2.313c13.691 0 24.827 11.146 24.827 24.848 0 13.699-11.136 24.845-24.827 24.845-5.548 0-10.794-1.79-15.169-5.176l-1.005-.78z" fill="#CDCDCD" mask="url(#jlx7tgau3d)"/>
                <path d="M435.974 88.92v1.27c0 2.038 1.786 3.694 3.981 3.694h1.784v2.555h2.538v-2.555h1.79c2.195 0 3.979-1.656 3.979-3.695v-5.46c0-2.04-1.784-3.695-3.98-3.695h-6.11c-.782 0-1.445-.531-1.445-1.158v-5.46c0-.628.663-1.156 1.444-1.156h6.111c.78 0 1.442.528 1.442 1.155v1.27h2.538v-1.27c0-2.04-1.784-3.695-3.98-3.695h-1.789v-2.768h-2.538v2.768h-1.784c-2.195 0-3.981 1.656-3.981 3.695v5.46c0 2.037 1.786 3.698 3.981 3.698h6.111c.78 0 1.442.529 1.442 1.156v5.46c0 .627-.662 1.156-1.442 1.156h-6.11c-.782 0-1.445-.529-1.445-1.156v-1.27h-2.537zM477.962 156.077c.025.843.066 1.861.111 2.984.178 4.472.475 11.959-.06 13.785l-.216.708c-.792 2.563-2.373 7.805-2.056 16.856h-18.602v-5.816l-.665-.36c-1.294-.701-2.271-2.288-2.941-4.658h11.689c.766 1 1.647 1.9 2.68 2.603l1.431-2.098c-5.593-3.812-6.284-15.12-6.291-15.235l-.028-.483-7.639-7.649a2.936 2.936 0 0 1-.002-4.147 2.938 2.938 0 0 1 4.144 0l9.89 9.9 1.794-1.796-1.13-1.133v-13.33c3.632 3.11 7.814 7.438 7.89 9.869zm-25.257 1.244c-.19.008-.378.033-.573.033-5.718 0-10.367-3.396-10.367-7.57 0-4.17 4.65-7.566 10.367-7.566 5.717 0 10.37 3.395 10.37 7.565 0 .628-.143 1.235-.348 1.829l-.843-.84a5.471 5.471 0 0 0-7.733 0c-1.774 1.772-2.048 4.464-.873 6.549zm-7.248 19.715a10.08 10.08 0 0 0-8.725-8.734v-39.598a10.082 10.082 0 0 0 8.725-8.734h13.35a10.087 10.087 0 0 0 8.727 8.734v28.294l-3.45-3.451c.61-1.199.955-2.456.955-3.764 0-5.572-5.791-10.105-12.907-10.105-7.114 0-12.905 4.533-12.905 10.105 0 5.577 5.791 10.11 12.905 10.11.634 0 1.259-.037 1.87-.103l.767-.087 5.776 5.778c.137 1.656.756 7.042 3.078 11.555h-18.166zm-8.725 0v-6.194a7.578 7.578 0 0 1 6.188 6.194h-6.188zm0-57.066h6.188a7.578 7.578 0 0 1-6.188 6.194v-6.194zm30.802 0v6.194a7.581 7.581 0 0 1-6.19-6.194h6.19zm2.538 8.861V117.431H434.195V179.576h17.462l-.723.183c.751 2.971 1.985 5.084 3.667 6.29v4.361h-3.738v9.577h2.538v-7.037h25.588v7.037h2.538v-9.577h-3.248c-.32-8.665 1.132-13.485 1.944-16.106l.223-.742c.607-2.06.431-7.832.162-14.603a392.694 392.694 0 0 1-.111-2.961c-.142-4.544-7.91-11.088-10.425-13.092V128.83zM462.4 217.66h-36.905v-7.44c0-.496.406-.902.904-.902h35.1c.497 0 .901.406.901.902v7.44zm-.9-10.882h-35.101a3.445 3.445 0 0 0-3.442 3.442v17.907h2.538V220.2H462.4v10.342h2.538V210.22a3.443 3.443 0 0 0-3.439-3.442z" fill="#CDCDCD" mask="url(#jlx7tgau3d)"/>
                <path fill="#CDCDCD" mask="url(#jlx7tgau3d)" d="M439.677 214.719h8.545v-2.54h-8.545zM462.398 234.853c-6.949 0-12.606 5.658-12.606 12.615 0 6.953 5.657 12.614 12.606 12.614 6.527 0 12.047-5.097 12.564-11.601l.102-1.267-2.53-.201-.102 1.265c-.41 5.196-4.82 9.264-10.034 9.264-5.55 0-10.068-4.52-10.068-10.074 0-5.557 4.518-10.075 10.068-10.075 1.114 0 2.208.177 3.25.536l1.204.411.82-2.403-1.204-.411a12.543 12.543 0 0 0-4.07-.673"/>
                <path fill="#CDCDCD" mask="url(#jlx7tgau3d)" d="m457.503 244.116-1.794 1.796 6.172 6.174 16.188-15.017-1.723-1.864-14.402 13.356zM873.735 98.393a9.756 9.756 0 0 1-8.4-8.406h8.4v8.406zm0 17.36a12.273 12.273 0 0 0-10.938 10.945h-54.923a12.266 12.266 0 0 0-10.938-10.946v-14.819a12.266 12.266 0 0 0 10.938-10.946h54.923a12.271 12.271 0 0 0 10.938 10.946v14.82zm0 10.945h-8.4a9.756 9.756 0 0 1 8.4-8.406v8.406zm-76.8 0v-8.406a9.756 9.756 0 0 1 8.4 8.406h-8.4zm0-36.71h8.4a9.756 9.756 0 0 1-8.4 8.405v-8.406zm-2.537 39.247h81.875V87.448h-81.875v41.787z"/>
                <path d="M835.336 120.055c-5.34 0-9.684-5.255-9.684-11.71 0-6.459 4.344-11.716 9.684-11.716 5.34 0 9.684 5.257 9.684 11.716 0 6.455-4.345 11.71-9.684 11.71m0-25.965c-6.738 0-12.222 6.394-12.222 14.255 0 7.855 5.484 14.25 12.222 14.25 6.738 0 12.222-6.395 12.222-14.25 0-7.86-5.484-14.255-12.222-14.255M794.399 75.403h81.874v-2.54H794.4zM794.399 82.712h81.874v-2.54H794.4zM666.374 75.251v-2.659h1.368a3.817 3.817 0 0 0 3.809-3.812v-5.277c0-2.1-1.71-3.812-3.81-3.812h-5.273c-.7 0-1.271-.572-1.271-1.273v-5.277c0-.7.57-1.272 1.271-1.272h5.274c.7 0 1.271.571 1.271 1.272v2.639h2.538V53.14c0-2.1-1.71-3.812-3.81-3.812h-1.367v-2.565h-2.538v2.565h-1.368a3.815 3.815 0 0 0-3.81 3.812v5.277a3.814 3.814 0 0 0 3.81 3.812h5.274c.7 0 1.271.572 1.271 1.273v5.277c0 .704-.571 1.273-1.271 1.273h-5.274c-.7 0-1.271-.57-1.271-1.273v-2.638h-2.538v2.638c0 2.1 1.708 3.812 3.809 3.812h1.368v2.66h2.538zM692.604 95.708c-3.093 0-5.75-1.806-7.047-4.402h7.352v-2.54h-8.111c-.04-.322-.097-.637-.097-.967 0-.333.056-.648.097-.968h8.11v-2.54h-7.351c1.297-2.6 3.954-4.403 7.047-4.403a7.887 7.887 0 0 1 6.06 2.837l1.944-1.633a10.422 10.422 0 0 0-8.004-3.744c-4.522 0-8.344 2.908-9.79 6.944h-2.604v2.54h2.05c-.03.322-.096.634-.096.967 0 .33.066.643.096.968h-2.05v2.54h2.603c1.447 4.03 5.269 6.94 9.791 6.94 3.276 0 6.299-1.5 8.299-4.12l-2.018-1.54c-1.515 1.985-3.801 3.12-6.28 3.12" fill="#CDCDCD" mask="url(#jlx7tgau3d)"/>
                <path d="M691.848 108.661c-11.494 0-20.848-9.36-20.848-20.863 0-11.505 9.354-20.863 20.848-20.863 11.496 0 20.848 9.358 20.848 20.863 0 11.502-9.352 20.863-20.848 20.863m0-44.266c-12.894 0-23.386 10.499-23.386 23.403 0 12.904 10.492 23.403 23.386 23.403 12.895 0 23.386-10.499 23.386-23.403 0-12.904-10.491-23.403-23.386-23.403" fill="#CDCDCD" mask="url(#jlx7tgau3d)"/>
                <path d="M665.105 84.363v-2.54c-11.496 0-20.848-9.36-20.848-20.863 0-11.502 9.352-20.863 20.848-20.863 11.493 0 20.848 9.361 20.848 20.863h2.538c0-12.904-10.492-23.403-23.386-23.403-12.895 0-23.386 10.5-23.386 23.403 0 12.904 10.491 23.403 23.386 23.403M692.007 52.203c.248.25.576.371.898.371.325 0 .65-.122.899-.37.494-.496.494-1.3 0-1.796l-1.43-1.43h5.612c3.439 0 6.235 2.801 6.235 6.24v5.633h2.538v-5.633c0-4.84-3.934-8.78-8.773-8.78h-5.611l1.429-1.427c.494-.495.494-1.3 0-1.795a1.272 1.272 0 0 0-1.797 0l-3.594 3.596a1.269 1.269 0 0 0 0 1.796l3.594 3.595zM650.661 87.907v5.644c0 4.835 3.931 8.769 8.763 8.769h5.624l-1.429 1.427a1.271 1.271 0 0 0 .899 2.17c.324 0 .65-.125.895-.374l3.594-3.596a1.26 1.26 0 0 0 .373-.897c0-.338-.135-.66-.373-.899l-3.594-3.596a1.27 1.27 0 1 0-1.794 1.796l1.429 1.43h-5.624c-3.43 0-6.225-2.797-6.225-6.23v-5.644h-2.538zM811.804 279.538v-34.54h14.32v37.387H814.65a2.85 2.85 0 0 1-2.845-2.847zm-2.538-37.08h-3.593v2.54h3.593v6.858h-10.953v-21.534h72.411v21.534h-10.81v-6.858h3.446v-2.54H809.266zm48.11 9.398v27.682a2.847 2.847 0 0 1-2.843 2.847h-18.087v-37.387h20.93v6.858zm-28.713 30.529h5.245v-37.387h-5.245v37.387zm-2.538 2.54h28.408a5.389 5.389 0 0 0 5.38-5.387v-25.143h13.349v-26.613h-77.487v26.613h13.491v25.143a5.39 5.39 0 0 0 5.383 5.386h11.476z" fill="#CDCDCD" mask="url(#jlx7tgau3d)"/>
                <path fill="#CDCDCD" mask="url(#jlx7tgau3d)" d="M847.695 256.595h2.538v-10.319h-2.538zM875.522 175.36h-62.534l.025-7.223 62.509.14v7.083zm0 33.37a.14.14 0 0 1-.142.138l-62.51-.137.108-30.832h62.544v30.832zm2.538-30.83V168.276a2.683 2.683 0 0 0-2.68-2.68h-62.367a2.683 2.683 0 0 0-2.68 2.68v40.453a2.68 2.68 0 0 0 2.68 2.678h62.367a2.68 2.68 0 0 0 2.68-2.677v-30.832z"/>
                <path d="M796.617 148.983c0-.462.373-.833.832-.833h60.981c.462 0 .838.371.838.833v6.39h-62.651v-6.39zm.832 42.438h12.012v-2.54h-12.012a.833.833 0 0 1-.832-.833v-30.135h62.65v6.971h2.538v-15.901a3.379 3.379 0 0 0-3.375-3.372h-60.98a3.376 3.376 0 0 0-3.371 3.372v39.065a3.376 3.376 0 0 0 3.37 3.373zM818.142 203.592H828.9v-2.54h-10.758zM831.925 203.592h10.758v-2.54h-10.758zM845.71 203.592h10.758v-2.54H845.71zM859.496 203.592h10.755v-2.54h-10.755zM840.61 188.532c0-1.014.824-1.842 1.84-1.842h3.106c1.015 0 1.84.828 1.84 1.842v3.11a1.84 1.84 0 0 1-1.84 1.84h-3.106a1.84 1.84 0 0 1-1.84-1.84v-3.11zm9.324 0c0-1.014.824-1.842 1.84-1.842h3.108c1.013 0 1.84.828 1.84 1.842v3.11a1.841 1.841 0 0 1-1.84 1.84h-3.109a1.84 1.84 0 0 1-1.84-1.84v-3.11zm9.326 0c0-1.014.822-1.842 1.837-1.842h3.11c1.012 0 1.837.828 1.837 1.842v3.11a1.84 1.84 0 0 1-1.838 1.84h-3.109a1.838 1.838 0 0 1-1.837-1.84v-3.11zm-16.81 7.49h3.106a4.356 4.356 0 0 0 3.109-1.301 4.36 4.36 0 0 0 3.108 1.3h3.11a4.365 4.365 0 0 0 3.108-1.3 4.354 4.354 0 0 0 3.106 1.3h3.11a4.38 4.38 0 0 0 4.374-4.378v-3.111a4.383 4.383 0 0 0-4.375-4.381h-3.109c-1.213 0-2.314.5-3.106 1.303a4.367 4.367 0 0 0-3.109-1.303h-3.109c-1.215 0-2.314.5-3.108 1.303a4.358 4.358 0 0 0-3.11-1.303h-3.105a4.385 4.385 0 0 0-4.378 4.38v3.112a4.383 4.383 0 0 0 4.378 4.378z" fill="#CDCDCD" mask="url(#jlx7tgau3d)"/>
                <path d="M820.68 193.482h5.992v-5.994h-5.992v5.994zm-.614 2.54h7.22c1.06 0 1.924-.864 1.924-1.925v-7.226a1.924 1.924 0 0 0-1.924-1.922h-7.22c-1.06 0-1.924.86-1.924 1.922v7.226c0 1.061.863 1.925 1.924 1.925zM923.146 18.172h2.538V11.36h-2.538zM923.146 25.648h2.538V22.51h-2.538zM930.27 13.384h2.538V6.573h-2.538zM930.27 20.861h2.538v-3.139h-2.538zM937.396 19.45h2.538v-6.812h-2.538zM937.396 26.926h2.538v-3.14h-2.538zM899.958 54.892c0-.64.52-1.163 1.162-1.163h6.936l.312-.813c1.023-2.659 2.832-5.17 5.236-7.269l.434-.378v-8.38c1.685.637 4.316 1.876 5.867 3.832l.574.718.862-.317c.498-.183 1.023-.328 1.538-.485.338.886.785 1.73 1.381 2.484-.69.424-1.317.901-1.85 1.43l1.79 1.8c.776-.772 1.877-1.39 3.12-1.872.417-.157.853-.294 1.3-.416a14.52 14.52 0 0 1 1.03-.247c.493-.096.998-.16 1.508-.208.345-.033.69-.068 1.043-.081a16.48 16.48 0 0 1 1.583.035c.356.023.71.039 1.059.082.512.066 1.012.172 1.51.284 2.043.47 3.84 1.285 4.981 2.423l1.79-1.8c-.96-.956-2.216-1.735-3.655-2.332a9.43 9.43 0 0 0 .802-1.689c9.496 2.794 15.795 9.851 15.795 17.887 0 6.03-3.545 11.586-9.732 15.253l-.749.44 1.406 8.408h-7.59l-2.414-5.44-.95.135c-3.227.457-6.044.416-9.046-.046l-.96-.147-2.43 5.498h-7.599l1.406-8.632-.72-.444c-3.785-2.334-6.589-5.453-8.104-9.016l-.327-.772h-7.137c-.642 0-1.162-.52-1.162-1.163v-7.6zm31.58-24.241c3.728 0 6.761 3.035 6.761 6.763a6.7 6.7 0 0 1-1.335 4c-.038-.01-.078-.01-.117-.018a18.691 18.691 0 0 0-4.08-.452c-.323 0-.64.023-.96.036-.07.005-.14.005-.208.01-.827.05-1.637.152-2.416.305-.091.015-.175.035-.261.053a16.4 16.4 0 0 0-2.254.627c-.017.008-.04.01-.06.018a6.714 6.714 0 0 1-1.828-4.58c0-3.727 3.033-6.762 6.758-6.762zM901.12 66.193h5.477c1.672 3.495 4.428 6.565 8.035 8.95l-1.615 9.915h12.235l2.32-5.244c2.626.327 5.129.355 7.867.038l2.312 5.206h12.24l-1.617-9.663c6.126-3.889 9.738-9.565 10.149-15.797 2.17-.363 5.063-1.973 5.608-6.459l-2.52-.307c-.352 2.9-1.944 3.84-3.078 4.153-.69-8.638-7.606-16.033-17.754-18.949.015-.208.058-.411.058-.622 0-5.128-4.17-9.303-9.299-9.303-5.123 0-9.296 4.175-9.296 9.303 0 .246.061.48.082.721-.348.104-.698.196-1.038.31-3.036-3.182-7.977-4.482-8.2-4.54l-1.586-.41v10.629c-2.261 2.07-4.03 4.49-5.165 7.065h-5.215c-2.04 0-3.7 1.661-3.7 3.703v7.599a3.705 3.705 0 0 0 3.7 3.702z" fill="#CDCDCD" mask="url(#jlx7tgau3d)"/>
                <path fill="#CDCDCD" mask="url(#jlx7tgau3d)" d="M903.146 59.723h2.538v-3.06h-2.538zM1122.722 87.195h2.538v-3.06h-2.538zM971.041 142.3h-9.143v2.539h11.681V102.96h-7.34v2.54h4.802zM946.855 142.3h-52.593v-36.8h52.862v-2.54h-55.4v41.879h55.131z"/>
                <path d="M903.176 117.594H933.2v-4.477h-30.023v4.477zm-2.537 2.54h35.097v-9.557H900.64v9.557zM900.639 127.35h35.097v-2.54H900.64zM900.639 137.218h45.218v-2.54H900.64zM956.08 94.289v51.037l-1.706 3.413-1.708-3.413V94.289h3.414zm-1.706-7.439c-.7 0-1.269.57-1.269 1.27v3.63h-1.708c-.697 0-1.268.568-1.268 1.269v52.604c0 .198.048.391.134.569l2.842 5.686v2.652a1.27 1.27 0 1 0 2.538 0v-2.652l2.84-5.686c.089-.178.135-.37.135-.569V99.206h2.502v15.329a1.27 1.27 0 1 0 2.538 0v-16.6c0-.703-.566-1.269-1.27-1.269h-3.77v-3.647c0-.7-.569-1.27-1.27-1.27h-1.705V88.12c0-.7-.568-1.27-1.269-1.27zM896.446 172.626h2.538v-7.129h-2.538zM896.446 180.18h2.538v-3.183h-2.538zM903.235 167.202h2.538v-7.13h-2.538zM903.235 174.752h2.538v-3.185h-2.538zM930.442 212.557v1.876a3.081 3.081 0 0 0 3.075 3.078h.607v2.306h2.538v-2.306h.606a3.081 3.081 0 0 0 3.076-3.078v-3.753a3.081 3.081 0 0 0-3.076-3.078h-3.75a.54.54 0 0 1-.539-.536v-3.756a.54.54 0 0 1 .538-.539h3.751c.297 0 .538.242.538.539v1.879h2.538v-1.88a3.081 3.081 0 0 0-3.076-3.077h-.606v-2.35h-2.538v2.35h-.607a3.081 3.081 0 0 0-3.075 3.078v3.756a3.08 3.08 0 0 0 3.075 3.075h3.751a.54.54 0 0 1 .538.539v3.753a.538.538 0 0 1-.538.539h-3.75a.54.54 0 0 1-.539-.539v-1.876h-2.537zM892.558 192.192h16.105v-2.54h-16.105zM892.558 209.528h16.105v-2.54h-16.105zM892.558 215.31h16.105v-2.54h-16.105zM892.558 221.088h16.105v-2.54h-16.105zM892.558 226.868h16.105v-2.54h-16.105zM892.558 232.646h16.105v-2.54h-16.105zM911.848 209.528h10.999v-2.54h-10.999zM911.848 215.31h10.999v-2.54h-10.999zM911.848 221.088h10.999v-2.54h-10.999zM911.848 226.868h10.999v-2.54h-10.999z" fill="#CDCDCD" mask="url(#jlx7tgau3d)"/>
                <path d="M942.318 182.006a.28.28 0 0 1-.28.28H928.23a.278.278 0 0 1-.276-.28v-1.546a.28.28 0 0 1 .276-.282h13.809c.152 0 .279.127.279.282v1.546zm-14.697-11.4a1.526 1.526 0 0 1 .028-1.55 1.526 1.526 0 0 1 1.343-.764h12.285c.566 0 1.056.28 1.343.764.289.488.3 1.052.03 1.55l-3.842 7.032h-7.347l-3.84-7.032zm-15.772 62.039h10.996c3.586 1.244 7.715 1.881 12.29 1.881 11.713 0 20.4-4.124 23.828-11.321 2.911-6.118 1.533-13.395-3.789-19.962-7.738-9.554-11.085-15.878-12.323-18.583 1.15-.355 2.005-1.386 2.005-2.654v-1.546a2.822 2.822 0 0 0-2.817-2.822h-.338l3.175-5.816a4.067 4.067 0 0 0-.074-4.058 4.058 4.058 0 0 0-3.525-2.012h-12.285a4.066 4.066 0 0 0-3.528 2.012 4.067 4.067 0 0 0-.07 4.058l3.174 5.816h-.338a2.821 2.821 0 0 0-2.814 2.822v1.546c0 1.268.855 2.299 2.005 2.654-1.241 2.705-4.586 9.029-12.329 18.585a28.504 28.504 0 0 0-1.4 1.903l2.096 1.43c.395-.582.814-1.161 1.279-1.735 8.849-10.926 12.102-17.712 13.06-20.018h10.016c.957 2.306 4.213 9.092 13.062 20.018 4.68 5.778 5.94 12.07 3.464 17.27-2.987 6.275-10.836 9.874-21.533 9.874-4.386 0-8.317-.61-11.684-1.806l-.604 1.7v-1.776h-11v2.54zM892.558 203.75h16.105v-2.54h-16.105zM892.558 197.972h16.105v-2.54h-16.105zM654.594 265.339V223.37c1.11.863 2.485 1.402 3.995 1.402H718.849c.378 0 .685.307.685.686v9.696h-20.381a6.494 6.494 0 0 0-6.487 6.489v5.221a6.494 6.494 0 0 0 6.487 6.49h20.381v11.984a.687.687 0 0 1-.685.686h-63.57a.687.687 0 0 1-.685-.686zm3.995-51.103h12.432l-7.943 7.997h-4.49a4.002 4.002 0 0 1-3.994-4 4.002 4.002 0 0 1 3.995-3.997zm33.74 7.997h-15.224l4.692-4.724c1.792 1.136 4.243 1.169 6.073.054l4.459 4.67zm-7.258-18.537 17.706 18.537h-6.936l-7.793-8.16-.92.876c-1.248 1.197-3.334 1.166-4.542-.035l-.898-.9-8.162 8.22h-6.87l18.415-18.538zm27.388 10.54c.368 0 .667.3.667.67v7.327h-6.84l-7.638-7.997h13.81zm11.204 23.436v13.143h-24.51a3.953 3.953 0 0 1-3.949-3.95v-5.221a3.953 3.953 0 0 1 3.949-3.95l24.51-.022zm-1.591 27.667v-11.985h1.614a2.519 2.519 0 0 0 2.515-2.517v-13.165a2.52 2.52 0 0 0-2.515-2.517h-1.614v-9.696a3.227 3.227 0 0 0-3.223-3.226h-3.185v-7.327a3.21 3.21 0 0 0-3.205-3.21h-16.237l-11.118-11.64-11.56 11.64h-14.955c-3.604 0-6.533 2.933-6.533 6.54v47.103a3.227 3.227 0 0 0 3.223 3.225h63.57a3.227 3.227 0 0 0 3.223-3.225zM971.331 220.84v-41.967c1.11.863 2.485 1.401 3.992 1.401H1035.586c.378 0 .685.308.685.686v9.697h-20.38c-3.58 0-6.487 2.913-6.487 6.49v5.222a6.494 6.494 0 0 0 6.486 6.49h20.381v11.981a.688.688 0 0 1-.685.689h-63.57a.686.686 0 0 1-.685-.689zm3.992-51.1h12.436l-7.944 7.995h-4.492a4 4 0 0 1-3.992-3.998 4 4 0 0 1 3.992-3.997zm33.743 7.995h-15.227l4.693-4.721c1.794 1.135 4.243 1.165 6.073.053l4.461 4.668zm-7.26-18.535 17.706 18.535h-6.936l-7.794-8.16-.918.879c-1.25 1.196-3.335 1.16-4.54-.039l-.899-.896-8.162 8.216h-6.87l18.412-18.535zm27.39 10.54c.368 0 .667.3.667.67v7.325h-6.84l-7.638-7.995h13.81zm11.204 23.436v13.143h-24.51a3.953 3.953 0 0 1-3.949-3.95v-5.221a3.953 3.953 0 0 1 3.95-3.952l24.51-.02zm-1.59 27.664v-11.982h1.61a2.521 2.521 0 0 0 2.518-2.519v-13.163c0-1.387-1.13-2.52-2.517-2.52h-1.612v-9.696a3.229 3.229 0 0 0-3.223-3.225h-3.185v-7.325a3.21 3.21 0 0 0-3.205-3.21h-16.237l-11.118-11.639-11.56 11.64h-14.958c-3.6 0-6.53 2.93-6.53 6.536v47.103a3.23 3.23 0 0 0 3.224 3.228h63.569a3.23 3.23 0 0 0 3.223-3.228zM987.277 118.5c0 14.46 11.755 26.225 26.205 26.225 14.45 0 26.206-11.764 26.206-26.225 0-7.004-2.726-13.592-7.675-18.545l-.898-.896-1.797 1.795.901.897a23.548 23.548 0 0 1 6.93 16.749c0 13.061-10.617 23.685-23.667 23.685s-23.667-10.624-23.667-23.685c0-13.062 10.618-23.685 23.667-23.685h1.27v-2.54h-1.27c-14.45 0-26.205 11.767-26.205 26.225" fill="#CDCDCD" mask="url(#jlx7tgau3d)"/>
                <path d="M1014.751 107.478v-2.644h-2.537v2.644h-1.65c-2.13 0-3.862 1.61-3.862 3.586v5.222c0 1.975 1.733 3.586 3.862 3.586h5.834c.721 0 1.325.48 1.325 1.049v5.219c0 .566-.604 1.048-1.325 1.048h-5.834c-.72 0-1.325-.482-1.325-1.048v-1.27h-2.537v1.27c0 1.978 1.733 3.588 3.862 3.588h1.65v2.44h2.537v-2.44h1.647c2.132 0 3.863-1.61 3.863-3.588v-5.22c0-1.978-1.73-3.588-3.863-3.588h-5.834c-.72 0-1.325-.48-1.325-1.046v-5.222c0-.569.604-1.046 1.325-1.046h5.834c.721 0 1.325.477 1.325 1.046v1.27h2.538v-1.27c0-1.976-1.73-3.586-3.863-3.586h-1.647zM1023.25 87.568v4.708h-4.705v2.54h4.705v4.708h2.538v-4.708h4.705v-2.54h-4.705v-4.708zM1039.597 78.88v3.835h-3.832v2.54h3.832v3.832h2.538v-3.833h3.83v-2.54h-3.83V78.88zM1051.138 101.843h2.538v-3.195h3.193v-2.54h-3.193v-3.194h-2.538v3.195h-3.192v2.54h3.192zM974.801 79.38h2.538V50.399H971.867V27.887a5.338 5.338 0 0 1 5.33-5.336h14.716a5.34 5.34 0 0 1 5.332 5.336v22.511h-5.474v28.983h2.538V52.938h5.474V27.887c0-4.343-3.53-7.876-7.87-7.876h-14.716c-4.34 0-7.867 3.533-7.867 7.876v25.05h5.471v26.444z" fill="#CDCDCD" mask="url(#jlx7tgau3d)"/>
                <path fill="#CDCDCD" mask="url(#jlx7tgau3d)" d="M983.287 79.38h2.538V54.237h-2.538zM984.556 3.191c3.16 0 5.733 2.575 5.733 5.737s-2.574 5.737-5.733 5.737c-3.16 0-5.733-2.575-5.733-5.737s2.573-5.737 5.733-5.737m0 14.014c4.56 0 8.27-3.713 8.27-8.277 0-4.564-3.71-8.277-8.27-8.277s-8.271 3.713-8.271 8.277c0 4.564 3.71 8.277 8.27 8.277M983.287 30.004h2.538v-2.951h-2.538zM983.287 36.96h2.538V34.01h-2.538zM983.287 43.914h2.538v-2.949h-2.538zM999.292 70.889l-1.55 2.009 1.002.777c4.827 3.733 10.608 5.706 16.724 5.706 15.087 0 27.362-12.284 27.362-27.382 0-15.104-12.275-27.388-27.362-27.388-4.035 0-7.918.858-11.55 2.552l-1.15.536 1.074 2.301 1.15-.536a24.621 24.621 0 0 1 10.476-2.313c13.691 0 24.825 11.146 24.825 24.848 0 13.699-11.134 24.843-24.825 24.843-5.55 0-10.796-1.788-15.171-5.176l-1.005-.777z"/>
                <path d="M1008.43 58.721v1.27c0 2.037 1.786 3.695 3.981 3.695h1.787v2.555h2.538v-2.555h1.786c2.195 0 3.982-1.658 3.982-3.695v-5.46c0-2.04-1.787-3.695-3.982-3.695h-6.11c-.783 0-1.445-.531-1.445-1.159v-5.46c0-.627.662-1.155 1.444-1.155h6.111c.782 0 1.444.528 1.444 1.155v1.27h2.538v-1.27c0-2.04-1.787-3.695-3.982-3.695h-1.787v-2.768h-2.537v2.768h-1.787c-2.195 0-3.982 1.656-3.982 3.695v5.46c0 2.037 1.787 3.698 3.982 3.698h6.111c.782 0 1.444.528 1.444 1.156v5.46c0 .625-.662 1.156-1.444 1.156h-6.11c-.783 0-1.445-.531-1.445-1.156v-1.27h-2.538zM916.37 255.21l-6.589 6.59a5.722 5.722 0 0 0-1.682 4.067c0 1.539.599 2.984 1.682 4.07a5.709 5.709 0 0 0 4.066 1.684 5.704 5.704 0 0 0 4.065-1.683l7.454-7.462c.505-.04 1.365-.13 2.439-.292v13.143h-45.572V255.21h34.136zm-34.137 29.397h45.572v-6.74h-45.572v6.74zm79.962-14.337h-7.591V242.78h7.59v-2.54h-10.128v3.47c-9.303.355-14.473-1.21-17.28-2.078l-.792-.24c-2.18-.642-8.326-.456-15.538-.17a357.22 357.22 0 0 1-3.16.12c-4.959.155-12.197 8.945-14.075 11.33h-21.525v34.476h50.647v-25.428c4.28-.927 9.958-2.895 12.795-7.065l-2.096-1.427c-4.091 6-16.186 6.743-16.308 6.75l-.487.028-8.129 8.137c-1.21 1.212-3.327 1.212-4.542 0a3.21 3.21 0 0 1-.94-2.275c0-.859.336-1.664.94-2.27l10.554-10.558-1.797-1.796-1.852 1.852v-.424h-13.983c3.342-3.965 8.192-8.709 10.877-8.793.9-.028 1.99-.068 3.18-.12 4.773-.187 12.765-.507 14.724.072l.759.229c2.94.911 8.36 2.544 18.028 2.189v20.033h-6.235l-.358.662c-2.14 3.947-11.072 4.303-14.336 4.117l-.15 2.535c.11.005.698.038 1.602.038 3.481 0 11.623-.485 14.701-4.813h4.776v3.99h10.129v-2.54zM757.98 78.051a10.082 10.082 0 0 0 8.727 8.732v28.297l-3.449-3.452c.61-1.199.955-2.456.955-3.764 0-5.572-5.79-10.105-12.908-10.105-7.116 0-12.904 4.533-12.904 10.105 0 5.575 5.788 10.11 12.904 10.11.635 0 1.26-.037 1.868-.103l.772-.087 5.773 5.778c.137 1.656.754 7.04 3.076 11.555h-18.163a10.077 10.077 0 0 0-8.725-8.733V86.783a10.074 10.074 0 0 0 8.725-8.732h13.349zm8.727 0v6.192a7.57 7.57 0 0 1-6.187-6.192h6.187zm-14.828 37.351c-.193.008-.378.033-.574.033-5.717 0-10.367-3.395-10.367-7.57 0-4.17 4.65-7.566 10.367-7.566 5.718 0 10.37 3.395 10.37 7.565 0 .625-.142 1.235-.35 1.829l-.84-.84c-2.064-2.07-5.667-2.07-7.733 0a5.434 5.434 0 0 0-1.599 3.867c0 .96.264 1.872.726 2.682zm17.366 2.217v-13.328c3.634 3.111 7.814 7.439 7.89 9.867.028.843.066 1.859.112 2.976.177 4.475.474 11.964-.064 13.79l-.215.714c-.79 2.558-2.368 7.805-2.05 16.85h-18.606v-5.812l-.662-.361c-1.297-.704-2.274-2.29-2.944-4.658h11.69c.766 1 1.649 1.9 2.68 2.603l1.428-2.097c-5.59-3.813-6.281-15.122-6.289-15.236l-.028-.485-7.64-7.647a2.923 2.923 0 0 1-.856-2.075c0-.782.304-1.519.855-2.072 1.11-1.107 3.038-1.107 4.144 0l9.893 9.897 1.794-1.796-1.132-1.13zm-33.339 17.498v-6.194a7.578 7.578 0 0 1 6.187 6.194h-6.187zm0-57.066h6.187a7.573 7.573 0 0 1-6.187 6.192v-6.192zm6.317-2.54h-8.855v62.146h17.462l-.722.183c.75 2.971 1.984 5.082 3.667 6.29v4.359h-3.739v9.58h2.538v-7.04h25.591v7.04h2.538v-9.58h-3.25c-.32-8.66 1.131-13.483 1.94-16.102l.227-.744c.606-2.062.431-7.835.162-14.61l-.112-2.954c-.142-4.546-7.91-11.088-10.425-13.092V75.512h-27.022zM1067.681 93.331V87.14a7.57 7.57 0 0 1 6.187 6.191h-6.187zm0-48.332a10.077 10.077 0 0 0 8.725-8.734h13.349a10.085 10.085 0 0 0 8.73 8.734v28.294l-3.451-3.45c.611-1.197.954-2.457.954-3.762 0-5.575-5.789-10.108-12.907-10.108-7.114 0-12.905 4.533-12.905 10.108 0 5.574 5.791 10.108 12.905 10.108.634 0 1.258-.036 1.87-.104l.766-.087 5.776 5.778c.14 1.658.757 7.042 3.079 11.555h-18.166a10.072 10.072 0 0 0-8.725-8.73V44.998zm0-8.734h6.187a7.575 7.575 0 0 1-6.187 6.194v-6.194zm30.804 0v6.194a7.581 7.581 0 0 1-6.192-6.194h6.192zm-14.833 37.351c-.19.008-.376.033-.571.033-5.718 0-10.367-3.395-10.367-7.568s4.649-7.568 10.367-7.568c5.717 0 10.369 3.395 10.369 7.568 0 .625-.142 1.232-.348 1.828l-.84-.843c-2.068-2.065-5.67-2.065-7.732 0a5.43 5.43 0 0 0-1.604 3.87c0 .96.266 1.87.726 2.68zm17.37 2.217V62.505c3.632 3.111 7.812 7.441 7.888 9.867.026.843.066 1.864.112 2.984.178 4.472.477 11.959-.06 13.785l-.217.711c-.791 2.56-2.372 7.804-2.053 16.853h-18.604v-5.813l-.663-.363c-1.294-.701-2.274-2.288-2.944-4.658h11.692c.764 1.003 1.645 1.9 2.677 2.603l1.432-2.098c-5.591-3.812-6.284-15.12-6.291-15.235l-.028-.482-7.64-7.65a2.905 2.905 0 0 1-.86-2.072c0-.783.305-1.519.86-2.075 1.105-1.105 3.036-1.105 4.145 0l9.887 9.9 1.795-1.796-1.127-1.133zm-24.486 20.038h6.073l-.726.183c.753 2.971 1.984 5.084 3.667 6.29v4.361h-3.738v9.577h2.537v-7.037h25.592v7.037h2.537v-9.577h-3.25c-.32-8.663 1.131-13.483 1.943-16.104l.226-.744c.604-2.06.432-7.832.16-14.603a392.996 392.996 0 0 1-.111-2.961c-.143-4.541-7.91-11.086-10.423-13.09V33.726H1065.143V95.87h11.393zM1088.17 287.851c-.018.013-1.638 1.15-4.069 1.15-2.555 0-5.22-1.366-5.403-1.447l-18.764-6.725-3.409-.04v-18.301h6.236c.264 0 .518.055.756.165l9.362 4.315a7.886 7.886 0 0 0 3.287.723h13.237c.22 0 .429.049.616.145.886.462 1.942 1.359 1.942 3.025 0 .668-.249.983-.437 1.16-.715.684-2.164.767-2.733.742l-13.945.005-.27.028c-1.877.406-5.057 1.905-5.057 4.917v1.27h2.538v-1.27c0-1.514 2.393-2.255 2.949-2.405l13.714-.008c.117.008.604.02 1.244-.053v.013l1.266-.087c5.773-.396 16.12-6.877 16.62-7.195.053-.038 5.461-3.781 7.448-1.209.574.745.546 1.296.472 1.649-.294 1.437-2.22 2.783-3.02 3.233l-24.58 16.2zm-9.099-33.953c0-8.777 7.137-15.92 15.91-15.92s15.91 7.143 15.91 15.92c0 4.97-2.26 9.562-6.19 12.607l.218.28c-2.294 1.346-6.779 3.845-10.547 5.104a4.51 4.51 0 0 0 .127-1.028c0-2.26-1.206-4.183-3.31-5.278a3.834 3.834 0 0 0-1.786-.431h-5.68a15.817 15.817 0 0 1-4.652-11.254zm39.181 15.04c.27-1.282-.058-2.57-.946-3.72-1.69-2.19-4.33-2.18-6.75-1.415a18.353 18.353 0 0 0 2.872-9.905c0-10.179-8.278-18.46-18.447-18.46-10.172 0-18.447 8.281-18.447 18.46 0 4.127 1.36 8.038 3.842 11.254h-4.21c-.764 0-1.533-.17-2.226-.49l-9.36-4.315a4.327 4.327 0 0 0-1.82-.4h-6.235v-3.908h-13.039v2.54h10.502V285.525h-10.502v2.54h13.04v-4.77h2.76l18.397 6.58c.13.069 3.228 1.666 6.418 1.666 3.292 0 5.477-1.574 5.515-1.605l24.441-16.111c.368-.204 3.607-2.055 4.195-4.887z" fill="#CDCDCD" mask="url(#jlx7tgau3d)"/>
                <path d="M1092.972 263.08h.739v1.917h2.538v-1.917h.738a3.207 3.207 0 0 0 3.203-3.205v-4.018a3.208 3.208 0 0 0-3.203-3.203h-4.015a.666.666 0 0 1-.665-.665v-4.015c0-.369.297-.666.665-.666h4.015c.368 0 .665.297.665.666v2.009h2.538v-2.01a3.207 3.207 0 0 0-3.203-3.204h-.738v-1.583h-2.538v1.583h-.739a3.207 3.207 0 0 0-3.202 3.205v4.015a3.209 3.209 0 0 0 3.202 3.205h4.015c.368 0 .665.3.665.663v4.018a.664.664 0 0 1-.665.665h-4.015a.664.664 0 0 1-.665-.665v-2.01h-2.537v2.01a3.207 3.207 0 0 0 3.202 3.205M1082.99 255.633h3.175v-2.54h-3.175zM1103.328 255.633h3.175v-2.54h-3.175zM1072.908 231.639c3.421 0 6.664 1.656 8.68 4.429l2.052-1.493a13.312 13.312 0 0 0-10.732-5.476c-7.311 0-13.257 5.95-13.257 13.267 0 7.315 5.946 13.265 13.257 13.265v-2.54c-5.91 0-10.72-4.81-10.72-10.725s4.81-10.727 10.72-10.727M1082.013 220.567c0-3.692 3.003-6.697 6.693-6.697 3.687 0 6.687 3.005 6.687 6.697 0 3.69-3 6.698-6.687 6.698-3.69 0-6.693-3.007-6.693-6.698m15.918 0c0-5.094-4.137-9.236-9.225-9.236-5.091 0-9.23 4.142-9.23 9.236 0 5.092 4.139 9.237 9.23 9.237 5.088 0 9.225-4.145 9.225-9.237M778.669 186.957h-36.905v-7.441c0-.496.404-.902.901-.902h35.103c.495 0 .901.406.901.902v7.44zm-.901-10.883h-35.103a3.444 3.444 0 0 0-3.439 3.442v17.907h2.538v-7.927h36.905v10.342h2.538v-20.322a3.444 3.444 0 0 0-3.439-3.442zM741.764 251.36v-6.643h36.905v6.644a.903.903 0 0 1-.901.901h-35.103a.901.901 0 0 1-.9-.901m39.442 0v-18.128h-2.538v8.944h-36.905v-7.03h-2.538v16.214a3.444 3.444 0 0 0 3.44 3.441h35.102a3.444 3.444 0 0 0 3.439-3.441" fill="#CDCDCD" mask="url(#jlx7tgau3d)"/>
                <path fill="#CDCDCD" mask="url(#jlx7tgau3d)" d="M757.473 249.984h5.482v-2.54h-5.482zM755.943 184.014h8.545v-2.54h-8.545zM732.87 224.203v1.27c0 2.172 1.91 3.944 4.26 3.944h2.097v2.812h2.537v-2.812h2.097c2.347 0 4.258-1.772 4.258-3.944v-6.019c0-2.174-1.91-3.941-4.258-3.941h-6.73c-.95 0-1.724-.63-1.724-1.405v-6.016c0-.772.774-1.402 1.723-1.402h6.73c.95 0 1.721.63 1.721 1.402v1.27h2.538v-1.27c0-2.174-1.91-3.942-4.258-3.942h-2.097v-3.05h-2.537v3.05h-2.097c-2.35 0-4.26 1.768-4.26 3.942v6.016c0 2.174 1.91 3.944 4.26 3.944h6.73c.95 0 1.721.628 1.721 1.402v6.02c0 .774-.771 1.404-1.72 1.404h-6.73c-.95 0-1.724-.63-1.724-1.405v-1.27h-2.538zM766.062 216.763c0 6.954 5.654 12.615 12.605 12.615 6.527 0 12.047-5.098 12.565-11.602l.099-1.267-2.528-.2-.102 1.264c-.413 5.196-4.821 9.265-10.034 9.265-5.553 0-10.068-4.518-10.068-10.075 0-5.557 4.515-10.075 10.068-10.075 1.111 0 2.208.18 3.25.536l1.204.409.817-2.403-1.203-.408a12.528 12.528 0 0 0-4.068-.673c-6.951 0-12.605 5.658-12.605 12.614"/>
                <path fill="#CDCDCD" mask="url(#jlx7tgau3d)" d="m773.772 213.412-1.794 1.796 6.169 6.174 16.191-15.017-1.726-1.864-14.4 13.356zM1057.31 127.17c0-.497.403-.904.9-.904h35.103c.498 0 .901.407.901.904v7.439h-36.905v-7.439zm-2.538 0v17.908h2.537v-7.93h36.905v10.342h2.538v-20.32c0-1.9-1.543-3.443-3.439-3.443h-35.103a3.445 3.445 0 0 0-3.438 3.443zM1094.214 192.368v6.644c0 .5-.403.904-.9.904h-35.104a.902.902 0 0 1-.9-.904v-6.644h36.904zm-36.905-9.57h-2.537v16.214c0 1.9 1.543 3.444 3.438 3.444h35.103a3.445 3.445 0 0 0 3.439-3.444v-18.126h-2.538v8.943h-36.905v-7.03z"/>
                <path fill="#CDCDCD" mask="url(#jlx7tgau3d)" d="M1073.019 197.64h5.484v-2.54h-5.484zM1071.491 131.67h8.545v-2.54h-8.545zM1048.417 171.855v1.27c0 2.174 1.911 3.944 4.259 3.944h2.096v2.812h2.538v-2.812h2.096c2.347 0 4.258-1.77 4.258-3.944v-6.016c0-2.177-1.91-3.945-4.258-3.945h-6.73c-.95 0-1.721-.63-1.721-1.404v-6.016c0-.772.771-1.402 1.72-1.402h6.73c.95 0 1.722.63 1.722 1.402v1.27h2.537v-1.27c0-2.174-1.91-3.942-4.258-3.942h-2.096v-3.05h-2.538v3.05h-2.096c-2.348 0-4.259 1.768-4.259 3.942v6.016c0 2.177 1.911 3.944 4.259 3.944h6.73c.949 0 1.72.63 1.72 1.405v6.016c0 .775-.771 1.404-1.72 1.404h-6.73c-.95 0-1.721-.63-1.721-1.404v-1.27h-2.538zM1094.212 151.8c-6.949 0-12.606 5.662-12.606 12.615 0 6.956 5.657 12.615 12.606 12.615 6.527 0 12.047-5.095 12.564-11.601l.102-1.265-2.53-.203-.102 1.267c-.411 5.194-4.82 9.262-10.034 9.262-5.553 0-10.068-4.52-10.068-10.075 0-5.557 4.515-10.075 10.068-10.075 1.114 0 2.207.18 3.25.536l1.203.412.818-2.405-1.2-.41a12.555 12.555 0 0 0-4.071-.672"/>
                <path fill="#CDCDCD" mask="url(#jlx7tgau3d)" d="m1089.317 161.064-1.794 1.795 6.17 6.174 16.19-15.017-1.723-1.864-14.402 13.356zM728.146 159.844v10.722h-12.95a3.155 3.155 0 0 1-3.147-3.151v-4.422a3.154 3.154 0 0 1 3.146-3.15h12.95zm-21.592-29.155a2.12 2.12 0 0 1 2.117-2.119 2.12 2.12 0 0 1 2.116 2.119 2.123 2.123 0 0 1-2.116 2.118 2.12 2.12 0 0 1-2.117-2.118zm3.386 13.239v-8.782c1.946-.557 3.385-2.334 3.385-4.457a4.66 4.66 0 0 0-4.654-4.658 4.659 4.659 0 0 0-4.655 4.658c0 2.123 1.44 3.9 3.386 4.457v7.202l-7.67 3.782.115.228h-5.949v2.54h30.368c.213 0 .383.175.383.389v8.017h-9.454a5.694 5.694 0 0 0-5.684 5.69v4.42c0 3.14 2.55 5.692 5.684 5.692h9.454v9.955c0 .211-.17.384-.383.384h-53.837a.387.387 0 0 1-.389-.384v-35.639h-2.537v35.64a2.929 2.929 0 0 0 2.926 2.923h53.837a2.928 2.928 0 0 0 2.92-2.924v-9.955h1.173a2.328 2.328 0 0 0 2.325-2.326v-11.15a2.328 2.328 0 0 0-2.325-2.326h-1.172v-8.017a2.929 2.929 0 0 0-2.921-2.929h-19.257l4.93-2.43z"/>
                <path d="M673.826 132.805a2.12 2.12 0 0 1 0-4.236 2.12 2.12 0 0 1 2.116 2.118 2.12 2.12 0 0 1-2.116 2.118m4.654-2.118a4.66 4.66 0 0 0-4.654-4.657 4.659 4.659 0 0 0-4.654 4.657c0 2.126 1.436 3.901 3.385 4.46v8.782l8.408 4.145v8.312h2.538v-9.892l-8.408-4.145v-7.202c1.946-.559 3.385-2.334 3.385-4.46M693.365 137.329a2.12 2.12 0 0 1-2.117 2.118 2.12 2.12 0 0 1 0-4.236 2.12 2.12 0 0 1 2.117 2.118zm-3.385-15.715v11.255c-1.95.56-3.386 2.334-3.386 4.46a4.659 4.659 0 0 0 4.654 4.658 4.66 4.66 0 0 0 4.655-4.658c0-2.126-1.44-3.9-3.386-4.46v-11.255h-2.537zM686.384 171.45v2.282a3.47 3.47 0 0 0 3.461 3.469h1.013v2.377h2.537V177.2h1.01a3.47 3.47 0 0 0 3.465-3.47v-4.56a3.47 3.47 0 0 0-3.464-3.467h-4.56a.926.926 0 0 1-.925-.927v-4.564c0-.51.414-.927.924-.927h4.56c.51 0 .927.416.927.927v2.283h2.538v-2.283a3.468 3.468 0 0 0-3.464-3.467h-1.01v-2.448h-2.538v2.448h-1.013a3.468 3.468 0 0 0-3.461 3.467v4.564a3.47 3.47 0 0 0 3.461 3.466h4.56c.51 0 .927.414.927.927v4.562a.93.93 0 0 1-.926.929h-4.56a.927.927 0 0 1-.925-.93v-2.28h-2.537zM1019.904 281.009a3.153 3.153 0 0 1-3.15-3.152v-4.42a3.154 3.154 0 0 1 3.15-3.153h12.95v10.725h-12.95zm-8.644-39.88a2.12 2.12 0 0 1 2.117-2.119 2.12 2.12 0 0 1 0 4.236 2.12 2.12 0 0 1-2.117-2.118zm20.635 42.42h1.17a2.331 2.331 0 0 0 2.327-2.33V270.07a2.33 2.33 0 0 0-2.327-2.326h-1.17v-8.018a2.927 2.927 0 0 0-2.926-2.923h-19.257l4.934-2.433v-8.782c1.946-.556 3.385-2.334 3.385-4.46a4.662 4.662 0 0 0-4.654-4.657 4.66 4.66 0 0 0-4.655 4.657c0 2.126 1.437 3.904 3.386 4.46v7.202l-7.67 3.782.112.231h-5.948v2.54h30.367c.213 0 .388.17.388.383v8.018h-9.453a5.695 5.695 0 0 0-5.687 5.694v4.419a5.696 5.696 0 0 0 5.687 5.691h9.453v9.953a.388.388 0 0 1-.388.386h-53.837a.384.384 0 0 1-.383-.386v-35.634h-2.538v35.634a2.926 2.926 0 0 0 2.921 2.926h53.837a2.928 2.928 0 0 0 2.926-2.926v-9.953z" fill="#CDCDCD" mask="url(#jlx7tgau3d)"/>
                <path d="M978.53 243.246a2.12 2.12 0 0 1 0-4.236 2.12 2.12 0 0 1 0 4.236m4.655-2.118a4.662 4.662 0 0 0-4.654-4.658 4.66 4.66 0 0 0-4.654 4.658c0 2.125 1.436 3.903 3.385 4.46v8.782l8.408 4.144v8.315h2.538v-9.894l-8.408-4.145v-7.203c1.949-.556 3.385-2.334 3.385-4.46M998.07 247.772a2.12 2.12 0 0 1-2.117 2.118 2.12 2.12 0 0 1 0-4.236 2.12 2.12 0 0 1 2.117 2.118zm-3.385-15.718v11.256c-1.95.559-3.386 2.336-3.386 4.462a4.66 4.66 0 0 0 4.654 4.658 4.662 4.662 0 0 0 4.655-4.658c0-2.126-1.437-3.903-3.386-4.462v-11.256h-2.537zM1692.781 55.063h2.538v-2.362h2.36v-2.54h-2.36V47.8h-2.538v2.361h-2.362v2.54h2.362z" fill="#CDCDCD" mask="url(#jlx7tgau3d)"/>
                <path d="M1694.05 44.959c3.563 0 6.466 2.905 6.466 6.473 0 3.569-2.903 6.471-6.466 6.471a6.478 6.478 0 0 1-6.469-6.47c0-3.569 2.904-6.474 6.47-6.474m0 15.484c4.963 0 9.003-4.043 9.003-9.01 0-4.97-4.04-9.014-9.004-9.014-4.966 0-9.006 4.043-9.006 9.013 0 4.968 4.04 9.011 9.006 9.011M1567.571 37.498h2.538v-2.364h2.363v-2.54h-2.363v-2.361h-2.538v2.361h-2.362v2.54h2.362z" fill="#CDCDCD" mask="url(#jlx7tgau3d)"/>
                <path d="M1568.84 27.394a6.478 6.478 0 0 1 6.47 6.471c0 3.569-2.904 6.474-6.47 6.474-3.565 0-6.466-2.905-6.466-6.474 0-3.568 2.9-6.47 6.466-6.47m0 15.484c4.967 0 9.007-4.043 9.007-9.014 0-4.967-4.04-9.01-9.007-9.01-4.964 0-9.004 4.043-9.004 9.01 0 4.97 4.04 9.014 9.004 9.014M1381.576 137.421h2.538v-2.364h2.36v-2.54h-2.36v-2.362h-2.538v2.362h-2.363v2.54h2.363z" fill="#CDCDCD" mask="url(#jlx7tgau3d)"/>
                <path d="M1382.845 127.314c3.563 0 6.466 2.906 6.466 6.474s-2.903 6.471-6.466 6.471a6.478 6.478 0 0 1-6.47-6.471c0-3.568 2.904-6.474 6.47-6.474m0 15.485c4.964 0 9.004-4.043 9.004-9.011 0-4.97-4.04-9.013-9.004-9.013-4.967 0-9.007 4.043-9.007 9.013 0 4.968 4.04 9.01 9.007 9.01M1277.994 47.067h2.538v-2.362h2.363v-2.54h-2.363v-2.362h-2.538v2.362h-2.362v2.54h2.362z" fill="#CDCDCD" mask="url(#jlx7tgau3d)"/>
                <path d="M1279.263 36.963c3.566 0 6.466 2.905 6.466 6.473 0 3.569-2.9 6.472-6.466 6.472-3.565 0-6.466-2.903-6.466-6.472 0-3.568 2.9-6.473 6.466-6.473m0 15.484c4.964 0 9.004-4.043 9.004-9.01 0-4.97-4.04-9.014-9.004-9.014-4.966 0-9.004 4.043-9.004 9.013 0 4.968 4.038 9.011 9.004 9.011M1206.313 104.467h2.538v-2.364h2.363v-2.54h-2.363v-2.362h-2.538v2.362h-2.362v2.54h2.362z" fill="#CDCDCD" mask="url(#jlx7tgau3d)"/>
                <path d="M1207.582 94.363a6.478 6.478 0 0 1 6.47 6.471c0 3.569-2.904 6.474-6.47 6.474-3.565 0-6.466-2.905-6.466-6.474 0-3.568 2.9-6.47 6.466-6.47m0 15.484c4.967 0 9.007-4.044 9.007-9.014 0-4.967-4.04-9.01-9.007-9.01-4.964 0-9.004 4.043-9.004 9.01 0 4.97 4.04 9.014 9.004 9.014M1202.21 192.661h-2.538v2.362h-2.363v2.54h2.363v2.362h2.538v-2.362h2.36v-2.54h-2.36z" fill="#CDCDCD" mask="url(#jlx7tgau3d)"/>
                <path d="M1200.94 202.765c-3.565 0-6.468-2.905-6.468-6.473a6.478 6.478 0 0 1 6.469-6.471c3.565 0 6.466 2.902 6.466 6.47 0 3.569-2.9 6.474-6.466 6.474m9.004-6.473c0-4.968-4.04-9.011-9.004-9.011-4.967 0-9.007 4.043-9.007 9.01 0 4.97 4.04 9.014 9.007 9.014 4.964 0 9.004-4.043 9.004-9.013M1538.315 189.196v-2.364h2.362v-2.54h-2.362v-2.36h-2.538v2.36h-2.363v2.54h2.363v2.364z" fill="#CDCDCD" mask="url(#jlx7tgau3d)"/>
                <path d="M1530.58 185.563c0-3.568 2.9-6.471 6.466-6.471 3.566 0 6.467 2.903 6.467 6.47 0 3.569-2.901 6.474-6.467 6.474-3.565 0-6.466-2.905-6.466-6.473m15.47 0c0-4.968-4.037-9.01-9.004-9.01-4.964 0-9.004 4.042-9.004 9.01 0 4.97 4.04 9.013 9.004 9.013 4.967 0 9.005-4.043 9.005-9.013M1379.097 59.713h2.538V57.35h2.363v-2.54h-2.363v-2.36h-2.538v2.36h-2.362v2.54h2.362z" fill="#CDCDCD" mask="url(#jlx7tgau3d)"/>
                <path d="M1380.366 49.61c3.566 0 6.467 2.904 6.467 6.47 0 3.568-2.901 6.474-6.467 6.474-3.565 0-6.469-2.906-6.469-6.474 0-3.566 2.904-6.47 6.47-6.47m0 15.483c4.963 0 9.003-4.043 9.003-9.013 0-4.967-4.04-9.01-9.004-9.01-4.966 0-9.006 4.043-9.006 9.01 0 4.97 4.04 9.013 9.006 9.013M1767.86 124.958h2.537v-2.364h2.36v-2.54h-2.36v-2.362h-2.537v2.362h-2.363v2.54h2.363z" fill="#CDCDCD" mask="url(#jlx7tgau3d)"/>
                <path d="M1769.129 114.852c3.563 0 6.466 2.905 6.466 6.473 0 3.569-2.903 6.471-6.466 6.471a6.478 6.478 0 0 1-6.47-6.47c0-3.569 2.904-6.474 6.47-6.474m-9.007 6.473c0 4.968 4.04 9.011 9.007 9.011 4.963 0 9.004-4.043 9.004-9.01 0-4.97-4.04-9.014-9.004-9.014-4.967 0-9.007 4.043-9.007 9.013M1734.19 35.182h2.538v-2.346h-2.538zM1739.154 35.182h2.538v-2.346h-2.538zM1744.222 35.182h2.538v-2.346h-2.538zM1202.772 48.241h2.538v-2.346h-2.538zM1207.736 48.241h2.537v-2.346h-2.537zM1212.801 48.241h2.538v-2.346h-2.538zM1511.298 209.22h2.537v-2.346h-2.537zM1516.262 209.22h2.537v-2.346h-2.537zM1521.332 209.22h2.538v-2.346h-2.538zM1606.958 174.315h2.537v-2.344h-2.537zM1611.922 174.315h2.537v-2.344h-2.537zM1616.99 174.315h2.537v-2.344h-2.538zM1347.561 37.064h2.538v-2.346h-2.538zM1352.525 37.064h2.538v-2.346h-2.538zM1357.593 37.064h2.538v-2.346h-2.538zM1125.158 251.495h2.538v-2.346h-2.538zM1130.122 251.495h2.538v-2.346h-2.538zM1135.187 251.495h2.538v-2.346h-2.538zM1122.963 163.255h2.538v-2.347h-2.538zM1127.927 163.255h2.538v-2.347h-2.538zM1132.992 163.255h2.538v-2.347h-2.538zM1688.256 137.122h2.538v-2.344h-2.538zM1698.288 137.122h2.538v-2.344h-2.538zM1693.367 132.2h2.345v-2.54h-2.345zM1693.37 142.237h2.345v-2.54h-2.345zM1459.4 135.946h2.537v-2.347h-2.537zM1469.431 135.946h2.538v-2.347h-2.538zM1464.513 131.022h2.345v-2.54h-2.345zM1464.513 141.06h2.345v-2.539h-2.345zM1197.648 168.28h2.538v-2.343h-2.538zM1207.677 168.28h2.538v-2.343h-2.538zM1202.759 163.362h2.342v-2.54h-2.342zM1202.759 173.398h2.342v-2.54h-2.342zM1191.275 245.428h2.538v-2.346h-2.538zM1201.307 245.428h2.538v-2.346h-2.538zM1196.39 240.506h2.344v-2.54h-2.345zM1196.39 250.546h2.344v-2.54h-2.345zM1355.596 203.28h2.538v-2.347h-2.538zM1365.628 203.277h2.537v-2.346h-2.537zM1360.707 198.356h2.345v-2.54h-2.345zM1360.707 208.395h2.345v-2.54h-2.345zM1158.452 35.281h.312v1.704h2.538v-1.704h.315a2.795 2.795 0 0 0 2.792-2.796v-3.164a2.794 2.794 0 0 0-2.792-2.791h-3.165a.255.255 0 0 1-.253-.254v-3.167c0-.14.114-.254.253-.254h3.165c.14 0 .254.114.254.254v1.582h2.538v-1.582a2.796 2.796 0 0 0-2.792-2.794h-.315v-1.72h-2.538v1.72h-.312a2.798 2.798 0 0 0-2.791 2.794v3.167a2.796 2.796 0 0 0 2.791 2.793h3.165c.14 0 .254.115.254.252v3.164a.255.255 0 0 1-.254.257h-3.165a.255.255 0 0 1-.253-.257v-1.582h-2.538v1.582a2.796 2.796 0 0 0 2.791 2.796" fill="#CDCDCD" mask="url(#jlx7tgau3d)"/>
                <path d="M1131.121 39.339h-1.713v-8.178l30.626-17.973 30.627 17.973v8.178H1131.12zm44.046 8.063h11.243V41.88h-11.243v5.523zm2.386 27.675h6.471V49.942h-6.471v25.135zm-2.538 0h-4.786V58.381c0-3.982-3.239-7.225-7.22-7.225h-5.949c-3.982 0-7.22 3.243-7.22 7.225v16.696h-4.789V49.942h2.388V41.88h25.19v8.063h2.386v25.135zm-7.324 0h-15.313V58.381a4.687 4.687 0 0 1 4.682-4.685h5.949c2.583 0 4.682 2.1 4.682 4.685v16.696zm-34.032-27.675h11.242V41.88h-11.242v5.523zm2.385 27.675h6.47V49.942h-6.47v25.135zm9.007 2.54H1199.99v-2.54h-13.428V49.942h2.386V41.88h4.25v-12.17l-33.164-19.464-33.164 19.464v12.17h4.251v8.063h2.386v25.135h-13.428v2.54h24.972z" fill="#CDCDCD" mask="url(#jlx7tgau3d)"/>
                <path fill="#CDCDCD" mask="url(#jlx7tgau3d)" d="M1147.293 29.694h5.324v-2.54h-5.324zM1167.45 29.694h5.325v-2.54h-5.324zM1642.452 197.016h.312v1.704h2.538v-1.704h.312a2.796 2.796 0 0 0 2.791-2.796v-3.164a2.794 2.794 0 0 0-2.791-2.792h-3.162a.256.256 0 0 1-.257-.256v-3.164c0-.14.114-.254.257-.254h3.162c.14 0 .253.114.253.254v1.582h2.538v-1.582a2.796 2.796 0 0 0-2.791-2.794h-.313v-1.72h-2.537v1.72h-.312a2.8 2.8 0 0 0-2.795 2.794v3.164a2.8 2.8 0 0 0 2.795 2.796h3.162c.14 0 .253.114.253.252v3.164a.255.255 0 0 1-.253.256h-3.162a.256.256 0 0 1-.257-.256v-1.582h-2.538v1.582a2.8 2.8 0 0 0 2.795 2.796"/>
                <path d="M1647.007 212.892h-5.952c-3.979 0-7.217 3.24-7.217 7.225v16.696h-4.786v-25.138h2.383v-8.06h25.192v8.06h2.386v25.138h-4.784v-16.696c0-3.985-3.24-7.225-7.222-7.225zm4.684 23.92h-15.315v-16.695a4.688 4.688 0 0 1 4.68-4.686h5.95a4.69 4.69 0 0 1 4.685 4.686v16.696zm-36.572-35.737h-1.713v-8.178l30.626-17.973 30.627 17.973v8.178H1615.119zm2.535 8.06h11.243v-5.523h-11.243v5.523zm2.388 27.678h6.472v-25.135h-6.472v25.135zm39.123-27.678h11.243v-5.523h-11.243v5.523zm2.386 27.678h6.471v-25.135h-6.471v25.135zm-2.538 2.54h24.972v-2.54h-13.425v-25.138h2.386v-8.06h4.25v-12.17l-33.164-19.465-33.164 19.464v12.17h4.251v8.061h2.386v25.138h-8.104v2.54H1659.013z" fill="#CDCDCD" mask="url(#jlx7tgau3d)"/>
                <path fill="#CDCDCD" mask="url(#jlx7tgau3d)" d="M1631.29 191.427h5.324v-2.54h-5.324zM1651.45 191.427h5.322v-2.54h-5.322zM1280.532 170.868a9.754 9.754 0 0 1 8.4 8.406h-8.4v-8.406zm0-17.359a12.278 12.278 0 0 0 10.938-10.945h54.923a12.268 12.268 0 0 0 10.936 10.945v14.82a12.266 12.266 0 0 0-10.936 10.945h-54.923a12.276 12.276 0 0 0-10.938-10.946V153.51zm0-10.945h8.4a9.756 9.756 0 0 1-8.4 8.406v-8.406zm76.797 0v8.406a9.759 9.759 0 0 1-8.4-8.406h8.4zm0 36.71h-8.4a9.756 9.756 0 0 1 8.4-8.406v8.406zm-79.335 2.54h81.872v-41.788h-81.872v41.788z"/>
                <path d="M1318.931 149.207c5.34 0 9.684 5.254 9.684 11.71 0 6.458-4.344 11.713-9.684 11.713-5.34 0-9.684-5.255-9.684-11.713 0-6.456 4.345-11.71 9.684-11.71m0 25.962c6.738 0 12.222-6.392 12.222-14.252 0-7.855-5.484-14.25-12.222-14.25-6.74 0-12.222 6.395-12.222 14.25 0 7.86 5.482 14.252 12.222 14.252M1277.995 127.979h81.872v-2.54h-81.872zM1277.995 135.288h81.872v-2.54h-81.872zM1676.305 54.113a9.759 9.759 0 0 1-8.4-8.406h8.4v8.406zm0 17.356a12.28 12.28 0 0 0-10.938 10.946h-54.923a12.27 12.27 0 0 0-10.935-10.946V56.653a12.27 12.27 0 0 0 10.935-10.946h54.923a12.28 12.28 0 0 0 10.938 10.946v14.816zm0 10.946h-8.4a9.759 9.759 0 0 1 8.4-8.406v8.406zm-76.796 0v-8.406a9.761 9.761 0 0 1 8.4 8.406h-8.4zm0-36.708h8.4a9.761 9.761 0 0 1-8.4 8.406v-8.406zm-2.538 39.245h81.872V43.167h-81.872v41.785z" fill="#CDCDCD" mask="url(#jlx7tgau3d)"/>
                <path d="M1637.906 75.772c-5.34 0-9.684-5.252-9.684-11.71 0-6.459 4.345-11.713 9.684-11.713 5.34 0 9.685 5.254 9.685 11.713 0 6.458-4.345 11.71-9.685 11.71m0-25.963c-6.738 0-12.222 6.395-12.222 14.253 0 7.858 5.484 14.25 12.222 14.25 6.74 0 12.222-6.392 12.222-14.25s-5.481-14.253-12.222-14.253M1596.971 31.121h81.872v-2.54h-81.872zM1596.971 38.43h81.872v-2.54h-81.872zM1155.146 108.356v-2.639a3.815 3.815 0 0 0-3.81-3.812h-1.367V99.34h-2.538v2.565h-1.37a3.813 3.813 0 0 0-3.807 3.812v5.278c0 2.1 1.708 3.812 3.807 3.812h5.276c.7 0 1.271.571 1.271 1.27v5.28c0 .703-.57 1.272-1.271 1.272h-5.276a1.272 1.272 0 0 1-1.27-1.272v-2.64h-2.537v2.64c0 2.1 1.708 3.812 3.807 3.812h1.37v2.659h2.538v-2.66h1.368a3.817 3.817 0 0 0 3.809-3.811v-5.28c0-2.1-1.71-3.81-3.81-3.81h-5.275a1.274 1.274 0 0 1-1.27-1.272v-5.278c0-.7.572-1.272 1.27-1.272h5.276c.7 0 1.271.571 1.271 1.272v2.639h2.538zM1176.2 148.284c-3.094 0-5.751-1.806-7.048-4.404h7.352v-2.54h-8.11c-.041-.32-.097-.635-.097-.967 0-.33.056-.645.096-.965h8.11v-2.54h-7.351c1.294-2.6 3.951-4.404 7.047-4.404a7.893 7.893 0 0 1 6.06 2.835l1.945-1.633a10.42 10.42 0 0 0-8.005-3.741c-4.522 0-8.344 2.908-9.793 6.943h-2.601v2.54h2.05c-.03.322-.096.635-.096.965 0 .332.066.645.096.967h-2.05v2.54h2.604c1.446 4.033 5.268 6.944 9.79 6.944 3.274 0 6.297-1.501 8.296-4.12l-2.015-1.541c-1.515 1.983-3.804 3.12-6.28 3.12" fill="#CDCDCD" mask="url(#jlx7tgau3d)"/>
                <path d="M1175.444 161.235c-11.494 0-20.848-9.359-20.848-20.863 0-11.502 9.354-20.864 20.848-20.864 11.496 0 20.848 9.362 20.848 20.864 0 11.504-9.352 20.863-20.848 20.863m23.386-20.863c0-12.904-10.492-23.403-23.386-23.403-12.895 0-23.386 10.499-23.386 23.403 0 12.904 10.491 23.403 23.386 23.403 12.894 0 23.386-10.5 23.386-23.403" fill="#CDCDCD" mask="url(#jlx7tgau3d)"/>
                <path d="M1148.7 90.134c-12.895 0-23.388 10.5-23.388 23.403 0 12.904 10.493 23.403 23.388 23.403v-2.54c-11.496 0-20.85-9.36-20.85-20.863 0-11.504 9.354-20.863 20.85-20.863 11.494 0 20.848 9.359 20.848 20.863h2.538c0-12.904-10.491-23.403-23.386-23.403M1177.396 95.79a1.27 1.27 0 0 0-1.794 0l-3.593 3.598a1.271 1.271 0 0 0-.373.899c0 .333.134.658.373.897l3.593 3.596a1.265 1.265 0 0 0 1.794 0c.495-.496.495-1.3 0-1.796l-1.426-1.427h5.611a6.242 6.242 0 0 1 6.236 6.24v5.63h2.538v-5.63c0-4.843-3.934-8.78-8.774-8.78h-5.61l1.425-1.432c.495-.495.495-1.3 0-1.796M1152.975 153.626c0-.338-.134-.66-.37-.899l-3.596-3.599a1.272 1.272 0 0 0-1.797 0 1.274 1.274 0 0 0 0 1.798l1.431 1.43h-5.624c-3.43 0-6.225-2.796-6.225-6.23v-5.643h-2.538v5.643c0 4.833 3.931 8.77 8.763 8.77h5.624l-1.431 1.427a1.274 1.274 0 0 0 0 1.798 1.274 1.274 0 0 0 1.797 0l3.596-3.596c.236-.239.37-.564.37-.899M1296.574 230.473h62.542v30.832a.14.14 0 0 1-.14.14l-62.508-.14.106-30.832zm.033-9.762 62.509.142v7.08h-62.534l.025-7.222zm0 43.273h62.37a2.68 2.68 0 0 0 2.677-2.68v-40.451c0-1.478-1.2-2.682-2.678-2.682h-62.369a2.684 2.684 0 0 0-2.677 2.682v40.452a2.682 2.682 0 0 0 2.677 2.679z" fill="#CDCDCD" mask="url(#jlx7tgau3d)"/>
                <path d="M1280.212 201.557c0-.46.37-.833.833-.833h60.98c.462 0 .836.374.836.833v6.39h-62.649v-6.39zm62.649 8.93v6.974h2.537v-15.904a3.377 3.377 0 0 0-3.372-3.372h-60.981a3.376 3.376 0 0 0-3.37 3.372v39.068a3.376 3.376 0 0 0 3.37 3.373h12.011v-2.54h-12.011a.833.833 0 0 1-.833-.833v-30.138h62.649zM1301.736 256.17h10.758v-2.539h-10.758zM1315.521 256.17h10.755v-2.539h-10.755zM1329.307 256.17h10.755v-2.539h-10.755zM1343.09 256.17h10.755v-2.539h-10.756zM1342.852 244.218v-3.111c0-1.013.825-1.839 1.84-1.839h3.109c1.015 0 1.84.826 1.84 1.839v3.111a1.844 1.844 0 0 1-1.84 1.841h-3.11a1.844 1.844 0 0 1-1.84-1.841zm-2.538 0a1.842 1.842 0 0 1-1.84 1.841h-3.106a1.844 1.844 0 0 1-1.84-1.841v-3.111c0-1.013.825-1.839 1.84-1.839h3.106a1.84 1.84 0 0 1 1.84 1.839v3.111zm-9.324 0a1.843 1.843 0 0 1-1.837 1.841h-3.109a1.845 1.845 0 0 1-1.84-1.841v-3.111c0-1.013.827-1.839 1.84-1.839h3.109a1.84 1.84 0 0 1 1.837 1.839v3.111zm16.81 4.38a4.386 4.386 0 0 0 4.378-4.38v-3.111a4.384 4.384 0 0 0-4.377-4.378h-3.11a4.36 4.36 0 0 0-3.108 1.3 4.351 4.351 0 0 0-3.109-1.3h-3.106a4.365 4.365 0 0 0-3.109 1.3 4.354 4.354 0 0 0-3.106-1.3h-3.109a4.383 4.383 0 0 0-4.378 4.378v3.111a4.385 4.385 0 0 0 4.378 4.38h3.109c1.213 0 2.314-.5 3.106-1.302a4.367 4.367 0 0 0 3.109 1.303h3.106c1.218 0 2.317-.5 3.109-1.303a4.362 4.362 0 0 0 3.109 1.303h3.109z" fill="#CDCDCD" mask="url(#jlx7tgau3d)"/>
                <path d="M1304.276 246.058h5.992v-5.996h-5.992v5.996zm6.606-8.536h-7.222c-1.061 0-1.924.864-1.924 1.928v7.223c0 1.061.863 1.925 1.924 1.925h7.222c1.061 0 1.924-.864 1.924-1.925v-7.223a1.927 1.927 0 0 0-1.924-1.928zM1411.38 63.761h2.537v-6.814h-2.538zM1411.38 71.238h2.537v-3.14h-2.538zM1418.505 58.971h2.538V52.16h-2.538zM1418.505 66.448h2.538v-3.136h-2.538zM1425.629 65.036h2.538v-6.811h-2.538zM1425.629 72.513h2.538v-3.137h-2.538zM1396.29 99.318l.312-.815c1.02-2.656 2.83-5.168 5.235-7.266l.434-.378v-8.384c1.685.638 4.317 1.877 5.87 3.835l.571.719.86-.32c.5-.183 1.026-.328 1.543-.485.335.886.782 1.73 1.38 2.486-.692.424-1.319.9-1.852 1.428l1.79 1.8c.776-.772 1.877-1.387 3.118-1.869.422-.16.858-.297 1.307-.42.335-.09.673-.177 1.026-.245.492-.094.997-.16 1.507-.209.345-.033.693-.068 1.048-.081.525-.015 1.05.003 1.574.036.357.022.718.038 1.065.08.516.067 1.016.174 1.513.288 2.043.47 3.835 1.285 4.977 2.42l1.789-1.8c-.96-.955-2.218-1.735-3.655-2.332.33-.536.59-1.102.8-1.686 9.499 2.793 15.8 9.849 15.8 17.887 0 6.026-3.548 11.586-9.732 15.25l-.752.442 1.409 8.406h-7.593l-2.414-5.44-.949.135c-3.225.46-6.042.42-9.044-.043l-.96-.147-2.434 5.495h-7.598l1.409-8.63-.726-.446c-3.784-2.334-6.583-5.453-8.1-9.014l-.328-.774h-7.134c-.642 0-1.165-.52-1.165-1.163v-7.596c0-.643.523-1.164 1.165-1.164h6.933zm23.484-23.077c3.728 0 6.758 3.032 6.758 6.763 0 1.44-.47 2.831-1.332 3.997-.038-.008-.079-.01-.112-.015a18.743 18.743 0 0 0-4.088-.455c-.325 0-.642.023-.96.038-.068.003-.134.003-.205.008-.832.05-1.642.155-2.426.307-.084.013-.16.03-.241.048-.79.166-1.55.374-2.266.633-.02.007-.043.01-.059.015a6.71 6.71 0 0 1-1.83-4.576 6.768 6.768 0 0 1 6.761-6.763zm-34.12 24.24v7.597a3.704 3.704 0 0 0 3.702 3.703h5.477c1.672 3.497 4.426 6.565 8.034 8.95l-1.616 9.914h12.235l2.32-5.242c2.626.325 5.13.353 7.869.036l2.307 5.206h12.24l-1.614-9.663c6.128-3.888 9.737-9.562 10.15-15.794 2.168-.366 5.064-1.974 5.607-6.459l-2.518-.31c-.353 2.9-1.946 3.845-3.078 4.155-.693-8.637-7.606-16.035-17.757-18.948.013-.208.058-.412.058-.622 0-5.13-4.172-9.303-9.296-9.303-5.129 0-9.298 4.173-9.298 9.303 0 .243.058.48.078.718-.345.104-.695.198-1.032.313-3.038-3.182-7.982-4.485-8.205-4.544l-1.584-.406V89.71c-2.261 2.07-4.027 4.49-5.164 7.068h-5.213a3.704 3.704 0 0 0-3.703 3.703z" fill="#CDCDCD" mask="url(#jlx7tgau3d)"/>
                <path fill="#CDCDCD" mask="url(#jlx7tgau3d)" d="M1391.376 105.31h2.538v-3.06h-2.538zM1717.27 63.395h2.539v-6.811h-2.538zM1717.27 70.87h2.539v-3.137h-2.538zM1724.394 58.608h2.538v-6.811h-2.538zM1724.394 66.085h2.538v-3.14h-2.538zM1731.52 64.673h2.538V57.86h-2.537zM1731.52 72.147h2.538v-3.139h-2.537zM1702.494 98.138c1.018-2.66 2.83-5.17 5.235-7.266l.432-.38v-8.38c1.688.64 4.324 1.885 5.87 3.83l.57.722.864-.32c.5-.183 1.025-.325 1.54-.485.338.889.782 1.732 1.38 2.486-.692.424-1.319.9-1.852 1.427l1.79 1.801c.778-.772 1.877-1.387 3.118-1.867.419-.162.855-.3 1.305-.419.337-.091.677-.183 1.03-.249.49-.096.992-.16 1.502-.208.345-.033.696-.068 1.054-.081a17.07 17.07 0 0 1 1.57.035c.358.02.719.038 1.069.084.51.064 1.007.17 1.502.282 2.046.47 3.842 1.288 4.984 2.423l1.79-1.8c-.96-.956-2.216-1.735-3.652-2.332a9.337 9.337 0 0 0 .8-1.689c9.496 2.799 15.797 9.851 15.797 17.887 0 6.029-3.548 11.588-9.733 15.253l-.748.442 1.406 8.406h-7.59l-2.417-5.437-.946.132c-3.244.46-6.05.419-9.045-.043l-.962-.15-2.431 5.498h-7.598l1.406-8.63-.724-.446c-3.784-2.334-6.585-5.45-8.1-9.014l-.33-.772h-7.134c-.64 0-1.162-.523-1.162-1.163v-7.599c0-.642.522-1.165 1.162-1.165h6.936l.312-.813zm23.17-22.265c3.728 0 6.76 3.037 6.76 6.765a6.723 6.723 0 0 1-1.334 4c-.04-.01-.084-.01-.122-.02a18.807 18.807 0 0 0-4.078-.452c-.322 0-.64.023-.96.038-.068.005-.136.005-.208.01-.83.049-1.636.153-2.42.305-.084.015-.166.033-.252.048-.787.168-1.545.374-2.258.633-.02.005-.041.007-.059.015a6.712 6.712 0 0 1-1.827-4.577c0-3.728 3.03-6.765 6.758-6.765zm-30.418 20.538c-2.04 0-3.7 1.663-3.7 3.705v7.599c0 2.04 1.66 3.703 3.7 3.703h5.477c1.672 3.492 4.428 6.56 8.034 8.947l-1.616 9.915h12.234l2.32-5.242c2.624.328 5.121.356 7.87.036l2.31 5.206h12.239l-1.614-9.66c6.126-3.892 9.737-9.568 10.149-15.8 2.167-.363 5.062-1.973 5.608-6.456l-2.52-.307c-.353 2.897-1.944 3.837-3.076 4.152-.695-8.64-7.608-16.035-17.757-18.948.013-.209.059-.414.059-.623 0-5.13-4.173-9.305-9.299-9.305-5.126 0-9.296 4.175-9.296 9.305 0 .244.058.48.079.722-.345.104-.696.195-1.036.31-3.035-3.183-7.978-4.486-8.202-4.541l-1.586-.41v10.627c-2.259 2.072-4.027 4.492-5.164 7.065h-5.213z"/>
                <path fill="#CDCDCD" mask="url(#jlx7tgau3d)" d="M1697.27 104.947h2.538v-3.06h-2.538zM1636.396 255.627h2.538v-6.813h-2.538zM1643.522 250.84h2.538v-6.814h-2.538zM1643.522 258.314h2.538v-3.136h-2.538zM1650.648 256.905h2.538v-6.814h-2.538zM1457.175 155.533h-7.34v2.54h4.802v36.8h-9.144v2.54h11.682zM1430.45 194.873h-52.595v-36.8h52.865v-2.54h-55.403v41.88h55.134z"/>
                <path d="M1386.77 170.17h30.025v-4.477h-30.025v4.477zm-2.538 2.543h35.1v-9.557h-35.1v9.557zM1384.232 179.925h35.1v-2.54h-35.1zM1384.232 189.794h45.221v-2.54h-45.22zM1439.675 146.865V197.9l-1.705 3.413-1.708-3.413v-51.035h3.413zm-1.705-7.441c-.7 0-1.27.571-1.27 1.27v3.632h-1.707c-.7 0-1.27.568-1.27 1.27v52.603c0 .198.049.391.135.57l2.843 5.686v2.648a1.27 1.27 0 0 0 2.537 0v-2.648l2.84-5.687c.09-.178.135-.37.135-.569v-46.417h2.502v15.33a1.27 1.27 0 1 0 2.538 0v-16.6c0-.703-.566-1.27-1.27-1.27h-3.77v-3.647c0-.7-.569-1.27-1.27-1.27h-1.705v-3.631c0-.699-.568-1.27-1.268-1.27zM1775.129 152.203h-7.34v2.54h4.802v36.801h-9.146v2.54h11.684zM1748.673 152.203h-55.4v41.881h55.133v-2.54h-52.596v-36.802h52.863z" fill="#CDCDCD" mask="url(#jlx7tgau3d)"/>
                <path d="M1704.724 166.84h30.025v-4.477h-30.025v4.478zm-2.538 2.54h35.1v-9.556h-35.1v9.557zM1702.186 176.596h35.1v-2.54h-35.1zM1702.186 186.462h45.219v-2.54h-45.219zM1757.63 143.534v51.035l-1.709 3.413-1.705-3.413v-51.035h3.413zm-.44-6.171a1.27 1.27 0 0 0-1.269-1.27c-.698 0-1.269.572-1.269 1.27v3.632h-1.705c-.7 0-1.269.569-1.269 1.27v52.604c0 .198.046.39.135.568l2.84 5.687v2.649a1.268 1.268 0 1 0 2.538 0v-2.65l2.842-5.686c.086-.177.134-.37.134-.568V148.45h2.502v15.33c0 .698.569 1.27 1.27 1.27.7 0 1.268-.572 1.268-1.27v-16.6c0-.703-.568-1.27-1.269-1.27h-3.77v-3.646c0-.701-.57-1.27-1.27-1.27h-1.708v-3.632zM1380.042 225.205h2.538v-7.129h-2.538zM1380.042 232.755h2.538v-3.184h-2.538zM1386.831 219.778h2.538v-7.132h-2.538zM1386.831 227.328h2.538v-3.185h-2.538zM1414.037 265.133v1.877a3.08 3.08 0 0 0 3.076 3.076h.606v2.308h2.538v-2.308h.606a3.077 3.077 0 0 0 3.074-3.076v-3.754a3.08 3.08 0 0 0-3.074-3.078h-3.75a.538.538 0 0 1-.538-.538v-3.754c0-.297.24-.538.538-.538h3.75c.297 0 .536.241.536.538v1.88h2.538v-1.88a3.078 3.078 0 0 0-3.074-3.078h-.606v-2.352h-2.538v2.352h-.606a3.08 3.08 0 0 0-3.076 3.078v3.754a3.08 3.08 0 0 0 3.076 3.078h3.75c.297 0 .536.241.536.538v3.754a.536.536 0 0 1-.536.536h-3.75a.538.538 0 0 1-.538-.536v-1.877h-2.538zM1376.152 244.765h16.105v-2.54h-16.105zM1376.152 256.326h16.105v-2.54h-16.105zM1376.152 250.548h16.105v-2.54h-16.105z" fill="#CDCDCD" mask="url(#jlx7tgau3d)"/>
                <path d="M1425.91 234.583a.276.276 0 0 1-.276.277h-13.808a.276.276 0 0 1-.277-.277v-1.55c0-.154.124-.279.277-.279H1425.634c.152 0 .276.125.276.28v1.549zm-14.693-11.4a1.526 1.526 0 0 1 .027-1.55 1.526 1.526 0 0 1 1.343-.764h12.285c.564 0 1.056.279 1.343.764.29.488.3 1.049.028 1.55l-3.84 7.032h-7.347l-3.84-7.033zm31.339 52.598c2.913-6.118 1.533-13.394-3.787-19.962-7.737-9.554-11.085-15.878-12.326-18.582 1.152-.356 2.005-1.39 2.005-2.654v-1.55a2.82 2.82 0 0 0-2.814-2.818h-.338l3.175-5.816a4.072 4.072 0 0 0-.074-4.061 4.061 4.061 0 0 0-3.525-2.009h-12.285a4.069 4.069 0 0 0-3.528 2.009 4.072 4.072 0 0 0-.07 4.06l3.174 5.817h-.337a2.82 2.82 0 0 0-2.815 2.819v1.549c0 1.265.853 2.298 2.005 2.654-1.241 2.704-4.588 9.028-12.329 18.582a28.31 28.31 0 0 0-1.4 1.905l2.096 1.43c.396-.582.812-1.16 1.279-1.735 8.85-10.925 12.103-17.711 13.06-20.02h10.016c.957 2.309 4.21 9.095 13.06 20.02 4.68 5.778 5.943 12.069 3.466 17.268-2.987 6.278-10.836 9.876-21.536 9.876-4.385 0-8.313-.61-11.684-1.805l-.601 1.699v-1.776h-10.999v2.54h10.996c3.586 1.242 7.713 1.882 12.288 1.882 11.715 0 20.402-4.127 23.828-11.322zM1696.578 220.626h2.537v-7.129h-2.537zM1696.578 228.176h2.537v-3.182h-2.537zM1703.366 215.199h2.538v-7.13h-2.538zM1703.366 222.749h2.538v-3.182h-2.538zM1730.573 260.555v1.876a3.08 3.08 0 0 0 3.076 3.079h.604v2.306h2.538v-2.306h.606a3.08 3.08 0 0 0 3.076-3.079v-3.753a3.078 3.078 0 0 0-3.076-3.076h-3.748a.54.54 0 0 1-.538-.538v-3.756a.54.54 0 0 1 .538-.539h3.748c.3 0 .538.244.538.539v1.88h2.538v-1.88a3.08 3.08 0 0 0-3.076-3.078h-.606v-2.35h-2.538v2.35h-.604a3.08 3.08 0 0 0-3.076 3.078v3.756a3.08 3.08 0 0 0 3.076 3.078h3.748c.3 0 .538.241.538.536v3.753a.537.537 0 0 1-.538.539h-3.748a.538.538 0 0 1-.538-.539v-1.876h-2.538zM1692.69 240.191h16.105v-2.54h-16.105zM1692.69 257.53h16.105v-2.54h-16.105zM1711.98 257.53h10.998v-2.54h-10.999zM1692.69 251.747h16.105v-2.54h-16.105zM1692.69 245.97h16.105v-2.54h-16.105z" fill="#CDCDCD" mask="url(#jlx7tgau3d)"/>
                <path d="M1742.447 230.005c0 .154-.125.279-.277.279h-13.808a.28.28 0 0 1-.28-.28v-1.546c0-.155.128-.282.28-.282h13.808a.28.28 0 0 1 .277.282v1.547zm-14.697-11.401a1.538 1.538 0 0 1 .028-1.55c.29-.484.777-.761 1.345-.761h12.286c.563 0 1.056.277 1.342.762.287.49.297 1.051.028 1.549l-3.84 7.032h-7.349l-3.84-7.032zm7.515 63.92c11.714 0 20.399-4.126 23.827-11.321 2.914-6.118 1.533-13.392-3.786-19.96-7.74-9.556-11.088-15.88-12.326-18.582 1.15-.356 2.005-1.39 2.005-2.656v-1.547a2.821 2.821 0 0 0-2.815-2.822h-.337l3.174-5.815a4.067 4.067 0 0 0-.073-4.059 4.056 4.056 0 0 0-3.525-2.009h-12.286c-1.461 0-2.781.75-3.527 2.01a4.067 4.067 0 0 0-.071 4.058l3.175 5.815h-.338a2.822 2.822 0 0 0-2.817 2.822v1.547c0 1.267.855 2.3 2.005 2.656-1.239 2.702-4.586 9.029-12.326 18.583-.51.63-.967 1.265-1.404 1.902l2.1 1.432c.393-.584.811-1.16 1.276-1.734 8.849-10.928 12.102-17.714 13.06-20.02h10.018c.957 2.306 4.21 9.092 13.06 20.02 4.68 5.775 5.944 12.068 3.467 17.267-2.99 6.275-10.84 9.874-21.536 9.874-4.385 0-8.314-.61-11.684-1.806l-.604 1.702v-1.775h-10.999v2.54h10.996c3.589 1.241 7.718 1.879 12.29 1.879zM1194.569 303.392h-24.51a3.955 3.955 0 0 1-3.95-3.952v-5.22a3.955 3.955 0 0 1 3.95-3.95l24.51-.021v13.143zm-4.13 14.524a.685.685 0 0 1-.682.683h-63.572a.685.685 0 0 1-.685-.683v-41.97c1.109.866 2.484 1.401 3.994 1.401H1189.757c.376 0 .683.308.683.686v9.697h-20.381c-3.576 0-6.487 2.91-6.487 6.49v5.22c0 3.58 2.91 6.491 6.487 6.491h20.38v11.985zm-60.945-51.103h12.433l-7.943 7.995h-4.49a4 4 0 0 1-3.994-3.998 4 4 0 0 1 3.994-3.997zm33.74 7.995H1148.009l4.692-4.721c1.797 1.135 4.246 1.165 6.076.053l4.459 4.668zm-7.258-18.537 17.707 18.537h-6.936l-7.794-8.16-.918.879c-1.252 1.196-3.335 1.163-4.543-.041l-.898-.894-8.162 8.216h-6.87l18.414-18.537zm27.388 10.542c.368 0 .67.3.67.668v7.327h-6.842l-7.636-7.995h13.808zm11.228 20.917h-1.614v-9.697a3.227 3.227 0 0 0-3.22-3.225h-3.186v-7.327a3.214 3.214 0 0 0-3.208-3.208h-16.236l-11.116-11.639-11.562 11.64h-14.956c-3.603 0-6.532 2.933-6.532 6.536v47.106a3.227 3.227 0 0 0 3.223 3.223h63.572a3.224 3.224 0 0 0 3.22-3.223v-11.985h1.615a2.52 2.52 0 0 0 2.515-2.519v-13.163a2.52 2.52 0 0 0-2.515-2.52zM1454.924 231.448c1.11.866 2.485 1.404 3.995 1.404h60.26c.38 0 .687.308.687.683v9.7h-20.38a6.492 6.492 0 0 0-6.487 6.488v5.22c0 3.578 2.906 6.49 6.486 6.49h20.381v11.983a.686.686 0 0 1-.687.685h-63.57a.686.686 0 0 1-.685-.685v-41.968zm3.995-9.133h12.432l-7.94 7.998h-4.492a4.002 4.002 0 0 1-3.995-3.998 4 4 0 0 1 3.995-4zm33.74 7.998h-15.225l4.693-4.727c1.794 1.138 4.243 1.169 6.073.056l4.459 4.67zm-7.258-18.54 17.706 18.54h-6.936l-7.794-8.16-.918.876c-1.249 1.196-3.332 1.163-4.54-.038l-.901-.897-8.16 8.219h-6.87l18.413-18.54zm27.39 10.542c.366 0 .665.3.665.668v7.33h-6.837l-7.639-7.998h13.811zm11.205 23.436v13.143h-24.51a3.953 3.953 0 0 1-3.95-3.952v-5.219a3.95 3.95 0 0 1 3.95-3.949l24.51-.023zm-68.387 30.89h63.57a3.228 3.228 0 0 0 3.225-3.225v-11.982h1.612a2.523 2.523 0 0 0 2.517-2.52v-13.163a2.52 2.52 0 0 0-2.517-2.517h-1.612v-9.699a3.227 3.227 0 0 0-3.225-3.222h-3.185v-7.33a3.21 3.21 0 0 0-3.203-3.207h-16.237l-11.12-11.642-11.56 11.642h-14.955c-3.602 0-6.533 2.933-6.533 6.54v47.1a3.225 3.225 0 0 0 3.223 3.225zM1680.858 132.466v13.142h-24.51a3.953 3.953 0 0 1-3.949-3.951v-5.222a3.953 3.953 0 0 1 3.95-3.95l24.51-.02zm-4.129 27.664a.685.685 0 0 1-.683.686h-63.572a.686.686 0 0 1-.687-.686v-41.97c1.111.866 2.487 1.404 3.994 1.404h60.265c.376 0 .683.307.683.683v9.7h-20.38a6.495 6.495 0 0 0-6.488 6.488v5.222c0 3.578 2.911 6.491 6.487 6.491h20.381v11.982zm-60.948-51.103h12.433l-7.94 7.997h-4.493a4.002 4.002 0 0 1-3.994-3.997c0-2.204 1.794-4 3.994-4zm33.743 7.997h-15.227l4.692-4.72c1.795 1.132 4.244 1.165 6.076.053l4.459 4.667zm-7.26-18.537 17.708 18.537h-6.938l-7.794-8.16-.916.88c-1.251 1.193-3.335 1.162-4.543-.041l-.9-.894-8.162 8.215h-6.868l18.412-18.537zm27.39 10.54c.365 0 .67.302.67.67v7.327h-6.842l-7.636-7.997h13.808zm6.392 7.997h-3.184v-7.327c0-1.77-1.442-3.21-3.208-3.21h-16.237L1642.3 94.848l-11.564 11.64h-14.956c-3.6 0-6.532 2.935-6.532 6.539v47.103a3.23 3.23 0 0 0 3.226 3.225h63.571a3.228 3.228 0 0 0 3.22-3.225v-11.982h1.612a2.523 2.523 0 0 0 2.518-2.52v-13.162c0-1.39-1.13-2.52-2.518-2.52h-1.611v-9.699a3.226 3.226 0 0 0-3.22-3.223zM1513.812 154.328c4.471 4.475 6.93 10.423 6.93 16.75 0 13.058-10.615 23.684-23.667 23.684-13.047 0-23.668-10.626-23.668-23.685 0-13.061 10.62-23.685 23.668-23.685h1.269v-2.54h-1.27c-14.447 0-26.205 11.762-26.205 26.225 0 14.458 11.758 26.225 26.206 26.225 14.453 0 26.205-11.767 26.205-26.225 0-7.007-2.723-13.592-7.674-18.545l-.896-.899-1.797 1.796.899.899z" fill="#CDCDCD" mask="url(#jlx7tgau3d)"/>
                <path d="M1503.856 164.91v-1.27c0-1.977-1.733-3.588-3.86-3.588h-1.652v-2.64h-2.538v2.64h-1.647c-2.129 0-3.862 1.61-3.862 3.589v5.219c0 1.978 1.733 3.588 3.862 3.588h5.837c.718 0 1.322.478 1.322 1.05v5.218c0 .567-.604 1.047-1.322 1.047h-5.837c-.718 0-1.324-.48-1.324-1.047v-1.27h-2.538v1.27c0 1.976 1.733 3.586 3.862 3.586h1.647v2.441h2.538v-2.44h1.652c2.127 0 3.86-1.61 3.86-3.587v-5.219c0-1.978-1.733-3.588-3.86-3.588h-5.837c-.718 0-1.324-.483-1.324-1.05v-5.218c0-.569.606-1.049 1.324-1.049h5.837c.718 0 1.322.48 1.322 1.049v1.27h2.538zM1502.139 147.391h4.705v4.709h2.538v-4.709h4.705v-2.54h-4.705v-4.708h-2.538v4.708h-4.705zM1525.728 141.662v-3.835h3.832v-2.54h-3.832v-3.832h-2.538v3.832h-3.83v2.54h3.83v3.835zM1534.734 145.489v3.195h-3.193v2.54h3.193v3.194h2.538v-3.195h3.192v-2.54h-3.192v-3.194zM1226.849 113.89h2.538V84.903h-5.474V62.392a5.338 5.338 0 0 1 5.329-5.335h14.719a5.338 5.338 0 0 1 5.33 5.335v22.512h-5.472v28.985h2.538V87.444h5.471V62.392c0-4.342-3.53-7.875-7.867-7.875h-14.719c-4.337 0-7.867 3.533-7.867 7.875v25.052h5.474v26.445z" fill="#CDCDCD" mask="url(#jlx7tgau3d)"/>
                <path fill="#CDCDCD" mask="url(#jlx7tgau3d)" d="M1235.332 113.889h2.538V88.744h-2.538zM1236.601 37.7a5.74 5.74 0 0 1 5.733 5.736 5.74 5.74 0 0 1-5.733 5.735 5.74 5.74 0 0 1-5.73-5.735c0-3.164 2.57-5.737 5.73-5.737m0 14.012c4.56 0 8.27-3.713 8.27-8.275 0-4.563-3.71-8.276-8.27-8.276-4.558 0-8.268 3.713-8.268 8.276 0 4.562 3.71 8.275 8.268 8.275M1235.332 64.513h2.538v-2.951h-2.538zM1235.332 71.466h2.538v-2.95h-2.538zM1235.332 78.423h2.538V75.47h-2.538zM1251.34 105.397l-1.553 2.01 1.002.776c4.83 3.731 10.61 5.707 16.724 5.707 15.087 0 27.365-12.284 27.365-27.385S1282.6 59.12 1267.513 59.12c-4.035 0-7.92.858-11.55 2.55l-1.149.535 1.073 2.304 1.15-.539a24.619 24.619 0 0 1 10.476-2.31c13.692 0 24.827 11.146 24.827 24.845 0 13.699-11.135 24.845-24.827 24.845-5.548 0-10.793-1.79-15.168-5.176l-1.005-.777z"/>
                <path d="M1260.477 93.227v1.27c0 2.04 1.787 3.695 3.982 3.695h1.784v2.555h2.538v-2.555h1.787c2.195 0 3.981-1.656 3.981-3.695v-5.46c0-2.037-1.786-3.695-3.981-3.695h-6.109c-.782 0-1.444-.529-1.444-1.158v-5.46c0-.628.662-1.156 1.444-1.156h6.109c.781 0 1.444.528 1.444 1.155v1.27h2.537v-1.27c0-2.04-1.786-3.695-3.981-3.695h-1.787v-2.766h-2.538v2.766h-1.784c-2.195 0-3.982 1.656-3.982 3.695v5.46c0 2.04 1.787 3.698 3.982 3.698h6.109c.781 0 1.444.531 1.444 1.156v5.46c0 .627-.663 1.156-1.444 1.156h-6.109c-.782 0-1.444-.529-1.444-1.156v-1.27h-2.538zM1520.292 109.581h2.538V80.596h-5.474V58.085a5.338 5.338 0 0 1 5.33-5.336h14.719a5.338 5.338 0 0 1 5.33 5.336v22.511h-5.473v28.985h2.538V83.136h5.472V58.085c0-4.343-3.53-7.876-7.867-7.876H1522.685c-4.337 0-7.867 3.533-7.867 7.876v25.05h5.474v26.446z" fill="#CDCDCD" mask="url(#jlx7tgau3d)"/>
                <path fill="#CDCDCD" mask="url(#jlx7tgau3d)" d="M1528.775 109.582h2.538V84.437h-2.538zM1530.045 33.392a5.74 5.74 0 0 1 5.732 5.734 5.74 5.74 0 0 1-5.732 5.737c-3.16 0-5.73-2.572-5.73-5.737a5.74 5.74 0 0 1 5.73-5.734m0 14.01c4.56 0 8.27-3.712 8.27-8.276 0-4.561-3.71-8.274-8.27-8.274s-8.269 3.713-8.269 8.274c0 4.564 3.708 8.277 8.269 8.277M1528.775 60.2h2.538v-2.948h-2.538zM1528.775 67.16h2.538v-2.952h-2.538zM1528.775 74.115h2.538v-2.95h-2.538zM1544.783 101.087l-1.553 2.011 1.002.777c4.83 3.731 10.611 5.707 16.725 5.707 15.087 0 27.365-12.284 27.365-27.385s-12.278-27.388-27.365-27.388c-4.036 0-7.918.858-11.55 2.552l-1.15.536 1.074 2.304 1.15-.539a24.621 24.621 0 0 1 10.476-2.313c13.691 0 24.827 11.146 24.827 24.848 0 13.699-11.136 24.845-24.827 24.845-5.548 0-10.794-1.79-15.169-5.176l-1.005-.78z"/>
                <path d="M1553.92 88.92v1.27c0 2.038 1.787 3.694 3.983 3.694h1.784v2.555h2.537v-2.555h1.787c2.195 0 3.982-1.656 3.982-3.695v-5.46c0-2.04-1.787-3.695-3.982-3.695h-6.108c-.782 0-1.444-.531-1.444-1.158v-5.46c0-.628.662-1.156 1.444-1.156h6.108c.782 0 1.444.528 1.444 1.155v1.27h2.538v-1.27c0-2.04-1.787-3.695-3.982-3.695h-1.787v-2.768h-2.537v2.768h-1.784c-2.196 0-3.982 1.656-3.982 3.695v5.46c0 2.037 1.786 3.698 3.982 3.698h6.108c.782 0 1.444.529 1.444 1.156v5.46c0 .627-.662 1.156-1.444 1.156h-6.108c-.782 0-1.444-.529-1.444-1.156v-1.27h-2.538zM1459.646 84.429h6.735V38.824h-6.735V84.43zm9.273-45.605h20.102v34.159l-6.586-6.59a5.755 5.755 0 0 0-8.131 0 5.765 5.765 0 0 0 0 8.136l7.454 7.46c.04.505.132 1.366.291 2.44h-13.13V38.824zm-2.538 48.145H1482.519c.924 4.281 2.89 9.963 7.055 12.805l1.429-2.1c-6-4.092-6.74-16.199-6.746-16.318l-.028-.488-8.13-8.134a3.222 3.222 0 0 1 0-4.546 3.216 3.216 0 0 1 4.542 0l10.552 10.56 1.794-1.796-1.852-1.854h.424V61.105c3.961 3.342 8.702 8.198 8.783 10.885.03.901.071 1.988.12 3.184.19 4.777.51 12.772-.067 14.733l-.23.76c-.912 2.945-2.544 8.367-2.188 18.041h-20.019v-6.24l-.664-.36c-3.942-2.139-4.302-11.081-4.112-14.345l-2.532-.152c-.033.528-.678 12.44 4.77 16.315v4.782h-3.989v10.133h2.538v-7.593h27.474v7.593h2.538v-10.133h-3.467c-.352-9.308 1.208-14.484 2.074-17.293l.241-.792c.64-2.181.457-8.333.17-15.55a358.058 358.058 0 0 1-.12-3.162c-.157-4.963-8.937-12.208-11.32-14.083V36.285h-34.451v50.684h9.273z" fill="#CDCDCD" mask="url(#jlx7tgau3d)"/>
                <path fill="#CDCDCD" mask="url(#jlx7tgau3d)" d="M1483.161 49.044h2.538v-6.626h-2.538zM1483.161 60.081h2.538v-6.628h-2.538zM1473.063 60.084h2.538V42.418h-2.538zM1219.5 187.693V181.5a7.57 7.57 0 0 1 6.188 6.194h-6.187zm0-48.332a10.082 10.082 0 0 0 8.726-8.736h13.348a10.087 10.087 0 0 0 8.73 8.736v28.292l-3.45-3.449c.61-1.199.953-2.456.953-3.761 0-5.575-5.788-10.11-12.907-10.11-7.113 0-12.905 4.535-12.905 10.11 0 5.572 5.792 10.105 12.905 10.105.635 0 1.259-.036 1.87-.104l.767-.086 5.776 5.777c.14 1.661.756 7.045 3.078 11.558h-18.165a10.077 10.077 0 0 0-8.725-8.734v-39.598zm0-8.736h6.188a7.575 7.575 0 0 1-6.187 6.196v-6.196zm30.805 0v6.196a7.58 7.58 0 0 1-6.193-6.196h6.193zm-14.834 37.35c-.19.01-.376.033-.57.033-5.719 0-10.368-3.395-10.368-7.565 0-4.175 4.65-7.571 10.367-7.571 5.718 0 10.37 3.396 10.37 7.57 0 .623-.143 1.23-.348 1.827l-.84-.84c-2.066-2.068-5.67-2.068-7.733 0a5.422 5.422 0 0 0-1.604 3.87c0 .957.267 1.866.726 2.676zm17.371 2.22v-13.33c3.63 3.108 7.812 7.438 7.888 9.868.025.841.066 1.86.111 2.977.178 4.475.478 11.964-.06 13.793l-.216.708c-.792 2.563-2.373 7.805-2.056 16.856h-18.602v-5.816l-.665-.36c-1.291-.704-2.274-2.291-2.941-4.658h11.69c.765 1.003 1.646 1.9 2.679 2.603l1.431-2.098c-5.59-3.812-6.283-15.12-6.29-15.235l-.029-.485-7.639-7.647a2.905 2.905 0 0 1-.86-2.072c0-.785.305-1.522.86-2.075 1.104-1.105 3.036-1.105 4.145 0l9.887 9.897 1.794-1.796-1.127-1.13zm-24.487 20.038h6.073l-.723.183c.751 2.971 1.982 5.082 3.664 6.29v4.361h-3.738v9.577h2.538v-7.037h25.591v7.037h2.538v-9.577h-3.25c-.32-8.665 1.13-13.485 1.943-16.106l.226-.742c.604-2.062.431-7.835.16-14.61l-.112-2.954c-.142-4.544-7.91-11.088-10.423-13.09v-25.48h-35.879V190.233h11.392zM1595.906 156.077c.028.843.066 1.861.112 2.984.178 4.472.474 11.959-.059 13.785l-.215.708c-.792 2.563-2.373 7.805-2.056 16.856h-18.602v-5.816l-.665-.36c-1.294-.701-2.274-2.288-2.941-4.658h11.686c.767 1 1.65 1.9 2.683 2.603l1.429-2.098c-5.591-3.812-6.284-15.12-6.289-15.235l-.028-.483-7.641-7.649a2.934 2.934 0 0 1 0-4.147c1.142-1.14 3-1.14 4.141 0l9.893 9.9 1.794-1.796-1.13-1.133v-13.33c3.632 3.11 7.815 7.438 7.888 9.869zm-25.253 1.244c-.193.008-.381.033-.574.033-5.718 0-10.37-3.396-10.37-7.57 0-4.17 4.652-7.566 10.37-7.566 5.718 0 10.367 3.395 10.367 7.565 0 .628-.14 1.235-.348 1.829l-.842-.84a5.468 5.468 0 0 0-7.73 0c-1.774 1.772-2.048 4.464-.873 6.549zm-7.248 19.715a10.08 10.08 0 0 0-8.728-8.734v-39.598a10.082 10.082 0 0 0 8.728-8.734h13.348a10.085 10.085 0 0 0 8.728 8.734v28.294l-3.452-3.451c.612-1.199.955-2.456.955-3.764 0-5.572-5.789-10.105-12.905-10.105s-12.907 4.533-12.907 10.105c0 5.577 5.791 10.11 12.907 10.11.634 0 1.256-.037 1.868-.103l.769-.087 5.776 5.778c.137 1.656.754 7.042 3.078 11.555h-18.165zm-8.728 0v-6.194a7.578 7.578 0 0 1 6.19 6.194h-6.19zm0-57.066h6.19a7.578 7.578 0 0 1-6.19 6.194v-6.194zm30.804 0v6.194a7.581 7.581 0 0 1-6.19-6.194h6.19zm2.538 8.861V117.431H1552.139V179.576h17.465l-.723.183c.749 2.971 1.982 5.084 3.667 6.29v4.361h-3.738v9.577h2.538v-7.037h25.589v7.037h2.537v-9.577h-3.248c-.322-8.665 1.132-13.485 1.941-16.106l.224-.742c.606-2.06.431-7.832.162-14.603-.043-1.112-.084-2.123-.109-2.961-.145-4.544-7.91-11.088-10.425-13.092V128.83zM1252.113 236.993h-36.905v-7.44c0-.499.404-.902.901-.902h35.1c.498 0 .904.403.904.901v7.441zm-.903-10.882h-35.1a3.443 3.443 0 0 0-3.44 3.441v17.907h2.538v-7.926h36.905v10.342h2.538v-20.323a3.445 3.445 0 0 0-3.441-3.441z"/>
                <path fill="#CDCDCD" mask="url(#jlx7tgau3d)" d="M1229.386 234.053h8.544v-2.54h-8.544zM1206.313 274.238v1.27c0 2.173 1.911 3.944 4.261 3.944h2.097v2.813h2.537v-2.813h2.094c2.35 0 4.261-1.77 4.261-3.945v-6.016c0-2.174-1.91-3.944-4.26-3.944h-6.729c-.949 0-1.723-.627-1.723-1.402v-6.019c0-.772.774-1.402 1.723-1.402h6.728c.95 0 1.723.63 1.723 1.402v1.27h2.538v-1.27c0-2.171-1.91-3.942-4.26-3.942h-2.095v-3.05h-2.537v3.05h-2.097c-2.35 0-4.26 1.77-4.26 3.942v6.019c0 2.174 1.91 3.942 4.26 3.942h6.728c.95 0 1.723.63 1.723 1.404v6.016c0 .775-.774 1.405-1.723 1.405h-6.728c-.949 0-1.723-.63-1.723-1.405v-1.27h-2.538zM1252.11 256.723c1.112 0 2.208.18 3.251.538l1.2.41.82-2.403-1.2-.409a12.557 12.557 0 0 0-4.07-.676c-6.952 0-12.606 5.661-12.606 12.617 0 6.954 5.654 12.615 12.605 12.615 6.528 0 12.047-5.097 12.565-11.601l.1-1.268-2.531-.2-.1 1.265c-.413 5.193-4.82 9.264-10.034 9.264-5.552 0-10.067-4.523-10.067-10.075 0-5.556 4.515-10.077 10.067-10.077"/>
                <path fill="#CDCDCD" mask="url(#jlx7tgau3d)" d="m1266.056 254.538-14.4 13.356-4.44-4.447-1.797 1.796 6.172 6.174 16.19-15.017zM1580.347 217.66h-36.905v-7.44c0-.496.404-.902.901-.902h35.103c.498 0 .901.406.901.902v7.44zm-.9-10.882h-35.104a3.444 3.444 0 0 0-3.438 3.442v17.907h2.537V220.2h36.905v10.342h2.538V210.22a3.444 3.444 0 0 0-3.439-3.442z"/>
                <path fill="#CDCDCD" mask="url(#jlx7tgau3d)" d="M1557.623 214.719h8.542v-2.54h-8.542zM1538.808 260.118h2.096v2.814h2.538v-2.814h2.096c2.348 0 4.259-1.767 4.259-3.941v-6.02c0-2.17-1.911-3.94-4.259-3.94h-6.73c-.95 0-1.723-.63-1.723-1.403v-6.019c0-.774.774-1.402 1.723-1.402h6.73c.95 0 1.72.628 1.72 1.402v1.27h2.539v-1.27c0-2.174-1.911-3.941-4.259-3.941h-2.096v-3.048h-2.538v3.048h-2.096c-2.35 0-4.261 1.767-4.261 3.941v6.02c0 2.17 1.91 3.94 4.26 3.94h6.731c.95 0 1.72.628 1.72 1.403v6.019c0 .774-.77 1.402-1.72 1.402h-6.73c-.95 0-1.723-.628-1.723-1.402v-1.27h-2.538v1.27c0 2.174 1.91 3.941 4.26 3.941M1580.345 234.853c-6.949 0-12.606 5.658-12.606 12.615 0 6.953 5.657 12.614 12.606 12.614 6.527 0 12.047-5.097 12.564-11.601l.102-1.267-2.53-.201-.102 1.265c-.414 5.196-4.82 9.264-10.034 9.264-5.553 0-10.068-4.52-10.068-10.074 0-5.557 4.515-10.075 10.068-10.075 1.114 0 2.208.177 3.25.536l1.2.411.82-2.403-1.2-.411a12.554 12.554 0 0 0-4.07-.673"/>
                <path fill="#CDCDCD" mask="url(#jlx7tgau3d)" d="m1575.45 244.116-1.794 1.796 6.17 6.174 16.19-15.017-1.723-1.864-14.402 13.356zM1169.431 225.248a3.153 3.153 0 0 1-3.15-3.152v-4.422a3.153 3.153 0 0 1 3.15-3.151h12.95v10.725h-12.95zm-8.644-39.88a2.12 2.12 0 0 1 2.117-2.119 2.12 2.12 0 0 1 0 4.236 2.12 2.12 0 0 1-2.117-2.118zm17.71 55.298a2.93 2.93 0 0 0 2.925-2.926v-9.953h1.17a2.331 2.331 0 0 0 2.327-2.329V214.31a2.33 2.33 0 0 0-2.327-2.326h-1.17v-8.018a2.929 2.929 0 0 0-2.926-2.923h-19.257l4.934-2.433v-8.782c1.946-.556 3.385-2.334 3.385-4.46a4.664 4.664 0 0 0-4.654-4.658 4.66 4.66 0 0 0-4.654 4.658c0 2.126 1.436 3.904 3.385 4.46v7.202l-7.67 3.782.112.231h-5.948v2.54h30.367c.213 0 .388.17.388.383v8.018h-9.453a5.695 5.695 0 0 0-5.687 5.691v4.422a5.696 5.696 0 0 0 5.687 5.691h9.453v9.953a.388.388 0 0 1-.388.386h-53.837a.386.386 0 0 1-.386-.386v-35.634h-2.537v35.634a2.927 2.927 0 0 0 2.923 2.926h53.837z"/>
                <path d="M1125.941 185.367a2.12 2.12 0 0 1 2.117-2.118 2.12 2.12 0 0 1 0 4.236 2.12 2.12 0 0 1-2.117-2.118zm11.791 25.701v-9.894l-8.405-4.145v-7.202c1.946-.557 3.385-2.334 3.385-4.46a4.662 4.662 0 0 0-4.654-4.658 4.66 4.66 0 0 0-4.654 4.658c0 2.126 1.436 3.903 3.385 4.46v8.782l8.405 4.144v8.315h2.538zM1145.48 194.127a2.12 2.12 0 0 1 0-4.236 2.12 2.12 0 0 1 0 4.236m4.655-2.118c0-2.126-1.439-3.901-3.386-4.46v-11.256h-2.537v11.256c-1.95.559-3.386 2.334-3.386 4.46a4.659 4.659 0 0 0 4.655 4.657 4.66 4.66 0 0 0 4.654-4.657M1145.092 208.978v2.448h-1.01a3.472 3.472 0 0 0-3.467 3.467v4.564a3.47 3.47 0 0 0 3.466 3.466h4.556c.515 0 .929.417.929.927v4.564c0 .51-.414.927-.93.927h-4.555a.927.927 0 0 1-.928-.927v-2.28h-2.538v2.28a3.472 3.472 0 0 0 3.466 3.467h1.01v2.38h2.538v-2.38h1.008a3.472 3.472 0 0 0 3.466-3.467v-4.564a3.472 3.472 0 0 0-3.466-3.466h-4.556a.927.927 0 0 1-.928-.927v-4.564c0-.51.413-.927.928-.927h4.556c.515 0 .929.416.929.927v2.283h2.537v-2.283a3.472 3.472 0 0 0-3.466-3.467h-1.008v-2.448h-2.537zM1356.101 93.646a3.153 3.153 0 0 1-3.15-3.151v-4.42a3.154 3.154 0 0 1 3.15-3.154h12.95v10.725h-12.95zm-8.644-39.877c0-1.169.95-2.121 2.117-2.121s2.116.952 2.116 2.12a2.12 2.12 0 0 1-2.116 2.119 2.12 2.12 0 0 1-2.117-2.118zm-36.128 55.296h53.837a2.93 2.93 0 0 0 2.926-2.926v-9.953h1.17a2.331 2.331 0 0 0 2.327-2.329V82.711a2.331 2.331 0 0 0-2.327-2.33h-1.17v-8.017a2.929 2.929 0 0 0-2.926-2.923h-19.26l4.937-2.433v-8.78c1.946-.559 3.385-2.336 3.385-4.46 0-2.57-2.091-4.66-4.654-4.66a4.661 4.661 0 0 0-4.655 4.66c0 2.124 1.437 3.901 3.386 4.46v7.2l-7.67 3.782.115.23h-5.951v2.54h30.367c.213 0 .388.173.388.384v8.018h-9.453a5.695 5.695 0 0 0-5.687 5.694v4.419a5.696 5.696 0 0 0 5.687 5.691h9.453v9.953a.388.388 0 0 1-.388.386h-53.837a.386.386 0 0 1-.386-.386V70.505h-2.537v35.634a2.927 2.927 0 0 0 2.923 2.926z" fill="#CDCDCD" mask="url(#jlx7tgau3d)"/>
                <path d="M1332.15 58.292a2.12 2.12 0 0 1 0 4.236 2.12 2.12 0 0 1 0-4.236m0 6.776a4.662 4.662 0 0 0 4.655-4.658c0-2.126-1.437-3.903-3.386-4.462V44.692h-2.537v11.256c-1.95.559-3.386 2.336-3.386 4.462a4.66 4.66 0 0 0 4.654 4.658M1314.728 51.648a2.12 2.12 0 0 1 0 4.239 2.12 2.12 0 0 1 0-4.24m-1.269 6.581v8.78l8.408 4.144v8.315h2.538v-9.894l-8.408-4.145v-7.2c1.946-.559 3.385-2.337 3.385-4.46 0-2.57-2.088-4.66-4.654-4.66a4.661 4.661 0 0 0-4.654 4.66c0 2.123 1.436 3.901 3.385 4.46M1330.75 100.28h1.01v2.38h2.538v-2.38h1.01a3.468 3.468 0 0 0 3.464-3.466v-4.563a3.468 3.468 0 0 0-3.464-3.467h-4.558a.927.927 0 0 1-.926-.93v-4.558c0-.516.413-.93.926-.93h4.558c.513 0 .926.414.926.93v2.278h2.538v-2.278a3.47 3.47 0 0 0-3.464-3.47h-1.01v-2.45h-2.538v2.45h-1.01a3.47 3.47 0 0 0-3.464 3.47v4.558a3.47 3.47 0 0 0 3.464 3.47h4.558c.513 0 .926.416.926.927v4.563c0 .51-.413.927-.926.927h-4.558a.927.927 0 0 1-.926-.927v-2.283h-2.538v2.283a3.468 3.468 0 0 0 3.464 3.467M1784.32 75.251v-2.659h1.368a3.815 3.815 0 0 0 3.807-3.812v-5.277c0-2.1-1.708-3.812-3.807-3.812h-5.276a1.274 1.274 0 0 1-1.269-1.273v-5.277c0-.7.571-1.272 1.27-1.272h5.275c.698 0 1.27.571 1.27 1.272v2.639h2.537V53.14c0-2.1-1.708-3.812-3.807-3.812h-1.367v-2.565h-2.538v2.565h-1.37a3.815 3.815 0 0 0-3.807 3.812v5.277a3.813 3.813 0 0 0 3.806 3.812h5.276c.698 0 1.27.572 1.27 1.273v5.277c0 .704-.572 1.273-1.27 1.273h-5.276a1.272 1.272 0 0 1-1.269-1.273v-2.638h-2.537v2.638c0 2.1 1.708 3.812 3.806 3.812h1.37v2.66h2.539zM1810.551 95.708c-3.093 0-5.75-1.806-7.047-4.402h7.35v-2.54h-8.109c-.04-.322-.096-.637-.096-.967 0-.333.055-.648.096-.968h8.108v-2.54h-7.35c1.295-2.6 3.955-4.403 7.048-4.403a7.887 7.887 0 0 1 6.06 2.837l1.945-1.633a10.422 10.422 0 0 0-8.005-3.744c-4.522 0-8.344 2.908-9.793 6.944h-2.601v2.54h2.05c-.03.322-.096.634-.096.967 0 .33.066.643.096.968h-2.05v2.54h2.601c1.449 4.03 5.271 6.94 9.793 6.94 3.274 0 6.297-1.5 8.296-4.12l-2.015-1.54a7.845 7.845 0 0 1-6.28 3.12" fill="#CDCDCD" mask="url(#jlx7tgau3d)"/>
                <path d="M1809.795 108.661c-11.496 0-20.848-9.36-20.848-20.863 0-11.505 9.352-20.863 20.848-20.863 11.494 0 20.848 9.358 20.848 20.863 0 11.502-9.354 20.863-20.848 20.863m0-44.266c-12.894 0-23.386 10.499-23.386 23.403 0 12.904 10.492 23.403 23.386 23.403 12.895 0 23.386-10.499 23.386-23.403 0-12.904-10.491-23.403-23.386-23.403" fill="#CDCDCD" mask="url(#jlx7tgau3d)"/>
                <path d="M1783.052 84.363v-2.54c-11.497 0-20.85-9.36-20.85-20.863 0-11.502 9.353-20.863 20.85-20.863 11.493 0 20.848 9.361 20.848 20.863h2.538c0-12.904-10.492-23.403-23.386-23.403-12.897 0-23.389 10.5-23.389 23.403 0 12.904 10.492 23.403 23.389 23.403M1768.608 87.907v5.644c0 4.835 3.931 8.769 8.763 8.769h5.621l-1.428 1.427a1.271 1.271 0 0 0 .898 2.17c.325 0 .65-.125.896-.374l3.596-3.596a1.26 1.26 0 0 0 .373-.897c0-.338-.135-.66-.373-.899l-3.596-3.596a1.27 1.27 0 1 0-1.794 1.796l1.428 1.43h-5.62c-3.432 0-6.226-2.797-6.226-6.23v-5.644h-2.538zM1772.541 265.339V223.37c1.11.863 2.485 1.402 3.995 1.402H1836.796c.378 0 .685.307.685.686v9.696H1817.1a6.494 6.494 0 0 0-6.487 6.489v5.221a6.494 6.494 0 0 0 6.487 6.49h20.381v11.984a.687.687 0 0 1-.685.686h-63.57a.686.686 0 0 1-.685-.686zm3.995-51.103h12.432l-7.943 7.997h-4.49a4.002 4.002 0 0 1-3.994-4 4.002 4.002 0 0 1 3.995-3.997zm33.74 7.997h-15.227l4.692-4.724c1.795 1.136 4.244 1.169 6.073.054l4.462 4.67zm-7.258-18.537 17.703 18.537h-6.935l-7.792-8.16-.918.876c-1.251 1.197-3.335 1.166-4.543-.035l-.898-.9-8.162 8.22h-6.87l18.415-18.538zm27.388 10.54c.368 0 .667.3.667.67v7.327h-6.84l-7.638-7.997h13.81zm11.204 23.436v13.143h-24.51a3.953 3.953 0 0 1-3.949-3.95v-5.221a3.953 3.953 0 0 1 3.949-3.95l24.51-.022zm-1.591 27.667v-11.985h1.614a2.519 2.519 0 0 0 2.515-2.517v-13.165a2.52 2.52 0 0 0-2.515-2.517h-1.614v-9.696a3.227 3.227 0 0 0-3.223-3.226h-3.185v-7.327c0-1.77-1.44-3.21-3.205-3.21h-16.237l-11.118-11.64-11.56 11.64h-14.955c-3.604 0-6.533 2.933-6.533 6.54v47.103a3.227 3.227 0 0 0 3.223 3.225h63.57a3.227 3.227 0 0 0 3.223-3.225zM1846.093 159.844v10.722h-12.95a3.155 3.155 0 0 1-3.15-3.151v-4.422a3.155 3.155 0 0 1 3.15-3.15h12.95zm-21.594-29.155a2.12 2.12 0 0 1 2.116-2.119 2.12 2.12 0 0 1 0 4.237 2.12 2.12 0 0 1-2.116-2.118zm3.385 13.239v-8.782c1.95-.557 3.386-2.334 3.386-4.457a4.659 4.659 0 0 0-4.655-4.658 4.66 4.66 0 0 0-4.654 4.658c0 2.123 1.442 3.9 3.385 4.457v7.202l-7.666 3.782.114.228h-5.951v2.54h30.37c.21 0 .383.175.383.389v8.017h-9.453a5.696 5.696 0 0 0-5.688 5.69v4.42a5.696 5.696 0 0 0 5.688 5.692h9.453v9.955c0 .211-.173.384-.383.384h-53.84a.387.387 0 0 1-.386-.384v-35.639h-2.537v35.64a2.928 2.928 0 0 0 2.923 2.923h53.84a2.928 2.928 0 0 0 2.92-2.924v-9.955h1.173a2.328 2.328 0 0 0 2.325-2.326v-11.15a2.328 2.328 0 0 0-2.325-2.326h-1.172v-8.017a2.929 2.929 0 0 0-2.921-2.929h-19.26l4.931-2.43z" fill="#CDCDCD" mask="url(#jlx7tgau3d)"/>
                <path d="M1791.77 132.805a2.12 2.12 0 0 1 0-4.236 2.12 2.12 0 0 1 0 4.236m4.655-2.118a4.659 4.659 0 0 0-4.654-4.657 4.66 4.66 0 0 0-4.655 4.657c0 2.126 1.437 3.901 3.386 4.46v8.782l8.407 4.145v8.312h2.538v-9.892l-8.408-4.145v-7.202c1.95-.559 3.386-2.334 3.386-4.46M1811.31 137.329a2.12 2.12 0 0 1-2.117 2.118 2.12 2.12 0 0 1 0-4.236 2.12 2.12 0 0 1 2.117 2.118zm-3.386-15.715v11.255c-1.949.56-3.385 2.334-3.385 4.46a4.66 4.66 0 0 0 4.654 4.658 4.659 4.659 0 0 0 4.654-4.658c0-2.126-1.436-3.9-3.385-4.46v-11.255h-2.538zM1804.328 171.45v2.282a3.47 3.47 0 0 0 3.464 3.469h1.013v2.377h2.538V177.2h1.01a3.47 3.47 0 0 0 3.464-3.47v-4.56a3.47 3.47 0 0 0-3.464-3.467h-4.56a.929.929 0 0 1-.927-.927v-4.564c0-.51.416-.927.926-.927h4.56c.51 0 .927.416.927.927v2.283h2.538v-2.283a3.468 3.468 0 0 0-3.464-3.467h-1.01v-2.448h-2.538v2.448h-1.013a3.468 3.468 0 0 0-3.464 3.467v4.564a3.47 3.47 0 0 0 3.464 3.466h4.56c.51 0 .927.414.927.927v4.562a.93.93 0 0 1-.926.929h-4.56a.93.93 0 0 1-.927-.93v-2.28h-2.538z" fill="#CDCDCD" mask="url(#jlx7tgau3d)"/>
            </g>
        </g>
    </g>
</svg>
