<?xml version="1.0" encoding="UTF-8"?>
<svg width="30px" height="25px" viewBox="0 0 30 25" version="1.1" xmlns="http://www.w3.org/2000/svg" xmlns:xlink="http://www.w3.org/1999/xlink">
    <title>icon-new-enduser</title>
    <g id="Page-1" stroke="none" stroke-width="1" fill="none" fill-rule="evenodd">
        <g id="icon-statement-bitcoin" transform="translate(-93.000000, -1318.000000)" fill="#BABABA" fill-rule="nonzero">
            <path d="M114.909091,1318.5 C116.285408,1318.5 117.410403,1319.57206 117.494905,1320.92701 L117.5,1321.09091 L117.500604,1327.39858 C120.694222,1328.44855 123,1331.455 123,1335 C123,1339.41828 119.418278,1343 115,1343 C112.667789,1343 110.568668,1342.00202 109.106388,1340.40981 L96.0909091,1340.40909 C94.7145921,1340.40909 93.5895975,1339.33703 93.5050954,1337.98208 L93.5,1337.81818 L93.5,1321.09091 C93.5,1319.71459 94.5720594,1318.5896 95.9270079,1318.5051 L96.0909091,1318.5 L114.909091,1318.5 Z M115,1328 C111.134007,1328 108,1331.13401 108,1335 C108,1338.86599 111.134007,1342 115,1342 C118.865993,1342 122,1338.86599 122,1335 C122,1331.13401 118.865993,1328 115,1328 Z M114.909091,1319.5 L96.0909091,1319.5 C95.2606622,1319.5 94.5796078,1320.13493 94.5064976,1320.94604 L94.5,1321.09091 L94.5,1337.81818 C94.5,1338.64843 95.1349296,1339.32948 95.946037,1339.40259 L96.0909091,1339.40909 L108.324446,1339.41033 C107.487419,1338.14594 107,1336.62989 107,1335 C107,1330.58172 110.581722,1327 115,1327 C115.512899,1327 116.014524,1327.04827 116.500582,1327.14051 L116.5,1321.09091 C116.5,1320.26066 115.86507,1319.57961 115.053963,1319.5065 L114.909091,1319.5 Z M114.997511,1331.3 C115.242971,1331.3 115.44712,1331.47688 115.489456,1331.71012 L115.497511,1331.8 L115.497,1334.497 L118.195023,1334.49751 C118.471165,1334.49751 118.695023,1334.72137 118.695023,1334.99751 C118.695023,1335.24297 118.518148,1335.44712 118.284899,1335.48946 L118.195023,1335.49751 L115.497,1335.497 L115.497511,1338.19502 C115.497511,1338.47117 115.273654,1338.69502 114.997511,1338.69502 C114.752052,1338.69502 114.547903,1338.51815 114.505567,1338.2849 L114.497511,1338.19502 L114.497,1335.497 L111.8,1335.49751 C111.523858,1335.49751 111.3,1335.27365 111.3,1334.99751 C111.3,1334.75205 111.476875,1334.5479 111.710124,1334.50557 L111.8,1334.49751 L114.497,1334.497 L114.497511,1331.8 C114.497511,1331.52386 114.721369,1331.3 114.997511,1331.3 Z M103.413288,1333.48081 C103.965573,1333.48081 104.413288,1333.92852 104.413288,1334.48081 L104.413288,1334.48081 L104.413288,1336.08081 C104.413288,1336.63309 103.965573,1337.08081 103.413288,1337.08081 L103.413288,1337.08081 L97.9132884,1337.08081 C97.3610036,1337.08081 96.9132884,1336.63309 96.9132884,1336.08081 L96.9132884,1336.08081 L96.9132884,1334.48081 C96.9132884,1333.92852 97.3610036,1333.48081 97.9132884,1333.48081 L97.9132884,1333.48081 Z M103.413288,1334.48081 L97.9132884,1334.48081 L97.9132884,1336.08081 L103.413288,1336.08081 L103.413288,1334.48081 Z M100.686324,1328.61961 C102.853016,1328.61961 104.168103,1329.16744 104.168103,1330.50791 C104.168103,1330.78406 103.944246,1331.00791 103.668103,1331.00791 C103.422644,1331.00791 103.218495,1330.83104 103.176159,1330.59779 L103.168103,1330.50791 C103.168103,1329.95917 102.352982,1329.61961 100.686324,1329.61961 C99.0990315,1329.61961 98.284107,1329.9276 98.2100944,1330.43096 L98.2045455,1330.50791 C98.2045455,1330.78406 97.9806878,1331.00791 97.7045455,1331.00791 C97.4284031,1331.00791 97.2045455,1330.78406 97.2045455,1330.50791 C97.2045455,1329.16744 98.5196329,1328.61961 100.686324,1328.61961 Z M100.878738,1322.15909 C102.389793,1322.15909 103.614515,1323.38366 103.614515,1324.89447 C103.614515,1326.4056 102.389869,1327.63024 100.878738,1327.63024 C99.3671001,1327.63024 98.1433627,1326.4059 98.1433627,1324.89447 C98.1433627,1323.38336 99.3671762,1322.15909 100.878738,1322.15909 Z M108.5,1326 C108.776142,1326 109,1326.22386 109,1326.5 C109,1326.74546 108.823125,1326.94961 108.589876,1326.99194 L108.5,1327 L106,1327 C105.723858,1327 105.5,1326.77614 105.5,1326.5 C105.5,1326.25454 105.676875,1326.05039 105.910124,1326.00806 L106,1326 L108.5,1326 Z M100.878738,1323.15909 C99.9195445,1323.15909 99.1433627,1323.93556 99.1433627,1324.89447 C99.1433627,1325.85372 99.9194962,1326.63024 100.878738,1326.63024 C101.837584,1326.63024 102.614515,1325.85331 102.614515,1324.89447 C102.614515,1323.93597 101.837536,1323.15909 100.878738,1323.15909 Z M111.278906,1323.30547 C111.555049,1323.30547 111.778906,1323.52933 111.778906,1323.80547 C111.778906,1324.05093 111.602031,1324.25508 111.368782,1324.29741 L111.278906,1324.30547 L106,1324.30547 C105.723858,1324.30547 105.5,1324.08161 105.5,1323.80547 C105.5,1323.56001 105.676875,1323.35586 105.910124,1323.31352 L106,1323.30547 L111.278906,1323.30547 Z" id="icon-new-enduser"></path>
        </g>
    </g>
</svg>
