<svg width="130" height="130" viewBox="0 0 130 130" xmlns="http://www.w3.org/2000/svg">
    <defs>
        <linearGradient x1="23.247%" y1="44.668%" x2="78.873%" y2="55.54%" id="226j4tzb6a">
            <stop stop-color="#83A6FF" offset="0%"/>
            <stop stop-color="#5A78FF" offset="100%"/>
        </linearGradient>
        <linearGradient x1="11.349%" y1="25.921%" x2="72.849%" y2="59.564%" id="6p7u2lquub">
            <stop stop-color="#72727E" offset="0%"/>
            <stop stop-color="#5D5D64" offset="100%"/>
        </linearGradient>
        <linearGradient x1="49.807%" y1="96.888%" x2="49.807%" y2="44.508%" id="9ikyu82ccc">
            <stop stop-color="#FFF" offset="0%"/>
            <stop stop-color="#D6DEEA" offset="99.13%"/>
        </linearGradient>
    </defs>
    <g fill-rule="nonzero" fill="none">
        <path d="M130 64.91c0 16.78-6.32 31.978-16.752 43.377v.317c-14.856 17.414-42.67 27.547-72.065 17.098-11.063-4.433-22.125-13.298-23.073-15.515C-21.083 69.342 7.363 0 64.89 0 100.92 0 130 29.13 130 64.91z" fill="#EAEEF9"/>
        <path d="M112.932 108.604c-21.493 25.965-66.691 30.398-94.822 1.583l94.822-1.583z" fill="#E9F0F8"/>
        <path d="M113.248 108.605c-14.856 17.73-42.67 27.547-72.065 17.099-11.063-4.433-22.125-13.3-23.073-15.516 2.845-3.166 11.063-5.382 27.815-12.349 5.69-2.216 4.425-8.232 4.425-20.264-1.265-1.583-2.53-4.116-2.845-6.966l-1.264-.633c-3.478.95-3.16-2.85-4.11-10.132-.315-3.167 0-3.483 1.58-4.116l-.144-.49c-4.425-10.133-5.229-23.432 4.57-28.18-.632-1.268-2.212-5.383-2.212-6.65 4.74.633 13.13 2.216 18.187 1.267 7.587-1.583 16.12 1.267 19.28 8.548 14.541 5.7 7.27 19.632 5.69 25.33-.316.318-.316.95-.316.95s0 .318.316.318c.949.316 2.357.174 2.04 2.706-.63 6.967-.63 11.082-4.108 10.133l-3.16 5.382c0 2.533-.95 14.882 0 17.732.631 2.216 2.212 3.8 4.108 4.433 16.12 7.282 21.81 8.865 25.286 11.398z" fill="#FFF"/>
        <path d="M113.248 108.604c-14.856 17.73-42.67 27.547-72.065 17.098-11.063-4.433-22.125-13.298-23.073-15.515 4.425-4.749 27.5-10.449 30.66-14.564 8.85 12.032 27.181 12.032 36.032 0 .632.95 1.58 1.583 2.529 1.899 16.752 6.965 22.44 8.548 25.917 11.082z" fill="url(#226j4tzb6a)"/>
        <path d="M89.255 55.725c.324-1.63-.648-3.91-1.298-5.54 0-.326-.324-.65-.324-.65-2.919-5.54-9.083-7.823-14.923-8.148-15.246-.652-16.543 2.281-21.41-2.282 2.272 3.26 1.623 12.384-8.109 15.317-6.811-15.643-3.568-25.744 3.245-29.003-2.271-4.888-2.271-6.844-2.271-6.844s14.596 2.607 19.463 1.304c6.488-1.304 16.22.326 19.788 8.799 16.22 5.866 7.137 22.16 5.839 27.047z" fill="url(#6p7u2lquub)"/>
        <path d="M49.917 77.04c-.33-.329-.33-.659-.66-.989v-.66c1.978 3.3 3.298 3.63 14.182 11.216 2.638 2.31 6.267 2.31 8.905 0 .33-.33 11.214-9.896 11.543-10.556 0 1.32-.33 15.174.33 16.824h-34.63c.33-.99.33-13.854.33-15.834z" fill="url(#9ikyu82ccc)"/>
    </g>
</svg>
