<?xml version="1.0" encoding="UTF-8"?>
<svg width="51px" height="32px" viewBox="0 0 51 32" version="1.1" xmlns="http://www.w3.org/2000/svg" xmlns:xlink="http://www.w3.org/1999/xlink">
    <title>B8570273-F2A5-4770-A0DD-66B9D9D532CC</title>
    <defs>
        <linearGradient x1="15.2542483%" y1="20.4630598%" x2="95.8120925%" y2="90.642223%" id="linearGradient-1">
            <stop stop-color="#FFA34A" offset="0%"></stop>
            <stop stop-color="#FF8851" offset="100%"></stop>
        </linearGradient>
    </defs>
    <g id="Theme-2" stroke="none" stroke-width="1" fill="none" fill-rule="evenodd">
        <g id="BB-Forrester-demo-_-Assets-Theme-2" transform="translate(-85.000000, -67.000000)">
            <g id="logo-bright-short-color" transform="translate(85.000000, 67.000000)">
                <path d="M44.0910991,10.1454045 L45.459217,14.3959711 L50.0072843,14.3959711 L46.3466447,17.0342538 L47.7147625,21.3214632 L44.0910991,18.6831805 L40.3934834,21.3214632 L41.7985774,17.0342538 L38.1379378,14.3959711 L42.649029,14.3959711 L44.0910991,10.1454045 Z M37.4908935,0.659722749 L38.4627805,3.67925086 L41.6936479,3.67925086 L39.0931936,5.55344071 L40.0650806,8.59899924 L37.4908935,6.72480938 L34.864172,8.59899924 L35.8623262,5.55344071 L33.2618719,3.67925086 L36.4664721,3.67925086 L37.4908935,0.659722749 Z M25.399196,0 L26.1191399,2.23677356 L28.5124672,2.23677356 L26.5861306,3.62511576 L27.3060746,5.88117185 L25.399196,4.49282964 L23.4534015,5.88117185 L24.1928034,3.62511576 L22.2664668,2.23677356 L24.6403361,2.23677356 L25.399196,0 Z" id="Combined-Shape" fill="url(#linearGradient-1)"></path>
                <path d="M8.44813325,10.5916693 L8.79228154,10.5984435 C9.5886941,10.6300564 10.3389059,10.7723146 11.042917,11.0252179 C11.8475012,11.3142503 12.5464836,11.7129157 13.1398644,12.221214 C13.7332452,12.7295124 14.2009097,13.3225271 14.542858,14.0002583 C14.8848062,14.6779894 15.0557803,15.4055537 15.0557803,16.1829512 C15.0557803,17.3191475 14.7792045,18.2709611 14.226053,19.038392 C13.6729014,19.8058228 12.9839762,20.3888709 12.1592775,20.7875363 L12.1592775,20.7875363 L12.1592775,21.0267355 L12.4556354,21.1410223 C13.4256247,21.5405114 14.21691,22.1253305 14.829491,22.8954795 C15.5033302,23.7426434 15.8402498,24.7941233 15.8402498,26.0499193 C15.8402498,26.9668496 15.6541898,27.789097 15.2820696,28.5166613 C14.9099495,29.2442256 14.4020557,29.8671402 13.7583884,30.3854052 C13.1147211,30.9036702 12.3654522,31.3023356 11.5105816,31.5814014 C10.6557109,31.8604671 9.73546784,32 8.7498523,32 L8.7498523,32 L0,32 L0,10.5916693 L8.44813325,10.5916693 Z M27.8220576,10.5916693 L28.1398055,10.5982099 C29.7144017,10.663616 31.0768518,11.2195673 32.2271557,12.2660639 C33.4541464,13.3623937 34.0676418,14.7477559 34.0676418,16.4221504 C34.0676418,18.4505599 33.1685673,19.9002985 31.3704184,20.7713664 L31.1409671,20.877236 L31.1409671,20.9968356 L31.4129333,21.0920377 C32.3932408,21.4612877 33.1876279,22.0524683 33.7960947,22.8655796 C34.4598766,23.75261 34.7917675,24.7642234 34.7917675,25.9004197 C34.7917675,27.6545474 34.1481002,29.109676 32.8607656,30.2658056 C31.6870194,31.3539276 30.2549154,31.9299922 28.5644535,31.9939993 L28.2444643,32 L20.0075343,32 L20.0075343,10.5916693 L27.8220576,10.5916693 Z M28.2444643,22.3423313 L22.7833496,22.3423313 L22.7833496,29.3688085 L28.3651519,29.3688085 C29.370882,29.3688085 30.2257527,29.0199763 30.9297638,28.3223119 C31.6136603,27.6246475 31.9556085,26.7974168 31.9556085,25.8406199 C31.9556085,24.9037563 31.603603,24.0864923 30.8995919,23.3888279 C30.1955808,22.6911635 29.3105382,22.3423313 28.2444643,22.3423313 Z M8.47830516,22.7908298 L4.0732071,22.7908298 L4.0732071,28.292412 L8.59899277,28.292412 C9.62483753,28.292412 10.409307,28.0382628 10.9524013,27.5299645 C11.4954956,27.0216661 11.7670427,26.3688516 11.7670427,25.5715208 C11.7670427,24.7741901 11.490467,24.1114089 10.9373154,23.5831772 C10.3841638,23.0549456 9.56449372,22.7908298 8.47830516,22.7908298 L8.47830516,22.7908298 Z M27.9427452,13.2228608 L22.7833496,13.2228608 L22.7833496,19.7709396 L27.8220576,19.7709396 C28.8076731,19.7709396 29.6323719,19.4420407 30.2961538,18.7842428 C30.9599357,18.1065116 31.2918266,17.3390808 31.2918266,16.4819502 C31.2918266,15.6447529 30.969993,14.8872887 30.3263257,14.2095576 C29.6826584,13.5517597 28.8881316,13.2228608 27.9427452,13.2228608 Z M8.26710182,14.2095576 L4.0732071,14.2095576 L4.0732071,19.322441 L8.14641421,19.322441 C9.09180055,19.322441 9.8209549,19.0682919 10.3338773,18.5599935 C10.8467997,18.0516952 11.1032608,17.4487138 11.1032608,16.7510494 C11.1032608,16.053385 10.8518283,15.4553869 10.3489632,14.9570552 C9.84609816,14.4587235 9.15214436,14.2095576 8.26710182,14.2095576 L8.26710182,14.2095576 Z" id="Combined-Shape" fill="#457162"></path>
            </g>
        </g>
    </g>
</svg>
