<?xml version="1.0" encoding="UTF-8"?>
<svg width="30px" height="23px" viewBox="0 0 30 23" version="1.1" xmlns="http://www.w3.org/2000/svg" xmlns:xlink="http://www.w3.org/1999/xlink">
    <title>icon-apply-card</title>
    <g id="Page-1" stroke="none" stroke-width="1" fill="none" fill-rule="evenodd">
        <g id="icon-statement-bitcoin" transform="translate(-94.000000, -1442.000000)" fill="#BABABA" fill-rule="nonzero">
            <path d="M116.156527,1450.20958 C120.145941,1450.20958 123.38,1453.44364 123.38,1457.43305 C123.38,1461.42247 120.145941,1464.65653 116.156527,1464.65653 C112.167114,1464.65653 108.933055,1461.42247 108.933055,1457.43305 C108.933055,1453.44364 112.167114,1450.20958 116.156527,1450.20958 Z M116.156527,1451.20958 C112.719398,1451.20958 109.933055,1453.99593 109.933055,1457.43305 C109.933055,1460.87018 112.719398,1463.65653 116.156527,1463.65653 C119.593656,1463.65653 122.38,1460.87018 122.38,1457.43305 C122.38,1453.99593 119.593656,1451.20958 116.156527,1451.20958 Z M117.940017,1442.5 L118.121593,1442.50506 C119.804288,1442.59913 121.138842,1443.99252 121.138842,1445.69883 L121.138842,1445.69883 L121.138842,1448.33134 L121.130787,1448.42121 C121.088451,1448.65446 120.884302,1448.83134 120.638842,1448.83134 C120.3627,1448.83134 120.138842,1448.60748 120.138842,1448.33134 L120.138842,1448.33134 L120.138842,1445.69883 L120.133325,1445.54173 C120.052852,1444.40017 119.102151,1443.5 117.940017,1443.5 L117.940017,1443.5 L97.6988255,1443.5 L97.5417251,1443.50552 C96.400173,1443.58599 95.5,1444.53669 95.5,1445.69883 L95.5,1445.69883 L95.5,1457.84354 L95.5055205,1458.00054 C95.5860325,1459.14142 96.5371738,1460.04237 97.6988255,1460.04237 L97.6988255,1460.04237 L106.123629,1460.04237 L106.213505,1460.05042 C106.446754,1460.09276 106.623629,1460.29691 106.623629,1460.54237 C106.623629,1460.81851 106.399772,1461.04237 106.123629,1461.04237 L106.123629,1461.04237 L97.6988255,1461.04237 L97.5172907,1461.0373 C95.8349528,1460.94318 94.5,1459.54895 94.5,1457.84354 L94.5,1457.84354 L94.5,1445.69883 L94.5050618,1445.51725 C94.5991289,1443.83455 95.9925215,1442.5 97.6988255,1442.5 L97.6988255,1442.5 L117.940017,1442.5 Z M116.156527,1454.06376 C116.401987,1454.06376 116.606136,1454.24064 116.648472,1454.47388 L116.656527,1454.56376 L116.656,1456.861 L118.954393,1456.86163 C119.230535,1456.86163 119.454393,1457.08548 119.454393,1457.36163 C119.454393,1457.60709 119.277518,1457.81123 119.044269,1457.85357 L118.954393,1457.86163 L116.656,1457.861 L116.656527,1460.15949 C116.656527,1460.43563 116.43267,1460.65949 116.156527,1460.65949 C115.911067,1460.65949 115.706919,1460.48262 115.664583,1460.24937 L115.656527,1460.15949 L115.656,1457.861 L113.358662,1457.86163 C113.082519,1457.86163 112.858662,1457.63777 112.858662,1457.36163 C112.858662,1457.11617 113.035537,1456.91202 113.268786,1456.86968 L113.358662,1456.86163 L115.656,1456.861 L115.656527,1454.56376 C115.656527,1454.28762 115.880385,1454.06376 116.156527,1454.06376 Z M103.280487,1455.98521 C103.55663,1455.98521 103.780487,1456.20907 103.780487,1456.48521 C103.780487,1456.73067 103.603612,1456.93482 103.370363,1456.97715 L103.280487,1456.98521 L98.5575427,1456.98521 C98.2814004,1456.98521 98.0575427,1456.76135 98.0575427,1456.48521 C98.0575427,1456.23975 98.2344179,1456.0356 98.4676671,1455.99326 L98.5575427,1455.98521 L103.280487,1455.98521 Z M105.958049,1452.5849 C106.234191,1452.5849 106.458049,1452.80876 106.458049,1453.0849 C106.458049,1453.33036 106.281173,1453.53451 106.047924,1453.57684 L105.958049,1453.5849 L98.5575427,1453.5849 C98.2814004,1453.5849 98.0575427,1453.36104 98.0575427,1453.0849 C98.0575427,1452.83944 98.2344179,1452.63529 98.4676671,1452.59295 L98.5575427,1452.5849 L105.958049,1452.5849 Z M100.685087,1446.18574 C100.961229,1446.18574 101.185087,1446.4096 101.185087,1446.68574 C101.185087,1446.9312 101.008212,1447.13535 100.774963,1447.17769 L100.685087,1447.18574 L98.5575427,1447.18574 C98.2814004,1447.18574 98.0575427,1446.96188 98.0575427,1446.68574 C98.0575427,1446.44028 98.2344179,1446.23613 98.4676671,1446.1938 L98.5575427,1446.18574 L100.685087,1446.18574 Z M106.123629,1446.18574 C106.399772,1446.18574 106.623629,1446.4096 106.623629,1446.68574 C106.623629,1446.9312 106.446754,1447.13535 106.213505,1447.17769 L106.123629,1447.18574 L103.996085,1447.18574 C103.719943,1447.18574 103.496085,1446.96188 103.496085,1446.68574 C103.496085,1446.44028 103.67296,1446.23613 103.906209,1446.1938 L103.996085,1446.18574 L106.123629,1446.18574 Z M111.562172,1446.18574 C111.838314,1446.18574 112.062172,1446.4096 112.062172,1446.68574 C112.062172,1446.9312 111.885297,1447.13535 111.652047,1447.17769 L111.562172,1447.18574 L109.434627,1447.18574 C109.158485,1447.18574 108.934627,1446.96188 108.934627,1446.68574 C108.934627,1446.44028 109.111503,1446.23613 109.344752,1446.1938 L109.434627,1446.18574 L111.562172,1446.18574 Z M117.000714,1446.18574 C117.276856,1446.18574 117.500714,1446.4096 117.500714,1446.68574 C117.500714,1446.9312 117.323839,1447.13535 117.09059,1447.17769 L117.000714,1447.18574 L114.87317,1447.18574 C114.597027,1447.18574 114.37317,1446.96188 114.37317,1446.68574 C114.37317,1446.44028 114.550045,1446.23613 114.783294,1446.1938 L114.87317,1446.18574 L117.000714,1446.18574 Z" id="icon-apply-card"></path>
        </g>
    </g>
</svg>
