<svg width="36" height="36" viewBox="0 0 36 36" xmlns="http://www.w3.org/2000/svg">
    <defs>
        <linearGradient x1="100%" y1="0%" x2="0%" y2="100%" id="eimy3b93ea">
            <stop stop-color="#FF9642" offset="0%"/>
            <stop stop-color="#FF6F51" offset="100%"/>
        </linearGradient>
    </defs>
    <g fill="none" fill-rule="evenodd">
        <path d="M18 0c9.941 0 18 8.059 18 18s-8.059 18-18 18S0 27.941 0 18 8.059 0 18 0z" fill="url(#eimy3b93ea)"/>
        <path d="M18.178 11.525a.85.85 0 0 1 .843.743l.007.107-.001 4.952h4.954a.85.85 0 0 1 .106 1.694l-.106.007-4.954-.001v4.954a.85.85 0 0 1-1.693.106l-.006-.106-.001-4.954h-4.952a.85.85 0 0 1-.107-1.693l.107-.006 4.952-.001v-4.952c0-.47.381-.85.85-.85z" fill="#FFF" fill-rule="nonzero"/>
    </g>
</svg>
