<svg width="138" height="130" viewBox="0 0 138 130" xmlns="http://www.w3.org/2000/svg" xmlns:xlink="http://www.w3.org/1999/xlink">
    <defs>
        <linearGradient x1="23.247%" y1="31.869%" x2="78.873%" y2="68.838%" id="icfom7y2kc">
            <stop stop-color="#83A6FF" offset="0%"/>
            <stop stop-color="#5A78FF" offset="100%"/>
        </linearGradient>
        <linearGradient x1=".683%" y1="50.192%" x2="99.769%" y2="50.192%" id="6cyzyyli2d">
            <stop stop-color="#BDCFFF" offset="0%"/>
            <stop stop-color="#91A5FF" stop-opacity=".5" offset="100%"/>
        </linearGradient>
        <filter x="-20.4%" y="-20.1%" width="140.8%" height="161.3%" filterUnits="objectBoundingBox" id="xkeh1y9qka">
            <feOffset dy="5" in="SourceAlpha" result="shadowOffsetOuter1"/>
            <feGaussianBlur stdDeviation="4" in="shadowOffsetOuter1" result="shadowBlurOuter1"/>
            <feColorMatrix values="0 0 0 0 0.11372549 0 0 0 0 0.294117647 0 0 0 0 1 0 0 0 0.22 0" in="shadowBlurOuter1"/>
        </filter>
        <path d="M71.088 46.543V85.33c0 2.407-1.833 4.279-4.19 4.279H4.19C1.833 89.609 0 87.737 0 85.329V46.544c0-2.407 1.833-4.28 4.19-4.28h62.708c2.357 0 4.19 2.006 4.19 4.28z" id="d859v0clfb"/>
    </defs>
    <g fill="none" fill-rule="evenodd">
        <g fill-rule="nonzero">
            <path d="M138 65a65.973 65.973 0 0 1-12.961 39.32c-4.451 5.886-9.818 11.101-15.972 15.114A61.925 61.925 0 0 1 74.375 130c-35.217 0-63.757-29.156-63.757-65 0-35.977 28.54-65 63.626-65 12.83 0 24.743 3.88 34.692 10.432 6.154 4.012 11.522 9.229 15.972 15.113C133.156 36.645 138 50.155 138 65z" fill="#EAEEF9"/>
            <path d="M133.549 10.03v108.334c0 1.873-2.095 2.81-3.404 1.472l-2.225-2.14a2.025 2.025 0 0 0-2.881 0l-4.19 4.146a2.024 2.024 0 0 1-2.879 0l-4.189-4.147a2.025 2.025 0 0 0-2.88 0l-4.19 4.147a2.025 2.025 0 0 1-2.88 0l-4.19-4.147a2.024 2.024 0 0 0-2.88 0l-4.058 4.147a2.025 2.025 0 0 1-2.88 0l-4.19-4.147a2.025 2.025 0 0 0-2.88 0l-4.189 4.147a2.025 2.025 0 0 1-2.88 0l-4.19-4.147a2.025 2.025 0 0 0-2.88 0l-4.189 4.147a2.025 2.025 0 0 1-2.88 0l-5.499-5.618-.392.401-3.273 3.21c-1.31 1.338-3.404.402-3.404-1.471V10.03c0-1.873 2.094-2.808 3.404-1.47l2.225 2.139a2.025 2.025 0 0 0 2.88 0l4.19-4.146a2.023 2.023 0 0 1 2.88 0l4.19 4.146a2.025 2.025 0 0 0 2.88 0l4.189-4.146a2.023 2.023 0 0 1 2.88 0l4.19 4.146a2.025 2.025 0 0 0 2.88 0l4.189-4.146a2.023 2.023 0 0 1 2.88 0l4.058 4.146a2.025 2.025 0 0 0 2.88 0l4.19-4.146a2.023 2.023 0 0 1 2.88 0l4.19 4.146a2.024 2.024 0 0 0 2.879 0l4.19-4.146a2.023 2.023 0 0 1 2.88 0l4.19 4.146a2.025 2.025 0 0 0 2.88 0l2.225-2.14c1.178-1.337 3.273-.402 3.273 1.47z" fill="#FFF"/>
            <path d="M117.708 34.373h-9.164c-.916 0-1.702-.803-1.702-1.74 0-.935.786-1.738 1.702-1.738h9.164c.917 0 1.702.803 1.702 1.738 0 .937-.785 1.74-1.702 1.74zM100.166 34.373H64.032c-.916 0-1.702-.803-1.702-1.74 0-.935.786-1.738 1.702-1.738h36.134c.915 0 1.702.803 1.702 1.738 0 .937-.787 1.74-1.702 1.74zM117.708 50.957h-15.71c-.917 0-1.702-.802-1.702-1.739 0-.936.785-1.738 1.702-1.738h15.71c.917 0 1.702.802 1.702 1.738 0 .937-.785 1.739-1.702 1.739zM93.62 50.957H77.516c-.917 0-1.702-.802-1.702-1.739 0-.936.785-1.738 1.702-1.738H93.75c.917 0 1.702.802 1.702 1.738 0 .937-.916 1.739-1.833 1.739z" fill="#C5CCDE" opacity=".55"/>
            <path d="M71.233 50.957h-7.2c-.917 0-1.703-.802-1.703-1.739 0-.936.786-1.738 1.702-1.738h7.2c.917 0 1.703.802 1.703 1.738 0 .937-.786 1.739-1.702 1.739z" fill="#4988FD"/>
            <path d="M116.618 67.675H92.96c-1.743 0-3.237-.802-3.237-1.739 0-.936 1.494-1.738 3.237-1.738h23.658c1.743 0 3.237.802 3.237 1.738 0 .937-1.494 1.739-3.237 1.739z" fill="#C5CCDE" opacity=".55"/>
            <path d="M71.756 67.675h-7.724c-.916 0-1.702-.802-1.702-1.739 0-.936.786-1.738 1.702-1.738h7.724c.917 0 1.702.802 1.702 1.738 0 .937-.785 1.739-1.702 1.739z" fill="#4988FD"/>
            <path d="M116.618 84.26h-51.05c-1.743 0-3.238-.803-3.238-1.74 0-.935 1.495-1.738 3.238-1.738h51.05c1.743 0 3.237.803 3.237 1.738 0 .937-1.494 1.74-3.237 1.74zM116.618 97.5h-51.05c-4.234 0-4.234 3.344 0 3.344h51.05c1.743 0 3.237-.802 3.237-1.739 0-.936-1.494-1.605-3.237-1.605z" fill="#C5CCDE" opacity=".55"/>
            <g transform="translate(8)">
                <use fill="#000" filter="url(#xkeh1y9qka)" xlink:href="#d859v0clfb"/>
                <use fill="url(#icfom7y2kc)" xlink:href="#d859v0clfb"/>
            </g>
            <path d="M72.018 77.974c.786 0 1.571.668 1.571 1.605 0 .935-.654 1.604-1.44 1.604H54.213c-.785 0-1.57-.669-1.57-1.604 0-.803.654-1.605 1.57-1.605h17.805zM25.02 65.936c.786 0 1.571.67 1.571 1.606-.13.935-.785 1.604-1.57 1.604H15.33a1.609 1.609 0 0 1-1.57-1.604c0-.804.654-1.606 1.57-1.606h9.688zm15.71 0c.786 0 1.571.67 1.571 1.606-.13.935-.785 1.604-1.57 1.604H31.04c-.785 0-1.57-.67-1.57-1.604 0-.804.654-1.606 1.57-1.606h9.688zm15.71 0c.786 0 1.571.67 1.571 1.606-.13.935-.785 1.604-1.57 1.604H46.75c-.785 0-1.57-.67-1.57-1.604 0-.804.654-1.606 1.57-1.606h9.688zm15.71 0c.786 0 1.571.67 1.571 1.606-.13.935-.785 1.604-1.571 1.604h-9.688a1.609 1.609 0 0 1-1.57-1.604c0-.804.654-1.606 1.57-1.606h9.688zm6.939-15.781v9.094H8v-9.094h71.088z" fill="#FFF" opacity=".5"/>
            <path d="M23.972 83.992c2.313 0 4.19-1.917 4.19-4.28 0-2.364-1.877-4.28-4.19-4.28-2.314 0-4.19 1.916-4.19 4.28 0 2.363 1.876 4.28 4.19 4.28z" fill="#2767F4"/>
            <path d="M10.342 83.992c2.314 0 4.19-1.917 4.19-4.28 0-2.364-1.876-4.28-4.19-4.28-2.313 0-4.189 1.916-4.189 4.28 0 2.363 1.876 4.28 4.19 4.28z" fill="url(#6cyzyyli2d)" transform="translate(8)"/>
        </g>
    </g>
</svg>
