<svg width="100" height="100" viewBox="0 0 100 100" xmlns="http://www.w3.org/2000/svg" xmlns:xlink="http://www.w3.org/1999/xlink">
    <defs>
        <linearGradient x1="63.297%" y1="-130.7%" x2="50%" y2="117.947%" id="k1o05cgcgc">
            <stop stop-color="#606673" stop-opacity="0" offset="0%"/>
            <stop stop-color="#373C47" offset="100%"/>
        </linearGradient>
        <linearGradient x1="54.794%" y1="-355.346%" x2="50%" y2="202.419%" id="4bbvopepbd">
            <stop stop-color="#606673" stop-opacity="0" offset="0%"/>
            <stop stop-color="#373C47" offset="100%"/>
        </linearGradient>
        <path d="M100 49.957c0 12.915-4.862 24.612-12.886 33.385v.244C75.686 96.99 54.29 104.788 31.679 96.746c-8.51-3.412-17.02-10.236-17.748-11.941C-16.217 53.369 5.664 0 49.914 0 77.632 0 100 22.42 100 49.957z" id="ed2112fewa"/>
    </defs>
    <g fill="none" fill-rule="evenodd">
        <mask id="qquxqypa3b" fill="#fff">
            <use xlink:href="#ed2112fewa"/>
        </mask>
        <use fill="#CBCBDD" fill-rule="nonzero" xlink:href="#ed2112fewa"/>
        <g mask="url(#qquxqypa3b)" fill-rule="nonzero">
            <path d="M80 13.354v17.36c0 3.682-2.987 6.676-6.667 6.676l-15.6-.086a2.542 2.542 0 0 0-.4-.066l-9.28.056-6.72-.056a3.95 3.95 0 0 0-.56.04c-1.306.187-2.88-.067-3.946-.601a1.285 1.285 0 0 1-.694-.97c-.08-.416.054-.84.347-1.145.613-.663 1.067-1.14 1.253-1.437l5.387-6.738c.08-.094.133-.187.213-.284 1.947-2.94 1.414-6.967-1.306-9.793l-.347-.414c-.133-.133-.24-.256-.373-.371-2.534-2.22-6.694-2.174-9.2-.048a1.73 1.73 0 0 0-.267.221l-5.573 5.582c-.374.382-.96.497-1.44.289A1.326 1.326 0 0 1 24 20.335v-6.981h56zM61.067 26.707c-.747 0-1.334.598-1.334 1.335a1.33 1.33 0 0 0 1.334 1.336l8.186.01.13-.006a1.328 1.328 0 0 0 1.204-1.329c0-.74-.587-1.335-1.334-1.335zM73.333 0C77.013 0 80 2.997 80 6.677v4.006H24V6.677C24 2.997 26.987 0 30.667 0z" fill="url(#k1o05cgcgc)" opacity=".7" transform="translate(0 30)"/>
            <path d="M15.573 29.591c-2.853-2.726-12.346-2.959-14.24-2.98-.24.05-.693.136-.933.387-.267.251-.4.59-.4.948v23.98c0 .738.587 1.336 1.333 1.336 4.48 0 11.094-4.033 11.36-4.204.32-.192.534-.497.614-.852.026-.088 1.946-8.955 2.693-17.53a1.385 1.385 0 0 0-.427-1.085" fill="url(#4bbvopepbd)" opacity=".7" transform="translate(0 30)"/>
            <path d="M57.333 69.908 48 69.964l-6.853-.042c-2.027.299-4.374-.15-5.92-1.095-1.254-.764-1.894-1.75-1.894-2.925v-1.335c0-.537.747-1.346 1.36-1.998.4-.416.747-.822 1.014-1.175l5.413-6.77c1.28-1.928.827-4.626-1.04-6.49l-.533-.598c-1.6-1.4-4.08-1.413-5.814.061l-8.96 8.969a16.668 16.668 0 0 0-5.546 1.159c-.64.259-.987.974-.774 1.642.187.542.24 1.06.187 1.544-.72 8.343-2.507 16.78-2.693 17.715-.08.35 0 .718.186 1.017.214.302.507.508.88.574l15.947 2.994c.48.136 1.093.203 1.84.203 3.253 0 9.653-1.38 11.28-3.047l12-8.012a1.37 1.37 0 0 0 .533-1.504 1.356 1.356 0 0 0-1.28-.943" fill="#EAEEF9"/>
        </g>
    </g>
</svg>
