<svg width="100" height="100" viewBox="0 0 100 100" xmlns="http://www.w3.org/2000/svg" xmlns:xlink="http://www.w3.org/1999/xlink">
    <defs>
        <linearGradient x1="49.121%" y1="90.409%" x2="49.121%" y2="-1.813%" id="zpfs2g63xc">
            <stop stop-color="#606673" stop-opacity="0" offset=".289%"/>
            <stop stop-color="#373C47" offset="100%"/>
        </linearGradient>
        <linearGradient x1="49.121%" y1="90.409%" x2="49.121%" y2="-1.813%" id="kxhbv08kvd">
            <stop stop-color="#606673" stop-opacity="0" offset=".289%"/>
            <stop stop-color="#373C47" offset="100%"/>
        </linearGradient>
        <linearGradient x1="63.297%" y1="-355.346%" x2="50%" y2="202.419%" id="66clgtq3me">
            <stop stop-color="#606673" stop-opacity="0" offset="0%"/>
            <stop stop-color="#373C47" offset="100%"/>
        </linearGradient>
        <path d="M100 49.957c0 12.915-4.862 24.612-12.886 33.385v.244C75.686 96.99 54.29 104.788 31.679 96.746c-8.51-3.412-17.02-10.236-17.748-11.941C-16.217 53.369 5.664 0 49.914 0 77.632 0 100 22.42 100 49.957z" id="hmcyapvgfa"/>
    </defs>
    <g fill="none" fill-rule="evenodd">
        <mask id="188a6wlitb" fill="#fff">
            <use xlink:href="#hmcyapvgfa"/>
        </mask>
        <use fill="#CBCBDD" fill-rule="nonzero" xlink:href="#hmcyapvgfa"/>
        <g mask="url(#188a6wlitb)">
            <path d="M21.522 59.843c-.775-.952-2.28-1.56-3.753-.643-.4.242-.75.556-1.035.926l-.01-.012a32.616 32.616 0 0 1-1.526-2.158.736.736 0 0 0-1.232.807c.655 1.02 1.372 2 2.146 2.933a4.008 4.008 0 0 0-.02.2 4.012 4.012 0 0 0 3.021 4.115l6.72 1.79a.736.736 0 0 0 .378-1.423l-6.719-1.79a2.638 2.638 0 0 1-1.564-1.142c.484.38 1.06.624 1.67.706a2.145 2.145 0 0 0 1.791-.703 2.667 2.667 0 0 0 .133-3.606zm-2.975.608a1.364 1.364 0 0 1 1.832.321 1.187 1.187 0 0 1-.055 1.66.668.668 0 0 1-.592.253c-.345-.031-.975-.294-1.996-1.379.18-.358.462-.656.81-.855z" fill="#E5E9F3"/>
            <path d="M71.964 43.671a3.262 3.262 0 0 1 4.42 3.22c-.14 3.183-1.108 6.357-2.792 9.524a.787.787 0 0 1-1.335.082c-2.342-3.314-5.493-5.511-9.608-6.38a.786.786 0 0 1-.277-1.422 49.764 49.764 0 0 1 9.592-5.024z" fill="#E5E9F3" fill-rule="nonzero"/>
            <path d="M37.092 100a1.853 1.853 0 0 1-1.853-1.853V82.099h11.565l-2.794 16.36A1.853 1.853 0 0 1 42.183 100h-5.091zM72.579 100a1.853 1.853 0 0 0 1.853-1.853V82.099H62.867l2.794 16.36A1.853 1.853 0 0 0 67.488 100h5.09z" fill="#ECEFF7" fill-rule="nonzero"/>
            <path d="M50.904 41.853c-17.007 0-30.795 12.463-30.795 27.837 0 6.367 2.367 12.234 6.346 16.924v11.533A1.853 1.853 0 0 0 28.308 100H33.4a1.853 1.853 0 0 0 1.827-1.541l.754-4.416a33.233 33.233 0 0 0 14.924 3.484c1.92 0 3.838-.162 5.732-.483l.241 1.415A1.853 1.853 0 0 0 58.704 100h5.091a1.853 1.853 0 0 0 1.853-1.853v-4.013c9.564-4.724 16.05-13.899 16.05-24.444 0-15.374-13.786-27.837-30.794-27.837z" fill="#F6F8FF" fill-rule="nonzero"/>
            <path d="M82.716 61.937h-6.015a2.636 2.636 0 0 0-2.462 1.678c-2.256 5.847-2.119 11.78-.369 17.77a2.348 2.348 0 0 0 3.685 1.202l5.913-4.552-.752-13.496v-2.602z" fill="#E2E5ED" fill-rule="nonzero"/>
            <path d="M82.716 78.252c-1.816 0-3.288-3.652-3.288-8.157 0-4.506 1.472-8.158 3.288-8.158 1.816 0 3.288 3.652 3.288 8.158 0 4.505-1.472 8.157-3.288 8.157z" fill="#F6F8FF"/>
            <path d="M81.447 73.331c-.532 0-.963-1.449-.963-3.236 0-1.788.431-3.237.963-3.237s.963 1.449.963 3.237c0 1.787-.431 3.236-.963 3.236zM84.371 73.331c-.532 0-.963-1.449-.963-3.236 0-1.788.431-3.237.963-3.237s.963 1.449.963 3.237c0 1.787-.431 3.236-.963 3.236z" fill="#C9CDD7"/>
            <path d="M65.72 61.623c-.832 0-1.507-.992-1.507-2.216 0-1.224.675-2.216 1.507-2.216.832 0 1.507.992 1.507 2.216 0 1.224-.675 2.216-1.507 2.216zM77.243 61.623c-.832 0-1.507-.992-1.507-2.216 0-1.224.675-2.216 1.507-2.216.832 0 1.507.992 1.507 2.216 0 1.224-.675 2.216-1.507 2.216z" fill="#8C909B"/>
            <path d="m53.484 56.828-2.08-.688a1.24 1.24 0 0 1-.695-.563 15.639 15.639 0 0 1-2.062-8.22c.012-.328.143-.641.37-.88l1.924-2.049 4.19 5.534-1.647 6.866z" fill="#D4D9E3" fill-rule="nonzero"/>
            <path d="m53.484 56.828-2.08-.688a1.24 1.24 0 0 1-.695-.563 15.639 15.639 0 0 1-2.062-8.22c.012-.328.143-.641.37-.88l1.924-2.049 4.19 5.534-1.647 6.866z" fill="#000" fill-rule="nonzero" opacity=".05"/>
            <path d="M54.42 43.671a3.262 3.262 0 0 0-4.42 3.22c.14 3.183 1.108 6.357 2.792 9.524a.787.787 0 0 0 1.335.082c2.342-3.314 5.494-5.511 9.609-6.38a.786.786 0 0 0 .276-1.422 49.764 49.764 0 0 0-9.592-5.024z" fill="#E5E9F1" fill-rule="nonzero"/>
            <path d="M54.42 43.671a3.262 3.262 0 0 0-4.42 3.22c.14 3.183 1.108 6.357 2.792 9.524a.787.787 0 0 0 1.335.082c2.342-3.314 5.494-5.511 9.609-6.38a.786.786 0 0 0 .276-1.422 49.764 49.764 0 0 0-9.592-5.024z" fill="#E5E9F3" fill-rule="nonzero"/>
            <path d="M30.983 52.573a.736.736 0 0 1-.056-1.165c4.868-4.15 10.46-6.457 16.618-6.852a.736.736 0 1 1 .095 1.47c-5.835.374-11.137 2.562-15.758 6.503a.737.737 0 0 1-.899.044z" fill="#D4D9E3" fill-rule="nonzero"/>
            <path d="M32.13 8.733a10.1 10.1 0 0 0-9.332-6.235h-1.112v.061a10.1 10.1 0 0 0 0 20.08v.06h1.324v-.002a10.1 10.1 0 0 0 9.888-10.098 10.1 10.1 0 0 0-.768-3.866z" fill="url(#zpfs2g63xc)" fill-rule="nonzero" opacity=".7" transform="translate(13.846 23.077)"/>
            <path d="M21.686 22.7c-5.578 0-10.1-4.523-10.1-10.101 0-5.579 4.522-10.1 10.1-10.1 5.578 0 10.1 4.521 10.1 10.1 0 5.578-4.522 10.1-10.1 10.1z" fill="url(#kxhbv08kvd)" fill-rule="nonzero" opacity=".7" transform="translate(13.846 23.077)"/>
            <path d="M35.532 44.853a9.178 9.178 0 1 1 0-18.355 9.178 9.178 0 0 1 0 18.355z" fill="#D4D9E3"/>
            <path d="M21.686 21.372a8.774 8.774 0 1 1 0-17.547 8.774 8.774 0 0 1 0 17.547z" fill="url(#66clgtq3me)" fill-rule="nonzero" opacity=".7" transform="translate(13.846 23.077)"/>
            <path d="M36.334 40.008v.96a.379.379 0 0 1-.378.38h-.69a.379.379 0 0 1-.38-.38v-.912a7.588 7.588 0 0 1-1.713-.307 5.472 5.472 0 0 1-1.06-.438.359.359 0 0 1-.152-.46l.493-1.107a.355.355 0 0 1 .494-.17c.314.168.644.304.985.406.476.15.973.227 1.472.23.917 0 1.376-.23 1.376-.688a.57.57 0 0 0-.392-.537 7.253 7.253 0 0 0-1.261-.368c-.54-.11-1.073-.257-1.593-.44a2.678 2.678 0 0 1-1.099-.755 2.037 2.037 0 0 1-.458-1.4 2.418 2.418 0 0 1 .748-1.78c.499-.495 1.219-.798 2.16-.91v-.95a.379.379 0 0 1 .38-.378h.69a.379.379 0 0 1 .378.379v.924c.448.038.89.119 1.322.241.284.08.561.184.828.311a.36.36 0 0 1 .175.462l-.463 1.117a.357.357 0 0 1-.48.187 4.713 4.713 0 0 0-2.009-.484 1.963 1.963 0 0 0-1.038.211.634.634 0 0 0-.326.55.544.544 0 0 0 .386.506 6.96 6.96 0 0 0 1.243.35c.543.11 1.077.256 1.6.44a2.76 2.76 0 0 1 1.098.75 2 2 0 0 1 .464 1.393 2.386 2.386 0 0 1-.718 1.732c-.478.487-1.172.798-2.082.935z" fill="#CBCBDD" fill-rule="nonzero"/>
            <path d="M50.904 97.527c1.92 0 3.838-.161 5.732-.483l-.544-8.366c-4.261 4.836-10.62 6.418-18.083 6.293a33.424 33.424 0 0 0 12.895 2.556z" fill="#C9CDD7" fill-rule="nonzero" opacity=".2"/>
            <path d="M49.746 33.587a2.029 2.029 0 0 1-.594-1.433.509.509 0 0 0-.864-.353.5.5 0 0 0-.147.353 2.039 2.039 0 0 1-2.036 2.037.5.5 0 1 0 0 1 2.039 2.039 0 0 1 2.036 2.037.5.5 0 0 0 1 0 2.039 2.039 0 0 1 2.037-2.037.509.509 0 0 0 .354-.864.5.5 0 0 0-.354-.146 2.029 2.029 0 0 1-1.432-.594z" fill="#FDFDFE" fill-rule="nonzero" opacity=".6"/>
            <path d="M25.146 27.22c.38-.38.895-.594 1.432-.595a.509.509 0 0 0 .354-.864.5.5 0 0 0-.354-.146 2.039 2.039 0 0 1-2.036-2.037.5.5 0 1 0-1 0 2.039 2.039 0 0 1-2.037 2.037.5.5 0 0 0 0 1 2.039 2.039 0 0 1 2.036 2.037.509.509 0 0 0 .864.353.5.5 0 0 0 .147-.353c0-.538.214-1.053.594-1.433z" fill="#FDFDFE" fill-rule="nonzero" opacity=".5"/>
            <path d="M28.643 49.349c0-.538.213-1.053.592-1.433a.509.509 0 0 0-.36-.861.5.5 0 0 0-.354.146 2.039 2.039 0 0 1-2.88 0 .5.5 0 1 0-.708.708 2.039 2.039 0 0 1 0 2.88.5.5 0 0 0 .708.707 2.039 2.039 0 0 1 2.88 0 .509.509 0 0 0 .86-.36.5.5 0 0 0-.146-.355 2.029 2.029 0 0 1-.592-1.432z" fill="#FDFDFE" fill-rule="nonzero" opacity=".6"/>
        </g>
    </g>
</svg>
