<svg width="101" height="100" viewBox="0 0 101 100" xmlns="http://www.w3.org/2000/svg" xmlns:xlink="http://www.w3.org/1999/xlink">
    <defs>
        <filter x="-45.2%" y="-114.5%" width="190.3%" height="420.7%" filterUnits="objectBoundingBox" id="qmgpj52tmc">
            <feOffset dy="11" in="SourceAlpha" result="shadowOffsetOuter1"/>
            <feGaussianBlur stdDeviation="11" in="shadowOffsetOuter1" result="shadowBlurOuter1"/>
            <feColorMatrix values="0 0 0 0 0.396078431 0 0 0 0 0.478431373 0 0 0 0 0.576470588 0 0 0 0.27 0" in="shadowBlurOuter1"/>
        </filter>
        <filter x="-45.2%" y="-114.5%" width="190.3%" height="420.7%" filterUnits="objectBoundingBox" id="y9fxxgly1f">
            <feOffset dy="11" in="SourceAlpha" result="shadowOffsetOuter1"/>
            <feGaussianBlur stdDeviation="11" in="shadowOffsetOuter1" result="shadowBlurOuter1"/>
            <feColorMatrix values="0 0 0 0 0.396078431 0 0 0 0 0.478431373 0 0 0 0 0.576470588 0 0 0 0.27 0" in="shadowBlurOuter1"/>
        </filter>
        <filter x="-45.2%" y="-114.5%" width="190.3%" height="420.7%" filterUnits="objectBoundingBox" id="b1cfmnjhvh">
            <feOffset dy="11" in="SourceAlpha" result="shadowOffsetOuter1"/>
            <feGaussianBlur stdDeviation="11" in="shadowOffsetOuter1" result="shadowBlurOuter1"/>
            <feColorMatrix values="0 0 0 0 0.396078431 0 0 0 0 0.478431373 0 0 0 0 0.576470588 0 0 0 0.27 0" in="shadowBlurOuter1"/>
        </filter>
        <path d="M95.577 24.008H16.432a3.078 3.078 0 0 1-3.104-3.103V3.104A3.078 3.078 0 0 1 16.432 0h79.054a3.078 3.078 0 0 1 3.104 3.104v17.8c.091 1.735-1.37 3.104-3.013 3.104z" id="59vc4l20wd"/>
        <path d="M95.577 83.893H16.432a3.078 3.078 0 0 1-3.104-3.104V62.988a3.078 3.078 0 0 1 3.104-3.104h79.054a3.078 3.078 0 0 1 3.104 3.104v17.8c.091 1.735-1.37 3.105-3.013 3.105z" id="nzfrdmtmlg"/>
        <path d="M82.158 53.95H3.104A3.078 3.078 0 0 1 0 50.848V33.046a3.078 3.078 0 0 1 3.104-3.104h79.054a3.078 3.078 0 0 1 3.104 3.104v17.8c.091 1.735-1.37 3.105-3.104 3.105z" id="qk6fcbfshi"/>
        <linearGradient x1="50.021%" y1="100.333%" x2="50.021%" y2="45.333%" id="1sy4uoiwve">
            <stop stop-color="#FFF" offset="0%"/>
            <stop stop-color="#E2E5EC" offset="100%"/>
        </linearGradient>
        <linearGradient x1="50.024%" y1="100.5%" x2="50.024%" y2="45.5%" id="xpn3mxvwbj">
            <stop stop-color="#FFF" offset="0%"/>
            <stop stop-color="#E2E5EC" offset="100%"/>
        </linearGradient>
        <circle id="9ec4nug80a" cx="50" cy="50" r="50"/>
    </defs>
    <g transform="translate(.5)" fill="none" fill-rule="evenodd">
        <mask id="evscq205tb" fill="#fff">
            <use xlink:href="#9ec4nug80a"/>
        </mask>
        <use fill="#B6B6C7" fill-rule="nonzero" xlink:href="#9ec4nug80a"/>
        <g mask="url(#evscq205tb)" fill-rule="nonzero">
            <g transform="translate(11.41 8.216)">
                <use fill="#000" filter="url(#qmgpj52tmc)" xlink:href="#59vc4l20wd"/>
                <use fill="#FFF" xlink:href="#59vc4l20wd"/>
            </g>
            <path d="M43.909 20.174c0 2.009-.913 3.834-2.282 5.112-1.187 1.096-2.83 1.735-4.565 1.735-1.734 0-3.377-.64-4.564-1.735-1.46-1.278-2.282-3.103-2.282-5.112 0-3.742 3.104-6.846 6.846-6.846 3.743 0 6.847 3.104 6.847 6.846z" fill="#DCE1EE"/>
            <path d="M41.627 25.286c-1.187 1.096-2.83 1.735-4.565 1.735-1.734 0-3.377-.64-4.564-1.735.548-.182 1.187-.456 2.008-.821a1.1 1.1 0 0 0 .457-.457c.091-.09.091-.273.091-.365V21.91l-.091-.091c-.183-.183-.274-.457-.274-.73l-.183-.092c-.456.091-.365-.365-.547-1.278 0-.365 0-.456.182-.548l.183-.182c-.822-1.917-.457-3.104.456-3.56-.274-.64-.274-.822-.274-.822s1.826.274 2.374.182c.821-.182 2.008 0 2.465 1.096.73.274 1.004.73 1.095 1.278.091.822-.365 1.734-.456 2.008.09.092.182.183.09.457-.09.821-.09 1.369-.547 1.278l-.365.821v2.009c0 .182.091.365.091.456.092.183.274.274.366.365.821.274 1.46.548 2.008.73z" fill="#FFF"/>
            <path d="M40.007 19.262c0-.192-.095-.475-.19-.667v-.1c-.38-.758-1.14-1.04-1.9-1.04-1.9-.101-2.09.282-2.755-.284.19.283.19.758-.095 1.324-.19.383-.57.575-.95.666-.856-1.99-.475-3.231.474-3.706-.284-.667-.284-.85-.284-.85s1.9.284 2.47.183c.855-.182 2.09 0 2.565 1.142.76.283 1.045.766 1.14 1.332.096.667-.38 1.616-.475 2z" fill="#A2ABBC"/>
            <path d="M27.843 15.975v.365h-4.291v-.456c.091-.091.091-.274.091-.365v-1.735l-.091-.091v-.091c.091.182.183.274.365.456l1.37.913c.273.274.73.274 1.095 0l1.278-1.095.091-.092v1.826c-.091.091 0 .183.092.365z" fill="url(#1sy4uoiwve)" transform="translate(11.41 8.216)"/>
            <path d="M59.414 18.166H48.56c-.282 0-.452-.365-.452-.73v-2.282c0-.457.226-.73.452-.73h10.854c.283 0 .453.364.453.73v2.282c0 .456-.17.73-.453.73zM72.303 25.925H48.56c-.282 0-.452-.365-.452-.73v-2.282c0-.456.226-.73.452-.73h23.743c.283 0 .453.365.453.73v2.282c0 .457-.226.73-.453.73z" fill="#CED6E2"/>
            <g transform="translate(11.41 8.216)">
                <use fill="#000" filter="url(#y9fxxgly1f)" xlink:href="#nzfrdmtmlg"/>
                <use fill="#FFF" xlink:href="#nzfrdmtmlg"/>
            </g>
            <path d="M43.909 80.059c0 2.008-.913 3.834-2.282 5.112-1.187 1.095-2.83 1.734-4.565 1.734-1.734 0-3.377-.639-4.564-1.734-1.46-1.278-2.282-3.104-2.282-5.112 0-3.743 3.104-6.847 6.846-6.847 3.743 0 6.847 3.104 6.847 6.847z" fill="#DCE1EE"/>
            <path d="M41.627 85.17c-1.187 1.096-2.83 1.735-4.565 1.735-1.734 0-3.377-.639-4.564-1.734.548-.183 1.187-.457 2.008-.822a1.1 1.1 0 0 0 .457-.456c.091-.092.091-.274.091-.365v-1.735l-.091-.091c-.183-.183-.274-.457-.274-.73l-.183-.092c-.456.091-.365-.365-.547-1.278 0-.365 0-.456.182-.548l.183-.182c-.822-1.917-.457-3.104.456-3.56-.274-.64-.274-.822-.274-.822s1.826.274 2.374.183c.821-.183 2.008 0 2.465 1.095.73.274 1.004.73 1.095 1.278.091.822-.365 1.735-.456 2.008.09.092.182.183.09.457-.09.821-.09 1.37-.547 1.278l-.365.73v2.009c0 .182.091.365.091.456.092.183.274.274.366.365.821.457 1.46.64 2.008.822z" fill="#FFF"/>
            <path d="M40.007 79.146c0-.192-.095-.475-.19-.667v-.1c-.38-.758-1.14-1.04-1.9-1.04-1.9-.101-2.09.282-2.755-.284.19.283.19.758-.095 1.324-.19.383-.57.575-.95.666-.856-1.99-.475-3.231.474-3.706-.284-.666-.284-.849-.284-.849s1.9.283 2.47.183c.855-.183 2.09 0 2.565 1.14.76.293 1.045.768 1.14 1.334.096.757-.38 1.615-.475 1.999z" fill="#A2ABBC"/>
            <path d="M27.843 75.86v.365h-4.291v-.457c.091-.091.091-.274.091-.365v-1.734l-.091-.092v-.091c.091.183.183.274.365.456l1.37.913c.273.274.73.274 1.095 0l1.278-1.095.091-.091v1.825c-.091.092 0 .274.092.365z" fill="url(#1sy4uoiwve)" transform="translate(11.41 8.216)"/>
            <path d="M61.09 78.142H48.626c-.324 0-.519-.366-.519-.73v-2.283c0-.456.26-.73.52-.73h12.461c.325 0 .52.365.52.73v2.282c0 .365-.195.73-.52.73zM75.888 85.901h-27.26c-.325 0-.52-.365-.52-.73v-2.282c0-.457.26-.73.52-.73h27.26c.324 0 .52.364.52.73v2.282c0 .365-.26.73-.52.73z" fill="#CED6E2"/>
            <g transform="translate(11.41 8.216)">
                <use fill="#000" filter="url(#b1cfmnjhvh)" xlink:href="#qk6fcbfshi"/>
                <use fill="#FFF" xlink:href="#qk6fcbfshi"/>
            </g>
            <path d="M88.94 45.56c.316.218.389.64.16.944a.727.727 0 0 1-.985.154c-1.407-.968-3.259-.693-4.372.66a3.681 3.681 0 0 0-.318.453l2.925.001c.39 0 .707.303.707.676a.687.687 0 0 1-.611.67l-.096.006h-3.414c-.065.41-.066.829-.002 1.238h3.416c.39 0 .707.303.707.676a.687.687 0 0 1-.611.67l-.096.006h-2.935c.096.164.206.321.328.47 1.113 1.354 2.965 1.629 4.372.661a.727.727 0 0 1 .986.154.657.657 0 0 1-.161.943c-2.028 1.395-4.732.994-6.307-.922-.33-.4-.588-.841-.777-1.306h-.36c-.39 0-.707-.303-.707-.676 0-.342.266-.625.61-.67l.096-.006h.014a5.26 5.26 0 0 1 .002-1.238h-.016c-.39 0-.706-.303-.706-.676 0-.342.266-.625.61-.67l.096-.006h.367a5.05 5.05 0 0 1 .77-1.29c1.576-1.916 4.28-2.316 6.308-.922zM95.33 75.685c.316.218.389.64.16.943a.727.727 0 0 1-.985.154c-1.407-.967-3.259-.693-4.371.66a3.681 3.681 0 0 0-.32.454l2.926.001c.39 0 .707.303.707.676a.687.687 0 0 1-.611.67l-.096.006h-3.413c-.066.41-.067.828-.003 1.238h3.416c.39 0 .707.302.707.676a.687.687 0 0 1-.611.67l-.096.005-2.935.001c.096.164.206.321.329.47 1.112 1.354 2.964 1.628 4.37.66a.727.727 0 0 1 .987.155.657.657 0 0 1-.161.943c-2.028 1.395-4.731.994-6.307-.922-.33-.4-.588-.841-.777-1.306h-.36c-.39 0-.707-.303-.707-.676 0-.343.266-.625.61-.67l.096-.006h.014a5.26 5.26 0 0 1 .002-1.238h-.016c-.39 0-.706-.303-.706-.676 0-.342.266-.625.61-.67l.096-.006h.368a5.05 5.05 0 0 1 .77-1.29c1.576-1.916 4.279-2.317 6.307-.922zM95.33 16.349c.316.217.389.64.16.943a.727.727 0 0 1-.985.154c-1.407-.968-3.259-.693-4.371.66a3.681 3.681 0 0 0-.32.454h2.926c.39 0 .707.303.707.676a.687.687 0 0 1-.611.67l-.096.006h-3.413c-.066.41-.067.829-.003 1.239h3.416c.39 0 .707.302.707.675a.687.687 0 0 1-.611.67l-.096.006h-2.935c.096.164.206.322.329.47 1.112 1.354 2.964 1.629 4.37.661a.727.727 0 0 1 .987.154.657.657 0 0 1-.161.944c-2.028 1.394-4.731.994-6.307-.923-.33-.4-.588-.841-.777-1.305l-.36-.001c-.39 0-.707-.303-.707-.676 0-.342.266-.625.61-.67l.096-.006h.014a5.26 5.26 0 0 1 .002-1.238h-.016c-.39 0-.706-.302-.706-.676 0-.342.266-.625.61-.67l.096-.005.368-.001a5.05 5.05 0 0 1 .77-1.29c1.576-1.916 4.279-2.316 6.307-.921zM49.884 48.108h-14.5c-.377 0-.604-.365-.604-.73v-2.282c0-.457.302-.73.604-.73h14.5c.378 0 .605.365.605.73v2.282c0 .456-.227.73-.605.73zM67.103 55.959H35.384c-.377 0-.604-.365-.604-.73v-2.283c0-.456.302-.73.604-.73h31.644c.377 0 .604.365.604.73v2.283c.075.365-.227.73-.529.73z" fill="#CED6E2"/>
            <path d="M30.672 50.117c0 1.917-.821 3.651-2.1 4.929l-.182.183c-1.187 1.095-2.83 1.734-4.564 1.734a6.898 6.898 0 0 1-4.473-1.643h-.091c-1.461-1.278-2.374-3.104-2.374-5.203 0-3.743 3.104-6.847 6.847-6.847 3.834 0 6.937 3.104 6.937 6.847z" fill="#DCE1EE"/>
            <path d="M28.545 55.183a3.07 3.07 0 0 0-1.48-1.58c-.37-.182-.648-.273-1.111-.273h-.278c-.648 0-.741-.091-.741-.091v-1.114c.741-.557 1.296-1.296 1.482-2.127.462-.091.74-.466.648-.931 0-.183-.186-.365-.186-.548V47.871c0-.374-.092-.648-.37-1.023-.555-1.013-1.666-1.661-2.87-1.661-.278 0-.462 0-.74.091a2.794 2.794 0 0 0-1.204.557l-.185.183-.092.091c-.37.374-.648.83-.834 1.296-.185.466-.185 1.014-.185 1.57V49.258s0 .092-.092.092c.185-.183.092.091.185.274.184.465.463.374.833.648h-.093l-.37.091c-2.037.648-2.222 2.784-.186 3.24-.184.101-.277.192-.37.192a3.48 3.48 0 0 0-1.11 1.57 6.975 6.975 0 0 0 4.536 1.671c1.759 0 3.425-.648 4.628-1.762.093.092.185 0 .185-.091.094 0 .094 0 0 0zm-5.739-2.227-.185-.183c-.092-.091-.185-.091-.278-.183 0 0-.093 0-.093-.09-.277-.193-.555-.375-.647-.649 0-.091.092-.283.278-.466.092.092.185.183.277.375l.278.274c.093 0 .185.09.185.182h.185v.74z" fill="#FFF"/>
            <path d="M14.378 45.06c-.092.364-.274.638-.274.638l-3.47-.548.183-.912s.092 0 .092.09c.091.092.182.092.274.183.09 0 .09.092.182.183v-.639h-.091c.548.274 1.278.456 2.282-.183v1.096c.091 0 .183.091.822.091z" fill="url(#xpn3mxvwbj)" transform="translate(11.41 8.216)"/>
            <path d="M25.066 48.181c.652 0 1.303-.091 1.862-.274 0 0 0-.09.093-.191-.093-.274-.186-.648-.373-1.023-.558-1.022-1.675-1.67-2.883-1.67-.28 0-.547.018-.92.11-.498.154-.728.291-.846.355 0 0-.272.183-.467.375-.196.182-.652.83-.838 1.296-.185.557-.336 1.031-.243 1.597.093 0 .243-.11.336-.11.745-.364 1.303-.83 1.582-1.578.744.648 1.674 1.022 2.697 1.113z" fill="#A2ABBC"/>
            <path d="m21.909 51.486.274.274-.274-.274z" fill="#3973F4"/>
            <path d="M23.187 54.863c-.274.366-.73.366-1.187.366.457-.457.183-1.826-1.278-1.644-2.1-.365-1.826-2.556.183-3.195l.365-.09.091.09c.183.457.365.73.64 1.096-.822.73.364.913.912 1.46.365.183.73 1.37.274 1.917z" fill="#A2ABBC"/>
        </g>
    </g>
</svg>
