<svg width="100" height="100" viewBox="0 0 100 100" xmlns="http://www.w3.org/2000/svg">
    <defs>
        <linearGradient x1="11.349%" y1="25.921%" x2="72.849%" y2="59.564%" id="04pk5lfzma">
            <stop stop-color="#72727E" offset="0%"/>
            <stop stop-color="#5D5D64" offset="100%"/>
        </linearGradient>
        <linearGradient x1="49.807%" y1="96.888%" x2="49.807%" y2="44.508%" id="acy90tj1sb">
            <stop stop-color="#FFF" offset="0%"/>
            <stop stop-color="#D6DEEA" offset="99.13%"/>
        </linearGradient>
    </defs>
    <g fill-rule="nonzero" fill="none">
        <path d="M100 49.93c0 12.909-4.862 24.6-12.886 33.367v.245c-11.428 13.395-32.823 21.19-55.435 13.152-8.51-3.41-17.02-10.23-17.748-11.935C-16.217 53.34 5.664 0 49.914 0 77.632 0 100 22.408 100 49.93z" fill="#B6B6C7"/>
        <path d="M86.871 83.542c-16.534 19.973-51.301 23.383-72.94 1.217l72.94-1.217z" fill="#E9F0F8"/>
        <path d="M87.114 83.543C75.686 97.18 54.29 104.733 31.679 96.695c-8.51-3.41-17.02-10.23-17.748-11.935 2.188-2.435 8.51-4.14 21.396-9.5 4.376-1.704 3.404-6.332 3.404-15.587-.973-1.218-1.946-3.166-2.189-5.358l-.972-.487c-2.675.73-2.431-2.193-3.161-7.794-.243-2.436 0-2.68 1.215-3.167l-.11-.376c-3.405-7.795-4.023-18.025 3.514-21.678-.486-.974-1.701-4.14-1.701-5.115 3.646.488 10.1 1.705 13.99.975 5.836-1.218 12.4.974 14.831 6.576 11.185 4.384 5.592 15.101 4.377 19.485-.243.244-.243.73-.243.73s0 .244.243.244c.73.243 1.812.134 1.57 2.082-.486 5.36-.486 8.525-3.161 7.794l-2.431 4.14c0 1.949-.73 11.448 0 13.64.485 1.706 1.702 2.923 3.16 3.41 12.4 5.602 16.777 6.82 19.45 8.769z" fill="#FFF"/>
        <path d="M87.114 83.542C75.686 97.18 54.29 104.732 31.679 96.694c-8.51-3.41-17.02-10.23-17.748-11.935 3.404-3.653 21.153-8.037 23.584-11.203 6.807 9.255 20.909 9.255 27.717 0 .486.73 1.216 1.218 1.946 1.46 12.886 5.359 17.262 6.577 19.936 8.526z" fill="#D4DAE8"/>
        <path d="M68.657 42.865c.25-1.253-.498-3.007-.997-4.261 0-.25-.25-.5-.25-.5-2.245-4.262-6.987-6.018-11.479-6.268-11.728-.501-12.725 1.755-16.469-1.755 1.747 2.507 1.248 9.526-6.238 11.782-5.24-12.033-2.745-19.803 2.496-22.31-1.747-3.76-1.747-5.264-1.747-5.264S45.2 16.294 48.945 15.29c4.99-1.002 12.476.251 15.22 6.769 12.478 4.512 5.491 17.046 4.492 20.805z" fill="url(#04pk5lfzma)"/>
        <path d="M38.398 59.262c-.254-.254-.254-.507-.508-.761v-.508c1.522 2.538 2.537 2.792 10.91 8.628 2.029 1.776 4.82 1.776 6.85 0 .253-.254 8.625-7.613 8.879-8.12 0 1.015-.254 11.672.253 12.941H38.144c.254-.761.254-10.657.254-12.18z" fill="url(#acy90tj1sb)"/>
    </g>
</svg>
