<svg width="139" height="130" viewBox="0 0 139 130" xmlns="http://www.w3.org/2000/svg">
    <defs>
        <linearGradient x1="23.247%" y1="24.842%" x2="78.873%" y2="76.138%" id="jcp6sjusea">
            <stop stop-color="#AAA" offset="0%"/>
            <stop stop-color="#8C8C8C" offset="100%"/>
        </linearGradient>
    </defs>
    <g fill="none" fill-rule="evenodd">
        <g fill-rule="nonzero">
            <path d="M135.512 66.729c0 14.326-4.776 27.608-12.778 38.282-4.39 5.719-9.682 10.803-15.749 14.702C97.174 126.231 85.427 130 72.777 130c-34.723-.13-62.863-28.512-62.863-63.271 0-35.018 28.14-63.26 62.735-63.26 12.65 0 24.397 3.77 34.206 10.146 6.067 3.91 11.36 8.984 15.749 14.714 8.132 10.675 12.908 23.956 12.908 38.4z" fill="#EFEFEF"/>
            <path d="M65.032 71.684v15.231c0 1.304 1.162 2.466 2.453 2.466 3.744 0 6.713-2.865 6.97-6.635l.646-13.281" fill="#EAEEF9"/>
            <path d="M99.11 84.437a15.652 15.652 0 0 1-2.452-2.607l2.453 2.607z" fill="#FFF"/>
            <path d="M65.552 67.41c.517.634 1.163 1.397 1.81 2.16.517.635 1.552.764 2.198.118l4.915-4.439c.645-.634.645-1.515 0-2.149l-1.94-2.16c-.905-.893-2.199-1.398-3.363-1.398-1.293 0-2.586.505-3.492 1.527-1.68 1.773-1.551 4.568-.128 6.341z" fill="#EAEEF9"/>
        </g>
        <path d="M65.032 71.684v15.231c0 1.304 1.162 2.466 2.453 2.466 3.744 0 6.713-2.865 6.97-6.635l.646-13.281" stroke="#1C3754"/>
        <path d="m69.938 73.892 5.421 27.467c.258 1.303 1.55 2.22 2.84 1.95a7.081 7.081 0 0 0 5.55-7.939l-3.226-21.22" fill="#FFF" fill-rule="nonzero"/>
        <path d="m69.938 73.892 5.421 27.467c.258 1.303 1.55 2.22 2.84 1.95a7.081 7.081 0 0 0 5.55-7.939l-3.226-21.22" stroke="#1C3754"/>
        <g fill-rule="nonzero">
            <path d="m4.364 54.97 73.673 22.394c3.228 1.034 6.583-.786 7.616-4.04L98.691 30.37c1.032-3.253-.775-6.647-4.002-7.68L20.886.295c-3.228-1.045-6.583.775-7.616 4.04L.232 47.29c-.903 3.252.904 6.764 4.132 7.68z" fill="url(#jcp6sjusea)"/>
            <path d="M83.2 67.077h-.387l-25.429-7.809c-.645-.258-1.033-.916-.903-1.561.258-.658.903-1.046 1.549-.916L83.459 64.6c.645.258 1.033.916.903 1.562a1.236 1.236 0 0 1-1.161.915zM80.232 57.577h-.388L49.64 48.195c-.645-.259-1.033-.904-.903-1.562.258-.646.903-1.033 1.548-.904l30.206 9.37c.645.259 1.033.917.903 1.562-.128.517-.645.916-1.161.916z" fill="#FFF" opacity=".55"/>
            <path d="M35.053 43.251c.258 0 .387 0 .645-.13.774-.387 1.291-1.303.904-2.078-.646-1.82-.775-3.78-.13-5.601.646-1.82 1.807-3.382 3.356-4.427.776-.517.904-1.562.516-2.208-.516-.787-1.548-.916-2.193-.528a11.369 11.369 0 0 0-4.648 6.247c-.774 2.607-.774 5.343.258 7.82.13.517.646.905 1.292.905z" fill="#FFF"/>
            <path d="M28.598 46.633c.259 0 .387 0 .645-.13.776-.387 1.162-1.291.776-2.207-1.55-3.511-1.808-7.55-.646-11.191 1.162-3.652 3.614-6.776 6.97-8.725.775-.528 1.033-1.433.517-2.22-.516-.774-1.42-1.033-2.195-.516-4 2.348-6.97 6.118-8.39 10.545a18.885 18.885 0 0 0 .775 13.54c.258.646.903.904 1.548.904z" fill="#FFF"/>
            <path d="M22.402 49.897c.258 0 .516 0 .646-.129.774-.399 1.161-1.303.774-2.22a23.56 23.56 0 0 1-1.032-16.533c1.677-5.46 5.421-10.017 10.326-12.882.775-.4 1.033-1.433.645-2.22-.386-.775-1.42-1.033-2.193-.646-5.68 3.253-9.811 8.455-11.747 14.714-1.937 6.248-1.549 12.882 1.162 18.871.258.646.903 1.045 1.42 1.045z" fill="#FFF"/>
            <path d="M87.533 37.38c.995-3.23-.794-6.659-3.994-7.657-3.2-1.01-6.6.799-7.594 4.028-.993 3.217.794 6.646 3.994 7.656 3.2.998 6.6-.798 7.594-4.028z" fill="#6A6A6A"/>
            <path d="M74.036 39.223c3.35 0 6.066-2.748 6.066-6.118 0-3.382-2.715-6.118-6.066-6.118s-6.067 2.736-6.067 6.118c0 3.37 2.716 6.118 6.067 6.118z" fill="#FFF" opacity=".5"/>
        </g>
        <path d="M92.398 51.24c9.165 2.09 20.266 4.685 26.463 6.118 2.969.658 5.163 2.865 6.066 5.86 1.163 4.298 2.84 10.545 3.744 15.23 1.55 7.81 1.55 14.585 6.841 22.653.517.786 1.162 1.69 1.679 2.477 1.161 1.562 1.032 3.77-.13 5.332 0 0-10.971 10.416-16.006 15.23-1.55 1.433-3.873 1.691-5.68.517-5.034-3.124-14.973-9.37-18.071-12.095-4.26-3.652-7.617-8.209-10.198-13.67-2.581-5.471-4.002-9.64-13.166-18.753-4.518-4.427-7.874-8.455-10.327-11.32-2.195-2.736-2.065-6.776.516-9.242a6.89 6.89 0 0 1 9.81 0L96.659 82.36s-3.356-3.652-2.065-13.152l-6.713-3.382" fill="#FFF" fill-rule="nonzero"/>
        <path d="M92.398 51.24c9.165 2.09 20.266 4.685 26.463 6.118 2.969.658 5.163 2.865 6.066 5.86 1.163 4.298 2.84 10.545 3.744 15.23 1.55 7.81 1.55 14.585 6.841 22.653.517.786 1.162 1.69 1.679 2.477 1.161 1.562 1.032 3.77-.13 5.332 0 0-10.971 10.416-16.006 15.23-1.55 1.433-3.873 1.691-5.68.517-5.034-3.124-14.973-9.37-18.071-12.095-4.26-3.652-7.617-8.209-10.198-13.67-2.581-5.471-4.002-9.64-13.166-18.753-4.518-4.427-7.874-8.455-10.327-11.32-2.195-2.736-2.065-6.776.516-9.242a6.89 6.89 0 0 1 9.81 0L96.659 82.36s-3.356-3.652-2.065-13.152l-6.713-3.382" stroke="#1C3754" stroke-linecap="round" stroke-linejoin="round"/>
        <path d="M99.11 84.437a15.652 15.652 0 0 1-2.452-2.607" stroke="#1C3754" stroke-linecap="round" stroke-linejoin="round"/>
    </g>
</svg>
