<svg width="221" height="172" viewBox="0 0 221 172" xmlns="http://www.w3.org/2000/svg" xmlns:xlink="http://www.w3.org/1999/xlink">
    <defs>
        <linearGradient x1="2.022%" y1="51.194%" x2="97.127%" y2="51.194%" id="31gr56la4a">
            <stop stop-color="#FF66A9" offset="0%"/>
            <stop stop-color="#F53689" offset="100%"/>
        </linearGradient>
        <linearGradient x1="0%" y1="51.989%" x2="95.078%" y2="51.989%" id="lw1banb1yb">
            <stop stop-color="#83A6FF" offset="0%"/>
            <stop stop-color="#5A78FF" offset="100%"/>
        </linearGradient>
        <linearGradient x1="-2.723%" y1="50.558%" x2="96.484%" y2="50.558%" id="2atplb1q7c">
            <stop stop-color="#FF66A9" offset="0%"/>
            <stop stop-color="#F53689" offset="100%"/>
        </linearGradient>
        <linearGradient x1="2.022%" y1="51.194%" x2="97.127%" y2="51.194%" id="1kdwish1wd">
            <stop stop-color="#FF66A9" offset="0%"/>
            <stop stop-color="#F53689" offset="100%"/>
        </linearGradient>
        <linearGradient x1="-1.83%" y1="46.787%" x2="97.18%" y2="46.787%" id="r206whj4we">
            <stop stop-color="#83A6FF" offset="0%"/>
            <stop stop-color="#5A78FF" offset="100%"/>
        </linearGradient>
        <linearGradient x1="0%" y1="51.989%" x2="95.078%" y2="51.989%" id="av3pzp5udf">
            <stop stop-color="#83A6FF" offset="0%"/>
            <stop stop-color="#5A78FF" offset="100%"/>
        </linearGradient>
        <linearGradient x1="39.818%" y1="9.124%" x2="60.989%" y2="92.468%" id="sylm1rvfpj">
            <stop stop-color="#83A6FF" offset="0%"/>
            <stop stop-color="#5A78FF" offset="100%"/>
        </linearGradient>
        <linearGradient x1="23.247%" y1="37.364%" x2="78.873%" y2="63.128%" id="bl8lhz7kwk">
            <stop stop-color="#83A6FF" offset="0%"/>
            <stop stop-color="#5A78FF" offset="100%"/>
        </linearGradient>
        <linearGradient x1="23.247%" y1="34.648%" x2="78.873%" y2="65.95%" id="bdq5vd7ydl">
            <stop stop-color="#83A6FF" offset="0%"/>
            <stop stop-color="#5A78FF" offset="100%"/>
        </linearGradient>
        <linearGradient x1="23.247%" y1="37.364%" x2="78.873%" y2="63.128%" id="maw5c069am">
            <stop stop-color="#83A6FF" offset="0%"/>
            <stop stop-color="#5A78FF" offset="100%"/>
        </linearGradient>
        <linearGradient x1="29.375%" y1="9.124%" x2="72.26%" y2="92.468%" id="1iqm61amhn">
            <stop stop-color="#83A6FF" offset="0%"/>
            <stop stop-color="#5A78FF" offset="100%"/>
        </linearGradient>
        <linearGradient x1="29.355%" y1="9.124%" x2="72.282%" y2="92.468%" id="4dv62daozo">
            <stop stop-color="#83A6FF" offset="0%"/>
            <stop stop-color="#5A78FF" offset="100%"/>
        </linearGradient>
        <linearGradient x1="30.771%" y1="0%" x2="61.367%" y2="69.859%" id="15q2m24pxp">
            <stop stop-color="#72727E" offset="0%"/>
            <stop stop-color="#5D5D64" offset="100%"/>
        </linearGradient>
        <linearGradient x1="76.991%" y1="90.043%" x2="28.053%" y2="6.936%" id="tbyznds9us">
            <stop stop-color="#84D155" offset="0%"/>
            <stop stop-color="#37BBB2" offset="100%"/>
        </linearGradient>
        <filter x="-16.9%" y="-21.5%" width="133.9%" height="143%" filterUnits="objectBoundingBox" id="ksgk1vqnmi">
            <feOffset dy="2" in="SourceAlpha" result="shadowOffsetOuter1"/>
            <feGaussianBlur stdDeviation="2" in="shadowOffsetOuter1" result="shadowBlurOuter1"/>
            <feColorMatrix values="0 0 0 0 0.828451848 0 0 0 0 0.828420276 0 0 0 0 0.828420276 0 0 0 0.5 0" in="shadowBlurOuter1" result="shadowMatrixOuter1"/>
            <feMerge>
                <feMergeNode in="shadowMatrixOuter1"/>
                <feMergeNode in="SourceGraphic"/>
            </feMerge>
        </filter>
        <filter x="-28.1%" y="-15.6%" width="156.2%" height="162.5%" filterUnits="objectBoundingBox" id="xuh325ommq">
            <feOffset dy="6" in="SourceAlpha" result="shadowOffsetOuter1"/>
            <feGaussianBlur stdDeviation="2" in="shadowOffsetOuter1" result="shadowBlurOuter1"/>
            <feColorMatrix values="0 0 0 0 0.352941176 0 0 0 0 0.48627451 0 0 0 0 0.937254902 0 0 0 0.05 0" in="shadowBlurOuter1"/>
        </filter>
        <circle id="nh1qayqwkr" cx="16" cy="16" r="16"/>
        <path d="M130 64.91c0 16.78-6.32 31.978-16.752 43.377v.317c-14.856 17.414-42.67 27.547-72.065 17.098-11.063-4.433-22.125-13.298-23.073-15.515C-21.083 69.342 7.363 0 64.89 0 100.92 0 130 29.13 130 64.91z" id="il4f2za46g"/>
    </defs>
    <g fill="none" fill-rule="evenodd">
        <g opacity=".7">
            <path d="M101.992 7.866c1.603 0 3.03-1.25 3.03-3.038 0-1.609-1.247-3.04-3.03-3.04-1.605 0-3.031 1.252-3.031 3.04.177 1.787 1.426 3.038 3.031 3.038z" fill="url(#31gr56la4a)" fill-rule="nonzero" transform="translate(1 1)"/>
            <path d="M153.338 13.408c1.248 0 2.318-1.073 2.318-2.325 0-1.25-1.07-2.323-2.318-2.323-1.249 0-2.318 1.073-2.318 2.323 0 1.252 1.07 2.325 2.318 2.325z" fill="url(#lw1banb1yb)" fill-rule="nonzero" transform="translate(1 1)"/>
            <path d="M218.877 90.02c2.675-2.503 2.854-6.614.357-9.474-2.496-2.682-6.596-2.861-9.271-.359-2.675 2.505-2.852 6.616-.356 9.475 2.495 2.502 6.596 2.681 9.27.358z" fill="#EAEEF9" fill-rule="nonzero"/>
            <path stroke="#BBC6D8" stroke-width="1.5" stroke-linecap="round" stroke-linejoin="round" d="m89.442 60.882-2.139-3.396"/>
            <path d="M204.55 22.883a4.117 4.117 0 0 0 0-5.813 4.09 4.09 0 0 0-5.798 0 4.117 4.117 0 0 0 0 5.813 4.09 4.09 0 0 0 5.799 0z" fill="#FFF" fill-rule="nonzero"/>
            <path stroke="#E9EDF2" stroke-width="1.5" stroke-linecap="round" stroke-linejoin="round" d="m22.228 36.393-9.094-9.116M45.582 59.811l-18.72-18.77M149.168 40.148l7.309-10.725"/>
            <path stroke="#E9EDF2" stroke-width="1.5" opacity=".9" stroke-linecap="round" stroke-linejoin="round" d="m149.881 64.168 11.411-10.256"/>
            <path stroke="#E9EDF2" stroke-width="1.5" stroke-linecap="round" stroke-linejoin="round" d="m158.795 74.288 8.305-10.12M130.626 67.498l14.798-21.987M111.55 13.871 111.371 1M112.084 46.94l-.357-26.456M78.829 7.059l4.704 12.918M86.176 27.277 91.82 42.65M47.81 17.619l9.986 17.339M65.598 40l8.183 13.344M32.235 73.14l13.347 5.277M134.012 38.003l5.529-25.92M168.688 95.397l30.839-19.163M174.239 66.02l19.247-17.192M131.517 49.978l1.426-7.328M43.354 100.028 1 87.158"/>
            <path d="M110.37 64.887c1.07 0 1.962-.894 1.962-1.965a1.982 1.982 0 0 0-1.961-1.967c-1.07 0-1.962.894-1.962 1.967-.177 1.071.713 1.965 1.962 1.965z" fill="url(#2atplb1q7c)" fill-rule="nonzero" transform="translate(1 1)"/>
            <path d="M20.692 70.071c1.426 0 2.496-1.071 2.496-2.502 0-1.43-1.07-2.503-2.496-2.503s-2.495 1.073-2.495 2.503c0 1.431 1.07 2.502 2.495 2.502z" fill="url(#1kdwish1wd)" fill-rule="nonzero" transform="translate(1 1)"/>
            <path d="M146.742 67.927c1.247 0 2.139-1.073 2.139-2.146 0-1.25-.892-2.144-2.14-2.144-1.248 0-2.138 1.073-2.138 2.144-.18 1.073.89 2.146 2.139 2.146z" fill="url(#r206whj4we)" fill-rule="nonzero" transform="translate(1 1)"/>
            <path d="M209.855 55.592c1.249 0 2.318-1.071 2.318-2.323 0-1.25-1.07-2.324-2.318-2.324s-2.318 1.073-2.318 2.324c-.177 1.252.892 2.323 2.318 2.323z" fill="url(#av3pzp5udf)" fill-rule="nonzero" transform="translate(1 1)"/>
        </g>
        <g transform="translate(46 35)">
            <mask id="4c8mcj8gmh" fill="#fff">
                <use xlink:href="#il4f2za46g"/>
            </mask>
            <use fill="#EAEEF9" fill-rule="nonzero" xlink:href="#il4f2za46g"/>
            <g fill-rule="nonzero" mask="url(#4c8mcj8gmh)">
                <g filter="url(#ksgk1vqnmi)" transform="translate(33.114 35)">
                    <path d="M23.513 17.17 34.49 52.75a1 1 0 0 0 1.911 0l10.973-35.58a1 1 0 0 0-.956-1.295h-21.95a1 1 0 0 0-.955 1.295z" fill="url(#sylm1rvfpj)"/>
                    <path d="m26.882 1.333-2.326 6.596v.001l-2.225 6.334a1 1 0 0 1-.944.668H2.91a1 1 0 0 1-.707-1.707L15.135.293A1 1 0 0 1 15.842 0h10.097a1 1 0 0 1 .943 1.333z" fill="url(#bl8lhz7kwk)"/>
                    <path d="M46.21 14.932H24.666a1 1 0 0 1-.944-1.33l2.313-6.598v-.001L28.263.668A1 1 0 0 1 29.205 0h12.466a1 1 0 0 1 .944.669L47.153 13.6a1 1 0 0 1-.943 1.331z" fill="url(#bdq5vd7ydl)"/>
                    <path d="M67.981 14.932H49.49a1 1 0 0 1-.944-.669L44.006 1.331A1 1 0 0 1 44.95 0h10.1a1 1 0 0 1 .706.293l12.932 12.932a1 1 0 0 1-.707 1.707z" fill="url(#maw5c069am)"/>
                    <path d="m41.686 39.21-3.338 10.824a1 1 0 0 0 1.707.954L69.43 17.535a1 1 0 0 0-.752-1.66H49.62a1 1 0 0 0-.955.706l-6.978 22.63z" fill="url(#1iqm61amhn)"/>
                    <path d="M21.265 15.875H2.21a1 1 0 0 0-.752 1.66l29.37 33.434a1 1 0 0 0 1.708-.955L22.22 16.58a1 1 0 0 0-.955-.705z" fill="url(#4dv62daozo)"/>
                </g>
                <path d="M1.898 15.19c-.341.072-.987.194-1.328.552-.38.357-.57.84-.57 1.35l4 34.17c0 1.05.835 1.903 1.898 1.903 6.379 0 15.795-5.747 16.175-5.99.455-.274.76-.708.873-1.214.038-.126 2.772-12.76 3.835-24.98a1.974 1.974 0 0 0-.608-1.544C22.111 15.55 4.594 15.22 1.898 15.19z" fill="url(#15q2m24pxp)" transform="translate(0 62.848)"/>
                <path d="m84.424 95.764-12.989.08-9.537-.06c-2.82.42-6.087-.211-8.239-1.54-1.744-1.073-2.635-2.459-2.635-4.11v-1.877c0-.755 1.04-1.892 1.893-2.808a18.965 18.965 0 0 0 1.41-1.651l7.534-9.516c1.78-2.71 1.15-6.501-1.448-9.122l-.742-.84c-2.227-1.967-5.678-1.986-8.09.086L39.11 77.011a23 23 0 0 0-7.719 1.629 1.887 1.887 0 0 0-1.076 2.309c.26.762.334 1.49.26 2.17-1.002 11.726-3.488 23.584-3.748 24.897-.112.492 0 1.01.26 1.43.296.425.705.714 1.224.808l22.193 4.208c.668.191 1.521.285 2.56.285 4.528 0 13.434-1.94 15.698-4.283l16.7-11.261c.668-.462.965-1.318.742-2.114-.26-.784-.965-1.325-1.78-1.325" stroke="#1C3754" fill="#FFF"/>
            </g>
        </g>
        <g transform="translate(135 130)">
            <use fill="#000" filter="url(#xuh325ommq)" xlink:href="#nh1qayqwkr"/>
            <use fill="url(#tbyznds9us)" xlink:href="#nh1qayqwkr"/>
        </g>
        <path stroke="#FFF" stroke-width="2" stroke-linecap="round" stroke-linejoin="round" d="m145.027 146.143 4.787 4.4 7.265-8.058"/>
    </g>
</svg>
