<svg width="139" height="130" viewBox="0 0 139 130" xmlns="http://www.w3.org/2000/svg" xmlns:xlink="http://www.w3.org/1999/xlink">
    <defs>
        <linearGradient x1="23.247%" y1="24.434%" x2="78.873%" y2="76.562%" id="h2lo5fgarb">
            <stop stop-color="#83A6FF" offset="0%"/>
            <stop stop-color="#5A78FF" offset="100%"/>
        </linearGradient>
        <linearGradient x1=".047%" y1="48.753%" x2="100.421%" y2="48.753%" id="5o95yc7zfc">
            <stop stop-color="#BDCFFF" offset="0%"/>
            <stop stop-color="#91A5FF" stop-opacity=".5" offset="100%"/>
        </linearGradient>
        <linearGradient x1="-.031%" y1="49.956%" x2="100.281%" y2="49.956%" id="1s3ike5yed">
            <stop stop-color="#BDCFFF" offset="0%"/>
            <stop stop-color="#91A5FF" stop-opacity=".5" offset="100%"/>
        </linearGradient>
        <linearGradient x1=".683%" y1="50.192%" x2="99.769%" y2="50.192%" id="90gdqs7ige">
            <stop stop-color="#BDCFFF" offset="0%"/>
            <stop stop-color="#91A5FF" stop-opacity=".5" offset="100%"/>
        </linearGradient>
        <path d="M56.525 0c4.819 0 8.856 3.928 8.856 8.903v112.194c0 4.845-3.907 8.903-8.856 8.903H8.856C4.037 130 0 126.072 0 121.097V8.903C0 4.058 3.907 0 8.856 0h47.669z" id="mxzfum9qya"/>
    </defs>
    <g fill-rule="nonzero" fill="none">
        <path d="M120.119 65.136c0 13.672-4.568 26.347-12.221 36.534-4.198 5.458-9.26 10.31-15.062 14.032-9.383 6.22-20.617 9.817-32.715 9.817C26.913 125.395 0 98.309 0 65.136 0 31.717 26.913 4.764 59.998 4.764a59.95 59.95 0 0 1 32.714 9.683c5.803 3.732 10.865 8.573 15.062 14.042 7.777 10.188 12.345 22.863 12.345 36.647z" fill="#EAEEF9"/>
        <path d="M52.714 69.865v14.536c0 1.244 1.111 2.353 2.346 2.353 3.58 0 6.42-2.734 6.666-6.332l.618-12.675" fill="#EAEEF9"/>
        <path d="M85.306 82.036a14.95 14.95 0 0 1-2.346-2.488l2.346 2.488z" fill="#FFF"/>
        <path d="M53.211 65.786a153.68 153.68 0 0 0 1.73 2.062c.495.605 1.485.729 2.103.112l4.7-4.236c.618-.605.618-1.446 0-2.05L59.89 59.61c-.866-.852-2.103-1.334-3.216-1.334-1.237 0-2.473.482-3.34 1.457-1.607 1.693-1.483 4.36-.122 6.052z" fill="#EAEEF9"/>
        <g>
            <g transform="translate(23.597)">
                <use fill="#FFF" xlink:href="#mxzfum9qya"/>
                <use xlink:href="#mxzfum9qya"/>
                <path stroke="#1C3754" stroke-width="1.1" d="M56.525.55c2.275 0 4.363.934 5.877 2.456a8.323 8.323 0 0 1 2.43 5.897v112.194c0 2.289-.93 4.39-2.445 5.913a8.232 8.232 0 0 1-5.862 2.44H8.856a8.284 8.284 0 0 1-5.877-2.456 8.323 8.323 0 0 1-2.429-5.897V8.903c0-2.289.93-4.39 2.444-5.913A8.231 8.231 0 0 1 8.856.55z" stroke-linejoin="square"/>
            </g>
            <path d="M60.455 5.76h-6.382c-.651 0-.912-.654-.912-.916 0-.655.652-.916.912-.916h6.382c.52 0 .911.654.911.916 0 .654-.39.916-.911.916zM50.426 5.76h-.26c-.651 0-.912-.654-.912-.916 0-.655.651-.916.912-.916h.26c.651 0 .912.654.912.916 0 .654-.39.916-.912.916z" fill="#2D5887"/>
            <path d="m4.173 52.461 69.503 21.372c3.087.986 6.296-.751 7.284-3.856l12.47-40.994c.986-3.105-.742-6.344-3.828-7.33L19.975.282c-3.087-.998-6.296.74-7.284 3.855L.222 45.132c-.864 3.104.864 6.455 3.951 7.329z" fill="url(#h2lo5fgarb)" transform="rotate(-18 149.352 -60.551)"/>
            <path d="M78.614 64.015h-.37l-24.32-7.452c-.617-.247-.988-.874-.864-1.49.247-.628.864-.998 1.482-.875l24.32 7.453c.617.246.987.874.863 1.49a1.182 1.182 0 0 1-1.11.874z" fill="url(#5o95yc7zfc)" transform="rotate(-18 149.352 -60.551)"/>
            <path d="M75.775 54.949h-.37l-28.887-8.954c-.618-.247-.989-.863-.865-1.49.247-.617.865-.987 1.48-.864l28.889 8.943c.617.247.988.874.864 1.49-.123.494-.617.875-1.11.875z" fill="url(#1s3ike5yed)" transform="rotate(-18 149.352 -60.551)"/>
            <path d="M69.75 72.381c.234-.076.352-.114.548-.308.59-.58.79-1.564.21-2.153-1.125-1.462-1.82-3.203-1.77-5.046.05-1.843.646-3.604 1.747-5.01.553-.698.361-1.685-.182-2.157-.701-.561-1.678-.373-2.151.17a10.852 10.852 0 0 0-2.385 7.043c.065 2.595.872 5.078 2.541 7.022.27.43.854.63 1.441.44z" fill="#FFF"/>
            <path d="M64.876 77.358c.236-.076.352-.114.549-.308.59-.58.675-1.515.054-2.232-2.445-2.73-3.87-6.32-3.888-9.967a14.787 14.787 0 0 1 3.768-9.98c.548-.708.516-1.605-.186-2.166-.698-.551-1.596-.519-2.148.18-2.947 3.313-4.536 7.612-4.522 12.05a17.988 17.988 0 0 0 4.698 12.06c.425.51 1.089.554 1.675.363z" fill="#FFF"/>
            <path d="M60.203 82.152c.235-.076.47-.152.55-.308.586-.59.672-1.526.049-2.243A22.44 22.44 0 0 1 54.987 64.9c-.084-5.452 1.977-10.694 5.593-14.744.587-.591.517-1.605-.067-2.205-.58-.59-1.596-.518-2.186.062-4.208 4.631-6.43 10.574-6.345 16.827.08 6.242 2.39 12.15 6.622 16.784.425.51 1.13.682 1.6.53z" fill="#FFF"/>
            <path d="M115.752 51.542c-.048-3.225-2.686-5.808-5.89-5.769-3.209.03-5.768 2.675-5.72 5.9.045 3.214 2.682 5.798 5.89 5.77 3.206-.04 5.769-2.676 5.72-5.9z" fill="#2767F4"/>
            <path d="M69.85 37.433c3.204 0 5.801-2.623 5.801-5.84 0-3.227-2.597-5.838-5.801-5.838-3.205 0-5.802 2.611-5.802 5.839 0 3.216 2.597 5.839 5.802 5.839z" fill="url(#90gdqs7ige)" transform="rotate(-18 149.352 -60.551)"/>
        </g>
    </g>
</svg>
