<svg width="100" height="100" viewBox="0 0 100 100" xmlns="http://www.w3.org/2000/svg" xmlns:xlink="http://www.w3.org/1999/xlink">
    <defs>
        <circle id="eilr1mxz6a" cx="50" cy="50" r="50"/>
    </defs>
    <g fill="none" fill-rule="evenodd">
        <mask id="r0b32hy1rb" fill="#fff">
            <use xlink:href="#eilr1mxz6a"/>
        </mask>
        <use fill="#B6B6C7" fill-rule="nonzero" xlink:href="#eilr1mxz6a"/>
        <g mask="url(#r0b32hy1rb)" fill-rule="nonzero">
            <path d="M122.324 50c0 14.626-6.372 27.685-16.506 36.67H24.646a1.873 1.873 0 0 1-1.88-1.881V16.883c0-1.045.835-1.88 1.88-1.88h82.74c9.193 8.67 14.938 21.207 14.938 34.997z" fill="#D4DAE8"/>
            <path d="M58.39 57.104H25.795a.936.936 0 0 1-.94-.94V32.762c0-.522.418-.94.94-.94H58.39c.523 0 .94.418.94.94v23.402c0 .418-.417.94-.94.94zM117.937 29.837H25.795a.936.936 0 0 1-.94-.94V17.823c0-.522.418-.94.94-.94h83.575c1.254 1.358 2.403 2.82 3.552 4.283a51.199 51.199 0 0 1 3.239 5.015c.626 1.253 1.253 2.402 1.776 3.656zM94.537 57.104H61.942a.936.936 0 0 1-.94-.94V32.762c0-.522.418-.94.94-.94h32.595c.523 0 .94.418.94.94v23.402c.105.418-.313.94-.94.94zM121.698 42.374c-.627-3.761-1.567-7.313-2.926-10.656h-20.58a.935.935 0 0 0-.938.94v23.401c0 .523.415.94.938.94h23.61c.313-2.298.522-4.7.522-6.999 0-2.09-.104-4.179-.417-6.268l-.21-1.358zM58.39 84.266H25.795a.936.936 0 0 1-.94-.94V59.925c0-.523.418-.94.94-.94H58.39c.523 0 .94.417.94.94v23.401c0 .523-.417.94-.94.94zM94.537 84.266H61.942a.936.936 0 0 1-.94-.94V59.925c0-.523.418-.94.94-.94h32.595c.523 0 .94.417.94.94v23.401c.105.523-.313.94-.94.94zM121.489 58.985c-.21 1.253-.523 2.402-.836 3.552-.105.417-.209.73-.314 1.149-.313 1.149-.73 2.298-1.149 3.447-.313.836-.731 1.776-1.044 2.612l-.94 1.88c-.105.314-.314.627-.523.94-.627 1.15-1.254 2.3-1.985 3.448-.209.314-.418.732-.731 1.045l-2.194 3.134c-.314.418-.627.731-.94 1.15a37.438 37.438 0 0 1-2.717 3.029H97.983a.936.936 0 0 1-.938-.94V59.925c0-.523.417-.94.938-.94h23.506z" fill="#FFF"/>
            <path d="M46.272 72.88c0 .104 0 .208-.105.313-.104.208-.104.417-.104.626-.105.105-.105.21-.105.314-.104.209-.104.418-.209.522v.105c-.104.104-.104.209-.104.209-.105.104-.105.208-.21.208l1.881 1.672c.105-.104.105-.209.21-.313.208-.314.417-.627.522-.94.104-.105.104-.21.104-.314.105-.313.21-.627.418-.94 0-.105.105-.21.105-.21.104-.208.104-.417.104-.522 0-.104.104-.209.104-.209 0-.104 0-.208.105-.208v-.314h-2.716zm-5.328 4.7c-2.926 0-5.433-2.403-5.433-5.328a5.33 5.33 0 0 1 4.701-5.328v-2.507c-3.97.313-7.208 3.76-7.208 7.94a7.936 7.936 0 0 0 7.94 7.94c2.194 0 4.179-.836 5.537-2.299l-1.88-1.776c-.941.94-2.3 1.358-3.657 1.358zm.626-13.267v2.507c2.508.313 4.388 2.194 4.702 4.597h2.611c-.313-3.761-3.447-6.791-7.313-7.104z" fill="#E3EAF2"/>
            <path d="M48.883 71.521h-2.507c-.313-2.507-2.298-4.388-4.701-4.597v-2.507c3.76.209 6.895 3.239 7.208 7.104zM48.883 72.88v.313c0 .104 0 .208-.104.208 0 .105 0 .21-.104.21-.105.208-.105.417-.105.522 0 .104-.104.209-.104.209-.105.313-.21.627-.418.94-.105.104-.105.209-.105.313-.104.314-.313.627-.522.94-.105.105-.105.21-.21.314l-1.775-1.672c.104-.104.104-.208.209-.208.104-.105.104-.21.104-.21v-.104c.105-.209.21-.418.21-.522.104-.105.104-.21.104-.314.104-.209.104-.418.104-.626 0-.105.105-.21.105-.314h2.611zM67.27 48.746h-1.462c-.105 0-.314-.209-.314-.313v-7.94c0-.209.105-.313.314-.313h1.462c.105 0 .314.209.314.313v7.94c-.105.104-.21.313-.314.313z" fill="#989FB0"/>
            <path d="M68.106 48.746h-1.671a.225.225 0 0 1-.21-.209v-3.656c0-.209.105-.209.21-.209h1.671c.105 0 .21.104.21.209v3.656a.225.225 0 0 1-.21.21z" fill="#CED7E2"/>
            <path d="M71.031 48.746H69.57c-.105 0-.314-.209-.314-.313v-5.537c0-.209.105-.313.314-.313h1.462c.105 0 .314.209.314.313v5.537c0 .104-.21.313-.314.313zM74.792 48.746H73.33c-.105 0-.314-.209-.314-.313V44.88c0-.209.105-.313.314-.313h1.462c.105 0 .314.208.314.313v3.447c0 .21-.21.418-.314.418zM78.553 48.746h-1.462c-.105 0-.314-.209-.314-.313V41.85c0-.209.105-.313.314-.313h1.462c.105 0 .314.209.314.313v6.582c0 .104-.105.313-.314.313zM82.419 48.746h-1.463c-.104 0-.313-.209-.313-.313v-3.97c0-.209.104-.313.313-.313h1.463c.104 0 .313.209.313.313v3.97c0 .104-.104.313-.313.313zM86.18 48.746h-1.463c-.104 0-.313-.209-.313-.313v-5.537c0-.209.104-.313.313-.313h1.463c.104 0 .313.209.313.313v5.537c0 .104-.104.313-.313.313zM90.045 48.746h-1.463c-.104 0-.313-.209-.313-.313V44.88c0-.209.104-.313.313-.313h1.463c.104 0 .313.208.313.313v3.447c-.104.21-.209.418-.313.418z" fill="#989FB0"/>
            <path d="M71.867 48.746h-1.776c-.104 0-.104-.104-.104-.209v-2.193c0-.105.104-.21.104-.21h1.776c.105 0 .105.105.105.21v2.193c.104.105 0 .21-.105.21zM75.732 48.746h-1.776c-.104 0-.104-.104-.104-.209v-1.044c0-.105.104-.21.104-.21h1.776c.105 0 .105.105.105.21v1.044c0 .105 0 .21-.105.21zM79.493 48.746h-1.776c-.104 0-.104-.104-.104-.209V46.97c0-.104.104-.209.104-.209h1.776c.105 0 .105.105.105.21v1.566c.104.105.104.21-.105.21zM83.359 48.746h-1.672c-.104 0-.104-.104-.104-.209v-2.82c0-.105.104-.21.104-.21h1.672c.104 0 .104.105.104.21v2.82c.105.105 0 .21-.104.21zM87.329 48.746h-1.88c-.105 0-.105 0-.105-.104v-.522c0-.105 0-.105.104-.105h1.88c.105 0 .105 0 .105.105v.417c0 .105 0 .21-.104.21zM91.09 48.746h-1.88s-.105 0-.105-.104v-.21s0-.104.104-.104h1.88s.105 0 .105.105l-.104.313s.104-.104 0 0z" fill="#CED7E2"/>
            <path fill="#E6EDF5" d="M92.761 62.328H63.823v3.865H92.76z"/>
            <path fill="#CED7E2" d="M80.643 63.581h-7.94v1.15h7.94zM90.672 63.581h-2.82v1.15h2.82z"/>
            <path fill="#E6EDF5" d="M92.761 69.64H63.823v3.866H92.76z"/>
            <path fill="#CED7E2" d="M78.24 71.103h-5.537v1.15h5.537zM90.672 71.103h-4.91v1.15h4.91z"/>
            <path fill="#E6EDF5" d="M92.761 77.058H63.823v3.865H92.76z"/>
            <path fill="#CED7E2" d="M81.896 78.416h-9.193v1.15h9.193zM90.672 78.416h-1.567v1.15h1.567zM32.586 22.002h-4.388c-.313 0-.522-.314-.522-.523v-.522c0-.313.313-.522.522-.522h4.388c.313 0 .522.313.522.522v.522c0 .21-.209.523-.522.523z"/>
            <path d="M62.778 22.002H36.87c-.313 0-.522-.314-.522-.523v-.522c0-.313.313-.522.522-.522h25.91c.313 0 .521.313.521.522v.522c0 .21-.208.523-.522.523z" fill="#E3EAF2"/>
            <path d="M32.586 26.285h-4.388c-.313 0-.522-.313-.522-.522v-.523c0-.313.313-.522.522-.522h4.388c.313 0 .522.313.522.522v.523c0 .313-.209.522-.522.522z" fill="#CED7E2"/>
            <path d="M50.764 25.763c0 .313-.313.522-.522.522H36.869c-.313 0-.522-.313-.522-.522v-.523c0-.313.313-.522.522-.522h13.373c.313 0 .522.313.522.522v.523z" fill="#E3EAF2"/>
            <path d="M55.674 54.074H27.676V36.628c1.462.104 2.925.209 4.283.627.627.208 1.045.417 1.463.835.209.21.209.314.209.418.209.523.627.836 1.358.94l.627.105c1.253.104 2.194.836 2.298 1.671l.209 1.463c1.358.313 1.463.313 2.716.627.21.104.21 0 .314-.105.104-.104.209-.104.313-.104.209 0 .209 0 .418-.105.209-.104.418-.104.522.105.523.731 1.567 1.15 2.194 1.776.731.731 1.985.627 2.82.627.21 0 .523.104.732.209 1.045.731 2.716 3.134 4.075 3.134.522 0 .94.209 1.253.418 1.15 1.671 1.88 3.03 2.194 4.805z" fill="#EAEEF9"/>
            <path d="M54.943 54.179c-.314-1.567-1.045-2.82-2.194-4.179-.105-.104-.418-.209-.731-.209-1.254 0-2.299-1.15-3.343-2.194-.418-.418-.836-.836-1.15-1.045-.104-.104-.313-.104-.313-.104h-.522c-.836 0-1.985-.104-2.821-.836-.21-.313-.522-.522-.94-.731-.418-.313-.836-.522-1.15-.94h-.417c-.105.104-.523.313-1.045.104l-.627-.209c-.627-.104-.94-.209-1.985-.418h-.313l-.21-1.985c0-.522-.73-.94-1.566-1.044l-.627-.105c-.94-.104-1.776-.627-1.985-1.462v-.105c-.314-.313-.627-.522-1.045-.627-1.253-.418-2.716-.522-4.074-.627l.104-1.567c1.463.105 3.03.21 4.493.732.73.209 1.358.627 1.776 1.149.104.104.313.418.417.836.105.209.314.313.627.313l.627.105c1.672.104 2.82 1.149 3.03 2.402l.104.836c.627.105.94.21 1.463.314l.627.104c.209-.104.417-.209.626-.209h.21c.522-.209 1.149 0 1.462.418.209.209.627.522.94.731.418.314.836.523 1.15.94.313.314 1.044.314 1.775.418h.523c.418 0 .731.21 1.044.314l.105.104c.418.314.94.732 1.358 1.254.627.731 1.672 1.671 2.194 1.671.627 0 1.254.21 1.776.627 1.463 1.567 2.298 3.134 2.612 5.015l-1.985.209z" fill="#989FB0"/>
            <path d="M54.525 43.418H42.197a.936.936 0 0 1-.94-.94V38.09c0-.522.418-.94.94-.94h12.328c.522 0 .94.418.94.94v4.388c0 .522-.418.94-.94.94z" fill="#989FB0"/>
            <path d="M52.958 38.926h-9.09c-.208 0-.313.209-.313.313 0 .105.105.418.21.418h9.088c.21 0 .314-.209.314-.313 0-.105-.105-.418-.21-.418zM48.675 41.015h-4.91c-.21 0-.314.21-.314.314 0 .209.209.313.313.313h4.91c.21 0 .314-.209.314-.313 0-.105-.209-.314-.313-.314z" fill="#FFF"/>
        </g>
    </g>
</svg>
