<svg width="100" height="100" viewBox="0 0 100 100" xmlns="http://www.w3.org/2000/svg" xmlns:xlink="http://www.w3.org/1999/xlink">
    <defs>
        <linearGradient x1="124.253%" y1="230.389%" x2="-19.242%" y2="-46.447%" id="evl56x0spc">
            <stop stop-color="#606673" stop-opacity="0" offset="0%"/>
            <stop stop-color="#373C47" offset="100%"/>
        </linearGradient>
        <linearGradient x1="63.297%" y1="-117.299%" x2="50%" y2="112.908%" id="l2f236150d">
            <stop stop-color="#606673" stop-opacity="0" offset="0%"/>
            <stop stop-color="#373C47" offset="100%"/>
        </linearGradient>
        <path d="M100 49.957c0 12.915-4.862 24.612-12.886 33.385v.244C75.686 96.99 54.29 104.788 31.679 96.746c-8.51-3.412-17.02-10.236-17.748-11.941C-16.217 53.369 5.664 0 49.914 0 77.632 0 100 22.42 100 49.957z" id="fr7fk9ryfa"/>
    </defs>
    <g fill="none" fill-rule="evenodd">
        <mask id="kmk8y4zs2b" fill="#fff">
            <use xlink:href="#fr7fk9ryfa"/>
        </mask>
        <use fill="#CBCBDD" fill-rule="nonzero" xlink:href="#fr7fk9ryfa"/>
        <g mask="url(#kmk8y4zs2b)">
            <path d="M38.979 103a4.155 4.155 0 0 1-4.156-4.155v-71.69A4.155 4.155 0 0 1 38.98 23h30.82l18.25 18.252v57.593A4.155 4.155 0 0 1 83.895 103H38.98z" fill="#EAEEF9" fill-rule="nonzero"/>
            <path d="M39.13 18.252a4.155 4.155 0 0 1-4.155-4.156V0l18.251 18.252H39.13z" fill="url(#evl56x0spc)" fill-rule="nonzero" opacity=".7" transform="translate(34.823 23)"/>
            <path d="M61.07 36.912a1.595 1.595 0 0 1 0 3.19H43.68a1.595 1.595 0 1 1 0-3.19h17.39zM78.796 47.668a1.595 1.595 0 0 1 0 3.19H43.68a1.595 1.595 0 1 1 0-3.19h35.116zM78.796 58.424a1.595 1.595 0 0 1 0 3.19H43.68a1.595 1.595 0 1 1 0-3.19h35.116zM78.796 69.18a1.595 1.595 0 0 1 0 3.19H43.68a1.595 1.595 0 0 1 0-3.19h35.116zM78.924 79.936a1.595 1.595 0 0 1 0 3.19H43.68a1.595 1.595 0 0 1 0-3.19h35.244zM62.665 90.63a1.595 1.595 0 1 1 0 3.19H43.68a1.595 1.595 0 0 1 0-3.19h18.985z" fill="#CBCBDD"/>
            <g>
                <path d="M55.172 47.603A3.828 3.828 0 0 1 59 51.43v22.7a3.828 3.828 0 0 1-3.828 3.828H15.578a3.828 3.828 0 0 1-3.829-3.829V51.431a3.828 3.828 0 0 1 3.829-3.828h39.594z" fill="#D4D9E3"/>
                <path d="M43.422 0a3.828 3.828 0 0 1 3.829 3.828v22.7a3.828 3.828 0 0 1-3.829 3.828H3.828A3.828 3.828 0 0 1 0 26.527V3.828A3.828 3.828 0 0 1 3.828 0h39.594z" fill="url(#l2f236150d)" fill-rule="nonzero" opacity=".7" transform="translate(11 47.603)"/>
                <path d="M22.674 54.58a.816.816 0 0 1 0 1.631H15.98a.816.816 0 1 1 0-1.631h6.693zM32.872 54.58a.816.816 0 1 1 0 1.631H26.18a.816.816 0 1 1 0-1.631h6.692zM43.07 54.58a.816.816 0 1 1 0 1.631h-6.692a.816.816 0 1 1 0-1.631h6.693zM53.27 54.58a.816.816 0 0 1 0 1.631h-6.693a.816.816 0 1 1 0-1.631h6.692z" fill="#B4B9C5"/>
                <path d="M45.052 74.29a3.553 3.553 0 1 1 0-7.105 3.553 3.553 0 0 1 0 7.105z" fill="#EAEEF9" opacity=".15"/>
                <path d="M50.532 74.29a3.553 3.553 0 1 1 0-7.105 3.553 3.553 0 0 1 0 7.105z" fill="#A6AAB6"/>
                <path d="M24.757 67.185c.57 0 1.03.461 1.03 1.03v5.044c0 .57-.46 1.03-1.03 1.03h-8.56a1.03 1.03 0 0 1-1.031-1.03v-5.044c0-.569.461-1.03 1.03-1.03h8.561z" fill="#B4B9C5" opacity=".5"/>
            </g>
        </g>
    </g>
</svg>
