<svg width="100" height="100" viewBox="0 0 100 100" xmlns="http://www.w3.org/2000/svg" xmlns:xlink="http://www.w3.org/1999/xlink">
    <defs>
        <linearGradient x1="49.121%" y1="513.935%" x2="49.121%" y2="-1.813%" id="xekgyz2fjc">
            <stop stop-color="#606673" stop-opacity="0" offset="0%"/>
            <stop stop-color="#EBF1FF" offset="100%"/>
        </linearGradient>
        <linearGradient x1="47.417%" y1="211.009%" x2="49.852%" y2="-1.813%" id="ikkmtaul5d">
            <stop stop-color="#606673" stop-opacity="0" offset="0%"/>
            <stop stop-color="#373C47" offset="100%"/>
        </linearGradient>
        <linearGradient x1="44.484%" y1="211.009%" x2="49.684%" y2="-1.813%" id="x8odx6xp1e">
            <stop stop-color="#606673" stop-opacity="0" offset="0%"/>
            <stop stop-color="#373C47" offset="100%"/>
        </linearGradient>
        <path d="M100 49.93c0 12.909-4.862 24.6-12.886 33.367v.245c-11.428 13.395-32.823 21.19-55.435 13.152-8.51-3.41-17.02-10.23-17.748-11.935C-16.217 53.34 5.664 0 49.914 0 77.632 0 100 22.408 100 49.93z" id="j2hgek5ola"/>
    </defs>
    <g fill="none" fill-rule="evenodd">
        <mask id="v149zvsmmb" fill="#fff">
            <use xlink:href="#j2hgek5ola"/>
        </mask>
        <use fill="#B6B6C7" fill-rule="nonzero" xlink:href="#j2hgek5ola"/>
        <g mask="url(#v149zvsmmb)" fill-rule="nonzero" opacity=".7">
            <path d="M20 40c11.132 0 20-9.056 20-20S30.944 0 20 0 0 9.056 0 20s8.868 20 20 20z" fill="url(#xekgyz2fjc)" transform="translate(30 22)"/>
            <path d="M20 21.698c-3.207 0-5.85-2.642-5.85-5.85 0-2.453 1.698-4.717 3.963-5.471v-2.83c0-1.132.755-1.886 1.886-1.886 1.132 0 1.886.755 1.886 1.886v2.83c2.265.755 3.963 2.83 3.963 5.471 0 1.132-.755 1.887-1.887 1.887-1.132 0-1.886-.756-1.886-1.887A2.094 2.094 0 0 0 20 13.772a2.094 2.094 0 0 0-2.076 2.076c0 1.132.944 2.076 2.076 2.076 3.207 0 5.85 2.641 5.85 5.85 0 2.452-1.698 4.717-3.963 5.47v3.02c0 1.131-.755 1.885-1.886 1.885-1.132 0-1.886-.755-1.886-1.886v-3.018c-2.265-.755-3.962-2.83-3.962-5.472 0-1.132.755-1.886 1.886-1.886 1.132 0 1.886.755 1.886 1.886 0 1.133.944 2.076 2.076 2.076a2.094 2.094 0 0 0 2.076-2.076A2.094 2.094 0 0 0 20 21.698z" fill="url(#ikkmtaul5d)" transform="translate(30 22)"/>
        </g>
        <g fill-rule="nonzero" mask="url(#v149zvsmmb)">
            <path d="M17.517 15.355C14.307 12.285 3.629 12.025 1.5 12c-.27.057-.78.153-1.05.436-.3.283-.45.664-.45 1.067v26.994C0 41.327.66 42 1.5 42c5.039 0 12.477-4.54 12.777-4.732.36-.216.6-.56.69-.959.03-.1 2.19-10.08 3.03-19.733a1.56 1.56 0 0 0-.48-1.221" fill="url(#x8odx6xp1e)" opacity=".7" transform="translate(2 47)"/>
            <path d="m65.535 73.004-10.261.062-7.535-.047c-2.228.332-4.808-.166-6.508-1.216-1.378-.848-2.082-1.942-2.082-3.247v-1.483c0-.596.821-1.495 1.495-2.218.44-.463.821-.913 1.114-1.305l5.952-7.517c1.407-2.141.909-5.136-1.144-7.206l-.586-.664c-1.759-1.554-4.485-1.57-6.391.068l-9.85 9.958a18.17 18.17 0 0 0-6.099 1.287 1.49 1.49 0 0 0-.85 1.823c.205.602.264 1.178.205 1.714-.792 9.264-2.756 18.632-2.961 19.67-.088.388 0 .798.205 1.13.235.335.557.563.968.637l17.532 3.325c.527.15 1.202.225 2.023.225 3.576 0 10.613-1.533 12.4-3.384l13.194-8.896a1.53 1.53 0 0 0 .586-1.67c-.205-.62-.762-1.046-1.407-1.046" fill="#EBEBF1"/>
        </g>
    </g>
</svg>
