<svg width="185" height="160" viewBox="0 0 185 160" xmlns="http://www.w3.org/2000/svg">
    <defs>
        <linearGradient x1="23.247%" y1="48.538%" x2="78.873%" y2="51.519%" id="1ynrfsywia">
            <stop stop-color="#83A6FF" offset="0%"/>
            <stop stop-color="#5A78FF" offset="100%"/>
        </linearGradient>
    </defs>
    <g fill-rule="nonzero" fill="none">
        <path d="M159.93 79.996c0 18.106-6.082 34.894-16.273 48.392-5.588 7.242-12.328 13.662-20.052 18.6-12.493 8.23-27.45 13.003-43.558 13.003C35.832 159.991 0 124.108 0 79.996 0 35.718 35.832 0 79.883 0c16.108 0 31.065 4.772 43.557 12.838 7.726 4.938 14.464 11.358 20.053 18.6 10.355 13.663 16.437 30.451 16.437 48.558z" fill="#EDEDEF" opacity=".3"/>
        <path d="M115.44 149.469c0 5.487-4.444 10.087-10.072 10.087H51.6c-5.48 0-10.073-4.451-10.073-10.087V22.794c0-5.49 4.444-10.087 10.073-10.087h54.212c5.481 0 10.073 4.45 10.073 10.087v126.823h-.445v-.148z" fill="#FFF"/>
        <path d="M105.812 12.707c5.481 0 10.073 4.45 10.073 10.087v127.119c0 5.49-4.445 10.087-10.073 10.087H51.6c-5.48 0-10.073-4.45-10.073-10.087V22.793c0-5.489 4.444-10.086 10.073-10.086h54.212z" fill="#1C3754"/>
        <path d="M110.7 22.348v127.12c0 2.225-1.333 4.005-3.407 4.598-.444.149-.888.149-1.481.149H50.859c-2.37-.444-4-2.373-4-4.746V22.794c0-2.522 1.63-4.45 4-4.748h8.74c1.036 0 1.777.743 1.777 1.78 0 2.078 1.777 3.858 3.85 3.858h27.551c2.074 0 3.852-1.78 3.852-3.858 0-1.037.74-1.78 1.777-1.78h7.554v-.444c.445 0 1.037 0 1.481.148 1.777.593 3.259 2.373 3.259 4.598z" fill="#FFF"/>
        <path fill="#F8F9FD" d="M56.096 44.71h45.712v88.884H56.096z"/>
        <path d="M83.446 19.233h-7.258c-.74 0-1.037-.741-1.037-1.038 0-.742.74-1.038 1.037-1.038h7.258c.592 0 1.037.742 1.037 1.038 0 .741-.445 1.038-1.037 1.038zM72.04 19.233h-.296c-.74 0-1.037-.741-1.037-1.038 0-.742.74-1.038 1.037-1.038h.296c.741 0 1.037.742 1.037 1.038 0 .741-.444 1.038-1.037 1.038z" fill="#2D5887"/>
        <g>
            <path d="M175.617 50.598c2.177 0 4.131.862 5.54 2.272 1.408 1.41 2.27 3.366 2.27 5.546v31.053c.08 2.167-.734 4.113-2.11 5.518-1.39 1.417-3.349 2.283-5.532 2.283h-88.44c-.91 0-2.053.456-2.739 1.141l-11.011 11.022-.667-51.017c0-2.18.861-4.136 2.27-5.547 1.408-1.41 3.362-2.271 5.54-2.271z" stroke="#C5CCDE" stroke-width="2" fill="#FFF"/>
            <path d="m20.467 19.238 1.784 5.083 1.785-5.083c.297-.899 1.19-1.198 2.081-.899l.595.3c.892.599.892 1.495.298 2.393l-3.57 4.187 5.056-.898c.892-.3 1.785.599 1.785 1.497v.896c0 .899-.893 1.495-1.785 1.495l-5.055-.896 3.569 3.888c.594.599.594 1.794-.298 2.393l-.892.3c-.892.596-1.784 0-2.082-.9l-1.784-5.081-1.784 5.082c-.298.898-1.487 1.195-2.082.898l-.595-.3c-.892-.598-.892-1.497-.297-2.392l3.568-4.188-5.055.899c-.892.297-1.784-.599-1.784-1.498v-.596c0-.898.892-1.797 1.784-1.497l5.055.898-3.568-4.187c-.595-.599-.298-1.794.297-2.393l.892-.3c.892-.596 1.785 0 2.082.899zm22.304 0 1.785 5.083 1.782-5.083c.297-.899 1.49-1.198 2.082-.899l1.19.3c.892.599.892 1.495.299 2.393l-3.57 4.187 5.056-.898c.892-.3 1.785.599 1.785 1.497v.596c0 .899-.893 1.795-1.785 1.498l-5.057-.899 3.571 3.888c.593.6.593 1.794-.3 2.393l-.593.3c-.892.596-1.785 0-2.082-.899l-1.785-5.082-2.378 5.382c-.297.898-1.486 1.195-2.082.898l-.596-.3c-.89-.598-.89-1.497-.297-2.392l3.568-4.188-5.054.899c-.892.297-1.785-.599-1.785-1.498v-.596c0-.898.893-1.797 1.785-1.497l4.757.898-3.271-4.187c-.593-.599-.297-1.794.297-2.393l.596-.3c.892-.596 1.785 0 2.082.899zm28.25-.899 1.486.6c.597.299.893 1.195.3 2.093l-3.57 4.187 5.352-1.195c.893-.3 1.49.596 1.49 1.195v1.195c0 .899-.597 1.498-1.49 1.199l-5.353-.899 3.571 4.187c.593.6.297 1.495-.3 2.094l-1.189.599c-.593.3-1.486 0-1.782-.6l-1.786-5.381-2.081 5.082c-.297.899-1.19 1.198-1.786.6l-1.189-.6c-.593-.3-.893-1.195-.297-2.093l3.568-4.188-5.353 1.498c-.89 0-1.486-.599-1.486-1.198v-1.195c0-.899.596-1.495 1.486-1.198l5.057.898-3.568-4.187c-.596-.599-.3-1.495.296-2.094l1.19-.599c.596-.296 1.486 0 1.785.6l1.782 5.085 2.082-5.086c.3-.599 1.19-1.195 1.786-.599zm22.666 0 1.486.6c.596.299.893 1.195.3 2.093l-3.571 4.187 5.353-1.195c.892-.3 1.489.596 1.489 1.195v1.195c0 .899-.597 1.498-1.49 1.199l-5.352-.899 3.57 4.187c.594.6.297 1.495-.3 2.094l-1.188.599c-.594.3-1.486 0-1.783-.6l-1.785-5.381-2.082 5.082c-.297.899-1.19 1.198-1.785.6l-1.19-.6c-.593-.3-.892-1.195-.296-2.093l3.568-4.188-5.353 1.498c-.89 0-1.486-.599-1.486-1.198v-1.195c0-.899.596-1.495 1.486-1.198l5.056.898-3.568-4.187c-.596-.599-.3-1.495.297-2.094l1.19-.599c.595-.296 1.485 0 1.784.6l1.783 5.085 2.082-5.086c.3-.599 1.189-1.195 1.785-.599z" fill="url(#1ynrfsywia)" transform="matrix(-1 0 0 1 184.597 49.598)"/>
        </g>
    </g>
</svg>
