<svg width="100" height="100" viewBox="0 0 100 100" xmlns="http://www.w3.org/2000/svg" xmlns:xlink="http://www.w3.org/1999/xlink">
    <defs>
        <linearGradient x1="39.818%" y1="9.124%" x2="60.989%" y2="92.468%" id="psq3dr0lsd">
            <stop stop-color="#83A6FF" offset="0%"/>
            <stop stop-color="#5A78FF" offset="100%"/>
        </linearGradient>
        <linearGradient x1="23.247%" y1="37.364%" x2="78.873%" y2="63.128%" id="sc1jmkodve">
            <stop stop-color="#83A6FF" offset="0%"/>
            <stop stop-color="#5A78FF" offset="100%"/>
        </linearGradient>
        <linearGradient x1="23.247%" y1="34.648%" x2="78.873%" y2="65.95%" id="38rhk43kqf">
            <stop stop-color="#83A6FF" offset="0%"/>
            <stop stop-color="#5A78FF" offset="100%"/>
        </linearGradient>
        <linearGradient x1="23.247%" y1="37.364%" x2="78.873%" y2="63.128%" id="8abkn5z4qg">
            <stop stop-color="#83A6FF" offset="0%"/>
            <stop stop-color="#5A78FF" offset="100%"/>
        </linearGradient>
        <linearGradient x1="29.375%" y1="9.124%" x2="72.26%" y2="92.468%" id="p9rfy5zaah">
            <stop stop-color="#83A6FF" offset="0%"/>
            <stop stop-color="#5A78FF" offset="100%"/>
        </linearGradient>
        <linearGradient x1="29.355%" y1="9.124%" x2="72.282%" y2="92.468%" id="6hcj0so1zi">
            <stop stop-color="#83A6FF" offset="0%"/>
            <stop stop-color="#5A78FF" offset="100%"/>
        </linearGradient>
        <linearGradient x1="36.086%" y1="0%" x2="58.226%" y2="69.859%" id="jqdozwe6mj">
            <stop stop-color="#72727E" offset="0%"/>
            <stop stop-color="#5D5D64" offset="100%"/>
        </linearGradient>
        <filter x="-21.4%" y="-27.2%" width="142.9%" height="154.4%" filterUnits="objectBoundingBox" id="hyfmkhq32c">
            <feOffset dy="2" in="SourceAlpha" result="shadowOffsetOuter1"/>
            <feGaussianBlur stdDeviation="2" in="shadowOffsetOuter1" result="shadowBlurOuter1"/>
            <feColorMatrix values="0 0 0 0 0.828451848 0 0 0 0 0.828420276 0 0 0 0 0.828420276 0 0 0 0.5 0" in="shadowBlurOuter1" result="shadowMatrixOuter1"/>
            <feMerge>
                <feMergeNode in="shadowMatrixOuter1"/>
                <feMergeNode in="SourceGraphic"/>
            </feMerge>
        </filter>
        <path d="M100 49.93c0 12.909-4.862 24.6-12.886 33.367v.245c-11.428 13.395-32.823 21.19-55.435 13.152-8.51-3.41-17.02-10.23-17.748-11.935C-16.217 53.34 5.664 0 49.914 0 77.632 0 100 22.408 100 49.93z" id="sq969xnoya"/>
    </defs>
    <g fill="none" fill-rule="evenodd">
        <mask id="z36q9ai0qb" fill="#fff">
            <use xlink:href="#sq969xnoya"/>
        </mask>
        <use fill="#F2F3F4" fill-rule="nonzero" xlink:href="#sq969xnoya"/>
        <g fill-rule="nonzero" mask="url(#z36q9ai0qb)">
            <g filter="url(#hyfmkhq32c)" transform="translate(25 25)">
                <path d="m18.659 13.836 8.388 27.186a1 1 0 0 0 1.91 0l8.385-27.186a1 1 0 0 0-.956-1.295H19.614a1 1 0 0 0-.955 1.295z" fill="url(#psq3dr0lsd)"/>
                <path d="M21.138 1.333 19.4 6.264v.001l-1.71 4.863a1 1 0 0 1-.943.668H2.806a1 1 0 0 1-.707-1.707L11.895.293A1 1 0 0 1 12.602 0h7.593a1 1 0 0 1 .943 1.333z" fill="url(#sc1jmkodve)"/>
                <path d="M36.21 11.796H19.781a1 1 0 0 1-.944-1.33l1.73-4.933 1.71-4.865A1 1 0 0 1 23.22 0h9.55a1 1 0 0 1 .944.669l3.438 9.796a1 1 0 0 1-.944 1.331z" fill="url(#38rhk43kqf)"/>
                <path d="M53.198 11.796H39.245a1 1 0 0 1-.944-.668L34.863 1.33A1 1 0 0 1 35.807 0h7.595a1 1 0 0 1 .707.293l9.796 9.796a1 1 0 0 1-.707 1.707z" fill="url(#8abkn5z4qg)"/>
                <path d="m32.932 30.977-2.347 7.612a1 1 0 0 0 1.707.954l22.25-25.342a1 1 0 0 0-.75-1.66H39.353a1 1 0 0 0-.955.706l-5.467 17.73z" fill="url(#p9rfy5zaah)"/>
                <path d="M16.644 12.541H2.21a1 1 0 0 0-.752 1.66l22.249 25.327a1 1 0 0 0 1.707-.955L17.6 13.247a1 1 0 0 0-.956-.706z" fill="url(#6hcj0so1zi)"/>
            </g>
            <path d="M17.517 15.355C14.307 12.285 3.629 12.025 1.5 12c-.27.057-.78.153-1.05.436-.3.283-.45.664-.45 1.067v26.994C0 41.327.66 42 1.5 42c5.039 0 12.477-4.54 12.777-4.732.36-.216.6-.56.69-.959.03-.1 2.19-10.08 3.03-19.733a1.56 1.56 0 0 0-.48-1.221" fill="url(#jqdozwe6mj)" transform="translate(2 47)"/>
            <path d="m65.535 73.004-10.261.062-7.535-.047c-2.228.332-4.808-.166-6.508-1.216-1.378-.848-2.082-1.942-2.082-3.247v-1.483c0-.596.821-1.495 1.495-2.218.44-.463.821-.913 1.114-1.305l5.952-7.517c1.407-2.141.909-5.136-1.144-7.206l-.586-.664c-1.759-1.554-4.485-1.57-6.391.068l-9.85 9.958a18.17 18.17 0 0 0-6.099 1.287 1.49 1.49 0 0 0-.85 1.823c.205.602.264 1.178.205 1.714-.792 9.264-2.756 18.632-2.961 19.67-.088.388 0 .798.205 1.13.235.335.557.563.968.637l17.532 3.325c.527.15 1.202.225 2.023.225 3.576 0 10.613-1.533 12.4-3.384l13.194-8.896a1.53 1.53 0 0 0 .586-1.67c-.205-.62-.762-1.046-1.407-1.046" stroke="#1C3754" fill="#FFF"/>
        </g>
    </g>
</svg>
