<?xml version="1.0" encoding="UTF-8"?>
<svg width="28px" height="21px" viewBox="0 0 28 21" version="1.1" xmlns="http://www.w3.org/2000/svg" xmlns:xlink="http://www.w3.org/1999/xlink">
    <title>icon-cards</title>
    <g id="Page-1" stroke="none" stroke-width="1" fill="none" fill-rule="evenodd">
        <g id="icon-statement-bitcoin" transform="translate(-91.000000, -1177.000000)" fill="#BABABA" fill-rule="nonzero">
            <path d="M112.471579,1177.5 C114.020988,1177.5 115.286637,1178.71031 115.375065,1180.23748 L115.38,1180.40842 L115.38,1180.619 L115.591579,1180.62 C117.140988,1180.62 118.406637,1181.83031 118.495065,1183.35748 L118.5,1183.52842 L118.5,1194.36632 C118.5,1195.97228 117.197997,1197.27474 115.591579,1197.27474 L115.591579,1197.27474 L97.1176676,1197.27474 C95.7368452,1197.27474 94.62,1196.15979 94.62,1194.77729 L94.62,1194.77729 L94.619,1194.154 L93.9936084,1194.15474 C92.6699558,1194.15474 91.5896067,1193.12699 91.5052966,1191.82182 L91.5,1191.65729 L91.5,1180.40842 C91.5,1178.85901 92.710313,1177.59336 94.2374776,1177.50494 L94.4084211,1177.5 L112.471579,1177.5 Z M114.87,1181.619 L97.5284211,1181.62 C96.4739108,1181.62 95.62,1182.47391 95.62,1183.52842 L95.62,1183.52842 L95.619898,1193.64453 C95.6199659,1193.64793 95.62,1193.65133 95.62,1193.65474 L95.619,1193.664 L95.62,1194.77729 C95.62,1195.55831 96.2123876,1196.19563 96.9731542,1196.26791 L97.1176676,1196.27474 L115.591579,1196.27474 C116.645635,1196.27474 117.5,1195.42008 117.5,1194.36632 L117.5,1194.36632 L117.5,1183.52842 C117.5,1182.47391 116.646089,1181.62 115.591579,1181.62 L115.591579,1181.62 L114.890318,1181.6199 C114.886887,1181.61997 114.883447,1181.62 114.88,1181.62 L114.87,1181.619 Z M112.617544,1188.44737 C114.041846,1188.44737 115.197544,1189.60307 115.197544,1191.02737 C115.197544,1192.45167 114.041846,1193.60737 112.617544,1193.60737 C112.104829,1193.60737 111.626921,1193.45761 111.2252,1193.19947 C110.816825,1193.46232 110.341915,1193.60737 109.844211,1193.60737 C108.419908,1193.60737 107.264211,1192.45167 107.264211,1191.02737 C107.264211,1189.60307 108.419908,1188.44737 109.844211,1188.44737 C110.342314,1188.44737 110.817586,1188.59265 111.226865,1188.85637 C111.627719,1188.59688 112.105257,1188.44737 112.617544,1188.44737 Z M112.471579,1178.5 L94.4084211,1178.5 C93.4041256,1178.5 92.5817797,1179.27452 92.5057384,1180.25921 L92.5,1180.40842 L92.5,1191.65729 C92.5,1192.43852 93.0909822,1193.07566 93.849522,1193.14791 L93.9936084,1193.15474 L94.619,1193.154 L94.62,1183.52842 C94.62,1181.97901 95.830313,1180.71336 97.3574776,1180.62494 L97.5284211,1180.62 L114.38,1180.619 L114.38,1180.40842 C114.38,1179.40413 113.605478,1178.58178 112.620788,1178.50574 L112.471579,1178.5 Z M102.509474,1191.76175 C102.785616,1191.76175 103.009474,1191.98561 103.009474,1192.26175 C103.009474,1192.50721 102.832599,1192.71136 102.599349,1192.75369 L102.509474,1192.76175 L98.2947368,1192.76175 C98.0185945,1192.76175 97.7947368,1192.53789 97.7947368,1192.26175 C97.7947368,1192.01629 97.971612,1191.81214 98.2048612,1191.76981 L98.2947368,1191.76175 L102.509474,1191.76175 Z M109.844211,1189.44737 C108.972193,1189.44737 108.264211,1190.15535 108.264211,1191.02737 C108.264211,1191.89939 108.972193,1192.60737 109.844211,1192.60737 C110.067299,1192.60737 110.283101,1192.55931 110.484,1192.467 C110.272549,1192.16479 110.130431,1191.81497 110.070073,1191.43795 C110.059344,1191.36827 110.05087,1191.298 110.045328,1191.22712 L110.065909,1191.41103 C110.047226,1191.28585 110.037544,1191.15773 110.037544,1191.02737 C110.037544,1190.89757 110.047142,1190.77 110.065667,1190.64533 C110.067656,1190.63523 110.069283,1190.62488 110.070974,1190.61454 C110.131205,1190.23736 110.273631,1189.88774 110.478993,1189.58414 C110.329379,1189.5171 110.172364,1189.47386 110.010009,1189.45629 L110.010009,1189.45629 Z M112.617544,1189.44737 C112.232697,1189.44737 111.8798,1189.58526 111.605608,1189.8143 L111.565696,1189.85813 C111.286441,1190.10991 111.106208,1190.44078 111.05358,1190.80404 C111.042891,1190.87704 111.037544,1190.95159 111.037544,1191.02737 C111.037544,1191.10038 111.042507,1191.17225 111.052115,1191.24264 C111.103858,1191.60892 111.284896,1191.94343 111.565696,1192.19661 C111.581224,1192.21061 111.595657,1192.22534 111.608995,1192.2407 C111.88146,1192.47012 112.233603,1192.60737 112.617544,1192.60737 C113.489561,1192.60737 114.197544,1191.89939 114.197544,1191.02737 C114.197544,1190.15535 113.489561,1189.44737 112.617544,1189.44737 Z M104.898919,1188.72733 C105.175061,1188.72733 105.398919,1188.95118 105.398919,1189.22733 C105.398919,1189.47279 105.222043,1189.67694 104.988794,1189.71927 L104.898919,1189.72733 L98.2947368,1189.72733 C98.0185945,1189.72733 97.7947368,1189.50347 97.7947368,1189.22733 C97.7947368,1188.98187 97.971612,1188.77772 98.2048612,1188.73538 L98.2947368,1188.72733 L104.898919,1188.72733 Z M100.193349,1184.83474 C100.469491,1184.83474 100.693349,1185.05859 100.693349,1185.33474 C100.693349,1185.5802 100.516474,1185.78435 100.283224,1185.82668 L100.193349,1185.83474 L98.2947368,1185.83474 C98.0185945,1185.83474 97.7947368,1185.61088 97.7947368,1185.33474 C97.7947368,1185.08928 97.971612,1184.88513 98.2048612,1184.84279 L98.2947368,1184.83474 L100.193349,1184.83474 Z M105.046682,1184.83474 C105.322825,1184.83474 105.546682,1185.05859 105.546682,1185.33474 C105.546682,1185.5802 105.369807,1185.78435 105.136558,1185.82668 L105.046682,1185.83474 L103.14807,1185.83474 C102.871928,1185.83474 102.64807,1185.61088 102.64807,1185.33474 C102.64807,1185.08928 102.824945,1184.88513 103.058195,1184.84279 L103.14807,1184.83474 L105.046682,1184.83474 Z M109.900015,1184.83474 C110.176158,1184.83474 110.400015,1185.05859 110.400015,1185.33474 C110.400015,1185.5802 110.22314,1185.78435 109.989891,1185.82668 L109.900015,1185.83474 L108.001404,1185.83474 C107.725261,1185.83474 107.501404,1185.61088 107.501404,1185.33474 C107.501404,1185.08928 107.678279,1184.88513 107.911528,1184.84279 L108.001404,1184.83474 L109.900015,1184.83474 Z M114.753349,1184.83474 C115.029491,1184.83474 115.253349,1185.05859 115.253349,1185.33474 C115.253349,1185.5802 115.076474,1185.78435 114.843224,1185.82668 L114.753349,1185.83474 L112.854737,1185.83474 C112.578594,1185.83474 112.354737,1185.61088 112.354737,1185.33474 C112.354737,1185.08928 112.531612,1184.88513 112.764861,1184.84279 L112.854737,1184.83474 L114.753349,1184.83474 Z" id="icon-cards"></path>
        </g>
    </g>
</svg>
