<svg width="42" height="42" viewBox="0 0 42 42" xmlns="http://www.w3.org/2000/svg">
    <g fill="none" fill-rule="evenodd">
        <rect fill="#333" opacity=".1" width="42" height="42" rx="21"/>
        <path d="m28.22 14 .168.005a2.65 2.65 0 0 1 2.483 2.645l-.001 2.782.09.023c2.469.663 3.905 1.573 3.905 2.817 0 1.26-1.471 2.176-3.993 2.84l-.001.86-.006.168a2.65 2.65 0 0 1-2.644 2.482h-5.966l-.096-.007a.65.65 0 0 1 .096-1.293h5.966l.13-.006a1.35 1.35 0 0 0 1.22-1.344V16.65l-.007-.13a1.35 1.35 0 0 0-1.343-1.22H14.645l-.13.006a1.35 1.35 0 0 0-1.22 1.344v7.931l-.004.026.185.043.526.113.273.054.562.103c.095.016.192.033.29.048l.595.092c.1.014.203.029.305.042l.627.079.32.036.655.064.094.008-.884-1.184a.65.65 0 0 1 .052-.84l.079-.07a.65.65 0 0 1 .84.052l.07.08 1.913 2.559a.65.65 0 0 1-.049.836l-.078.07-2.545 1.933a.65.65 0 0 1-.865-.965l.079-.07 1.433-1.091-.252-.02-.34-.031-.668-.07-.65-.078a34.366 34.366 0 0 1-.317-.043l-.62-.093a30.193 30.193 0 0 1-.304-.05l-.59-.107a25.394 25.394 0 0 1-.568-.116l-.545-.125a18.343 18.343 0 0 1-1.259-.35l-.459-.155C9.191 24.645 8 23.68 8 22.528c0-1.333 1.48-2.35 3.994-3.085V16.65l.006-.168A2.65 2.65 0 0 1 14.645 14H28.22zM9.3 22.528c0 .46.646.955 1.771 1.404l.371.14c.13.046.263.092.402.136l.15.046v-3.45C10.25 21.362 9.3 22.03 9.3 22.528zm21.571-1.747v2.983l.042-.012.447-.138c1.427-.467 2.205-.99 2.205-1.342 0-.392-.958-.99-2.694-1.491zm-4.427.154a.65.65 0 0 1 .096 1.293l-.096.007H24.78a.65.65 0 0 1-.096-1.293l.096-.007h1.665zm0-3.04a.65.65 0 0 1 .096 1.293l-.096.007h-10.42a.65.65 0 0 1-.095-1.293l.096-.007h10.42z" fill="#FFF" fill-rule="nonzero"/>
    </g>
</svg>
