<svg width="358" height="160" viewBox="0 0 358 160" xmlns="http://www.w3.org/2000/svg" xmlns:xlink="http://www.w3.org/1999/xlink">
    <defs>
        <linearGradient x1="50%" y1="50%" x2="77.27%" y2="111.34%" id="caozunf6ic">
            <stop stop-color="#656DF9" offset="0%"/>
            <stop stop-color="#EE6390" offset="100%"/>
        </linearGradient>
        <path d="M5 0h68a5 5 0 0 1 5 5v120a5 5 0 0 1-5 5H5a5 5 0 0 1-5-5V5a5 5 0 0 1 5-5z" id="2eahxbes3a"/>
    </defs>
    <g fill="none" fill-rule="evenodd">
        <path d="M8 0h342a8 8 0 0 1 8 8v144a8 8 0 0 1-8 8H8a8 8 0 0 1-8-8V8a8 8 0 0 1 8-8z" fill="#F5F7FB"/>
        <g transform="translate(280 15)">
            <mask id="iqqg0pileb" fill="#fff">
                <use xlink:href="#2eahxbes3a"/>
            </mask>
            <g opacity=".08" mask="url(#iqqg0pileb)">
                <g transform="translate(8.737 5)" fill-rule="nonzero">
                    <path d="M46.452 46.261c-9.939 0-18.025 8.086-18.025 18.025 0 9.938 8.086 18.024 18.025 18.024 9.939 0 18.025-8.086 18.025-18.024 0-9.939-8.086-18.025-18.025-18.025zM33.747 59.32a7.115 7.115 0 0 1 7.107-7.108 7.115 7.115 0 0 1 7.108 7.108 7.115 7.115 0 0 1-7.108 7.107 7.115 7.115 0 0 1-7.107-7.107zM45.9 78.882a4.748 4.748 0 0 1-4.742-4.743 4.748 4.748 0 0 1 4.742-4.742 4.748 4.748 0 0 1 4.743 4.742 4.748 4.748 0 0 1-4.743 4.743zm15.49-13.874a4.761 4.761 0 0 1-4.756 4.756 4.761 4.761 0 0 1-4.756-4.756 4.761 4.761 0 0 1 4.756-4.755 4.761 4.761 0 0 1 4.756 4.755zM71.981 89.722c.367-.366.568-.854.568-1.372 0-.519-.201-1.006-.568-1.372a1.928 1.928 0 0 0-1.372-.569c-.518 0-1.006.202-1.372.569a1.927 1.927 0 0 0-.569 1.372 1.943 1.943 0 0 0 3.313 1.372zM46.529 96.415c-1.07 0-1.94.87-1.94 1.94 0 1.071.87 1.942 1.94 1.942 1.07 0 1.94-.87 1.94-1.941 0-1.07-.87-1.94-1.94-1.94z" fill="#FFF"/>
                    <circle fill="#FFF" cx="46.452" cy="30.216" r="1.941"/>
                    <path d="M22.426 86.464c-.518 0-1.005.201-1.372.568a1.927 1.927 0 0 0-.568 1.372c0 .519.202 1.006.568 1.373a1.943 1.943 0 0 0 2.745 0c.366-.367.568-.854.568-1.373 0-.518-.202-1.005-.568-1.372a1.928 1.928 0 0 0-1.373-.568zM70.555 42.108c.518 0 1.005-.202 1.372-.568a1.943 1.943 0 0 0 0-2.745 1.934 1.934 0 0 0-1.372-.567c-.497 0-.994.189-1.373.567a1.928 1.928 0 0 0-.568 1.372c0 .519.202 1.006.568 1.372.367.367.854.569 1.373.569zM23.744 38.85a1.935 1.935 0 0 0-1.372-.568c-.497 0-.994.19-1.372.568a1.943 1.943 0 0 0 0 2.744 1.943 1.943 0 0 0 3.313-1.372c0-.519-.202-1.006-.569-1.372zM12.42 62.384c-1.07 0-1.94.87-1.94 1.94 0 1.07.87 1.94 1.94 1.94 1.07 0 1.94-.87 1.94-1.94 0-1.07-.87-1.94-1.94-1.94z" fill="#FFF"/>
                    <path d="M91.997 16.603 47.006.106a1.5 1.5 0 0 0-.75-.093 1.5 1.5 0 0 0-.281.094L.985 16.603A1.5 1.5 0 0 0 0 18.01V67.5c0 11.161 6.288 20.508 15.044 28.87 8.756 8.36 20.04 15.86 30.556 23.338a1.498 1.498 0 0 0 1.78 0c10.517-7.478 21.801-14.978 30.557-23.339 8.756-8.362 15.044-17.708 15.044-28.87V18.01a1.5 1.5 0 0 0-.984-1.406zM80.56 64.997a5.76 5.76 0 0 1-5.425-3.845h-6.93a21.734 21.734 0 0 1-4.985 12.116l4.897 4.897a5.728 5.728 0 0 1 2.49-.565c1.537 0 2.98.598 4.067 1.684a5.712 5.712 0 0 1 1.684 4.066c0 1.536-.598 2.98-1.684 4.066a5.733 5.733 0 0 1-4.066 1.681 5.732 5.732 0 0 1-4.066-1.681 5.713 5.713 0 0 1-1.684-4.066c0-.877.195-1.724.565-2.491l-4.89-4.89a21.736 21.736 0 0 1-12.1 5.06v6.902a5.76 5.76 0 0 1 3.845 5.425c0 3.17-2.58 5.75-5.75 5.75s-5.75-2.58-5.75-5.75a5.76 5.76 0 0 1 3.845-5.425v-6.888a21.734 21.734 0 0 1-12.154-4.988l-4.859 4.858c.37.767.566 1.614.566 2.491 0 1.536-.599 2.98-1.685 4.066a5.733 5.733 0 0 1-4.066 1.682 5.732 5.732 0 0 1-4.065-1.682 5.713 5.713 0 0 1-1.685-4.066c0-1.536.598-2.98 1.684-4.066a5.712 5.712 0 0 1 4.066-1.684c.877 0 1.724.196 2.492.565l4.85-4.85a21.736 21.736 0 0 1-5.063-12.14h-6.86a5.76 5.76 0 0 1-5.425 3.845c-3.17 0-5.75-2.58-5.75-5.75s2.58-5.75 5.75-5.75a5.76 5.76 0 0 1 5.425 3.845h6.853c.39-4.61 2.212-8.81 5.02-12.157L24.857 40.4a5.733 5.733 0 0 1-6.551-1.113 5.757 5.757 0 0 1 0-8.131 5.757 5.757 0 0 1 8.132 0 5.712 5.712 0 0 1 1.684 4.066c0 .877-.196 1.723-.565 2.49l4.854 4.855a21.735 21.735 0 0 1 12.136-5.032V30.64a5.76 5.76 0 0 1-3.845-5.424c0-3.171 2.58-5.75 5.75-5.75s5.75 2.579 5.75 5.75a5.76 5.76 0 0 1-3.845 5.424v6.895a21.735 21.735 0 0 1 12.119 5.017l4.894-4.893a5.728 5.728 0 0 1-.566-2.492c0-1.536.598-2.98 1.685-4.066a5.757 5.757 0 0 1 8.131 0 5.757 5.757 0 0 1 0 8.132 5.712 5.712 0 0 1-4.065 1.684 5.728 5.728 0 0 1-2.492-.565l-4.892 4.892a21.735 21.735 0 0 1 5.028 12.099h6.937a5.76 5.76 0 0 1 5.425-3.846c3.17 0 5.75 2.58 5.75 5.75s-2.58 5.75-5.75 5.75z" fill="url(#caozunf6ic)"/>
                </g>
            </g>
        </g>
    </g>
</svg>
