<?xml version="1.0" encoding="UTF-8"?>
<svg width="28px" height="27px" viewBox="0 0 28 27" version="1.1" xmlns="http://www.w3.org/2000/svg" xmlns:xlink="http://www.w3.org/1999/xlink">
    <title>icon-manage-ledgers</title>
    <g id="Page-1" stroke="none" stroke-width="1" fill="none" fill-rule="evenodd">
        <g id="icon-statement-bitcoin" transform="translate(-93.000000, -1360.000000)" fill="#BABABA" fill-rule="nonzero">
            <path d="M106.994709,1360.5 C107.603873,1360.5 108.406835,1360.7813 108.924456,1361.16223 L109.070702,1361.27932 L113.580677,1365.22796 C114.062696,1365.64998 114.438162,1366.43184 114.493074,1367.09833 L114.5,1367.26227 L114.5,1372.499 L114.791774,1372.5 C115.221952,1372.49982 115.635911,1372.65443 115.959507,1372.9325 L116.076475,1373.04251 C116.413803,1373.38952 116.596308,1373.8583 116.581627,1374.29619 L116.581627,1374.29619 L116.58747,1374.39974 C116.599384,1374.50224 116.632759,1374.60116 116.686842,1374.6923 C116.792221,1374.87201 116.964754,1375.00242 117.166393,1375.05477 C117.368031,1375.10713 117.582214,1375.07713 117.789069,1374.9564 L117.789069,1374.9564 L117.929551,1374.88577 C118.763669,1374.51399 119.749717,1374.83148 120.208672,1375.62805 L120.208672,1375.62805 L120.628593,1376.35673 L120.711533,1376.52657 C121.058529,1377.30757 120.801925,1378.22167 120.128403,1378.70163 L120.128403,1378.70163 L119.906132,1378.8444 C119.818156,1378.90808 119.744659,1378.9898 119.688758,1379.08737 C119.58365,1379.26778 119.554801,1379.48265 119.6086,1379.6844 C119.662399,1379.88614 119.794406,1380.05812 119.999551,1380.17707 L119.999551,1380.17707 L120.144801,1380.27293 C120.470421,1380.51311 120.70522,1380.85724 120.809744,1381.24921 C120.932123,1381.70813 120.8665,1382.19691 120.624125,1382.61285 L120.624125,1382.61285 L120.169759,1383.36947 L120.083527,1383.50072 C119.547783,1384.23893 118.53678,1384.45761 117.764396,1384.01177 L117.764396,1384.01177 L117.670922,1383.96362 C117.572974,1383.91981 117.467276,1383.89575 117.370851,1383.89304 C117.16149,1383.89204 116.960412,1383.97476 116.81237,1384.1228 C116.664328,1384.27084 116.581605,1384.47192 116.581862,1384.71122 L116.581862,1384.71122 L116.572581,1384.86792 C116.476416,1385.77455 115.7098,1386.46816 114.79198,1386.46816 L114.79198,1386.46816 L113.945962,1386.46816 C112.957019,1386.46816 112.155322,1385.66646 112.156315,1384.70902 L112.156315,1384.70902 L112.150473,1384.60547 C112.146341,1384.56992 112.139627,1384.5348 112.130253,1384.5001 L95,1384.5 C94.2205719,1384.5 93.5795829,1383.90486 93.5068694,1383.14442 L93.5,1383 L93.5,1362 C93.5,1361.22057 94.0951403,1360.57958 94.8555845,1360.50687 L95,1360.5 L106.994709,1360.5 Z M114.79198,1373.5 L113.945962,1373.5 C113.737247,1373.5 113.537141,1373.58317 113.389918,1373.7311 C113.264176,1373.85744 113.185369,1374.02269 113.168375,1374.17114 L113.168375,1374.17114 L113.153536,1374.44313 C113.067167,1375.35336 112.300591,1376.06285 111.365665,1376.06273 C111.121753,1376.06019 110.881296,1376.00626 110.636286,1375.89305 L110.636286,1375.89305 L110.504742,1375.82367 C110.126511,1375.60695 109.644223,1375.73725 109.42053,1376.12521 L109.42053,1376.12521 L108.975794,1376.85601 C108.773452,1377.20718 108.870073,1377.65386 109.17431,1377.87545 L109.17431,1377.87545 L109.261885,1377.93333 C109.815917,1378.2532 110.157215,1378.84434 110.157215,1379.48408 C110.157215,1380.05719 109.882947,1380.59464 109.399619,1380.94608 L109.399619,1380.94608 L109.262267,1381.0346 C108.913453,1381.2364 108.775146,1381.66945 108.927826,1382.01087 L108.927826,1382.01087 L108.975111,1382.10479 L109.405991,1382.84809 C109.507958,1383.03208 109.679041,1383.16785 109.881384,1383.22536 C110.054201,1383.27448 110.238378,1383.26321 110.377755,1383.20556 L110.377755,1383.20556 L110.476634,1383.1588 C110.886269,1382.91978 111.374413,1382.85429 111.832563,1382.97689 C112.290713,1383.0995 112.680907,1383.40003 112.912386,1383.80479 C113.036882,1384.01455 113.11566,1384.24805 113.146135,1384.51623 L113.146135,1384.51623 L113.16254,1384.7848 C113.214893,1385.17071 113.545692,1385.46816 113.945962,1385.46816 L113.945962,1385.46816 L114.79198,1385.46816 C115.1971,1385.46816 115.535811,1385.1617 115.576129,1384.78766 L115.576129,1384.78766 L115.588858,1384.52819 C115.623981,1384.1097 115.805921,1383.71504 116.105263,1383.41569 C116.442023,1383.07893 116.899425,1382.89076 117.386638,1382.89323 C117.625745,1382.89963 117.861077,1382.95321 118.101436,1383.06137 L118.101436,1383.06137 L118.338317,1383.18057 C118.670942,1383.31579 119.058417,1383.21079 119.259861,1382.93421 L119.259861,1382.93421 L119.322009,1382.83939 L119.763351,1382.1039 C119.868459,1381.92349 119.897308,1381.70862 119.843509,1381.50687 C119.79756,1381.33456 119.694333,1381.18327 119.57451,1381.09389 L119.57451,1381.09389 L119.343707,1380.94448 C119.000495,1380.70441 118.751147,1380.34999 118.642365,1379.94206 C118.519986,1379.48314 118.585609,1378.99436 118.822859,1378.58716 C118.947492,1378.36957 119.116942,1378.18117 119.341733,1378.01933 L119.341733,1378.01933 L119.473615,1377.93475 C119.821869,1377.73106 119.960037,1377.29804 119.808478,1376.95536 L119.808478,1376.95536 L119.742,1376.822 L119.342223,1376.12731 C119.158055,1375.80767 118.781263,1375.66268 118.455487,1375.75378 L118.455487,1375.75378 L118.359528,1375.78825 L118.112672,1375.9151 C117.739611,1376.08767 117.316421,1376.12689 116.915077,1376.02268 C116.456399,1375.90358 116.063929,1375.60693 115.825556,1375.20042 C115.70106,1374.99065 115.622283,1374.75715 115.591807,1374.48898 L115.591807,1374.48898 L115.578752,1374.20731 C115.560201,1374.03224 115.483554,1373.86722 115.359434,1373.73954 C115.21049,1373.58632 115.005869,1373.5 114.79198,1373.5 L114.79198,1373.5 Z M106.994709,1361.5 L95,1361.5 C94.7547932,1361.5 94.5504479,1361.6771 94.508065,1361.9102 L94.5,1362 L94.5,1383 C94.5,1383.24521 94.6771001,1383.44955 94.9101994,1383.49193 L95,1383.5 L108.636548,1383.50126 C108.600266,1383.4499 108.566713,1383.3965 108.536113,1383.34126 L108.536113,1383.34126 L108.097449,1382.58335 L108.026623,1382.44352 C107.653352,1381.61265 107.967762,1380.62821 108.739263,1380.18267 L108.739263,1380.18267 L108.832473,1380.12289 C109.03609,1379.97447 109.157215,1379.73711 109.157215,1379.48408 C109.157215,1379.20161 109.006518,1378.94059 108.739057,1378.78535 L108.739057,1378.78535 L108.607799,1378.69912 C107.869709,1378.16337 107.650909,1377.15237 108.115396,1376.34652 L108.115396,1376.34652 L108.560128,1375.61573 C109.05301,1374.76028 110.145294,1374.46517 110.98553,1374.94704 L110.98553,1374.94704 L111.07706,1374.99582 C111.170845,1375.03886 111.272716,1375.06171 111.370909,1375.06275 C111.803173,1375.0628 112.155344,1374.71568 112.16217,1374.26471 L112.16217,1374.26471 L112.171993,1374.09103 C112.215827,1373.68897 112.39508,1373.3131 112.681118,1373.02569 C112.910128,1372.79558 113.195388,1372.63436 113.504692,1372.55541 L113.5,1372.5 L113.5,1367.26227 C113.5,1366.89329 113.278698,1366.3663 113.012207,1366.07002 L112.921945,1365.98034 L108.41197,1362.03169 C108.128322,1361.78335 107.567011,1361.5564 107.145435,1361.50904 L106.994709,1361.5 Z M114.277103,1377.20559 C115.535478,1377.20559 116.555593,1378.2257 116.555593,1379.48408 C116.555593,1380.74245 115.535478,1381.76257 114.277103,1381.76257 C113.018727,1381.76257 111.998613,1380.74245 111.998613,1379.48408 C111.998613,1378.2257 113.018727,1377.20559 114.277103,1377.20559 Z M114.277103,1378.20559 C113.571012,1378.20559 112.998613,1378.77799 112.998613,1379.48408 C112.998613,1380.19017 113.571012,1380.76257 114.277103,1380.76257 C114.983193,1380.76257 115.555593,1380.19017 115.555593,1379.48408 C115.555593,1378.77799 114.983193,1378.20559 114.277103,1378.20559 Z M103.620682,1379.1 C103.896825,1379.1 104.120682,1379.32386 104.120682,1379.6 C104.120682,1379.84546 103.943807,1380.04961 103.710558,1380.09194 L103.620682,1380.1 L97.5,1380.1 C97.2238576,1380.1 97,1379.87614 97,1379.6 C97,1379.35454 97.1768752,1379.15039 97.4101244,1379.10806 L97.5,1379.1 L103.620682,1379.1 Z M103.5,1375.64218 C103.776142,1375.64218 104,1375.86604 104,1376.14218 C104,1376.38764 103.823125,1376.59179 103.589876,1376.63413 L103.5,1376.64218 L97.5,1376.64218 C97.2238576,1376.64218 97,1376.41833 97,1376.14218 C97,1375.89672 97.1768752,1375.69258 97.4101244,1375.65024 L97.5,1375.64218 L103.5,1375.64218 Z M106.75,1372.18437 C107.026142,1372.18437 107.25,1372.40823 107.25,1372.68437 C107.25,1372.92983 107.073125,1373.13398 106.839876,1373.17631 L106.75,1373.18437 L104,1373.18437 C103.723858,1373.18437 103.5,1372.96051 103.5,1372.68437 C103.5,1372.43891 103.676875,1372.23476 103.910124,1372.19242 L104,1372.18437 L106.75,1372.18437 Z M101,1369.68406 C101.276142,1369.68406 101.5,1369.90791 101.5,1370.18406 L101.5,1370.18406 L101.5,1372.68437 C101.5,1372.96051 101.276142,1373.18437 101,1373.18437 L101,1373.18437 L97.5,1373.18437 C97.2238576,1373.18437 97,1372.96051 97,1372.68437 L97,1372.68437 L97,1370.18406 C97,1369.90791 97.2238576,1369.68406 97.5,1369.68406 L97.5,1369.68406 Z M100.5,1370.684 L98,1370.684 L98,1372.184 L100.5,1372.184 L100.5,1370.684 Z M109.5,1368.72655 C109.776142,1368.72655 110,1368.95041 110,1369.22655 C110,1369.47201 109.823125,1369.67616 109.589876,1369.7185 L109.5,1369.72655 L104,1369.72655 C103.723858,1369.72655 103.5,1369.5027 103.5,1369.22655 C103.5,1368.98109 103.676875,1368.77694 103.910124,1368.73461 L104,1368.72655 L109.5,1368.72655 Z M101,1364.5 C101.276142,1364.5 101.5,1364.72386 101.5,1365 L101.5,1365 L101.5,1367.50031 C101.5,1367.77645 101.276142,1368.00031 101,1368.00031 L101,1368.00031 L97.5,1368.00031 C97.2238576,1368.00031 97,1367.77645 97,1367.50031 L97,1367.50031 L97,1365 C97,1364.72386 97.2238576,1364.5 97.5,1364.5 L97.5,1364.5 Z M100.5,1365.5 L98,1365.5 L98,1367 L100.5,1367 L100.5,1365.5 Z M107.426688,1365.26874 C107.70283,1365.26874 107.926688,1365.4926 107.926688,1365.76874 C107.926688,1366.0142 107.749813,1366.21835 107.516563,1366.26068 L107.426688,1366.26874 L104,1366.26874 C103.723858,1366.26874 103.5,1366.04488 103.5,1365.76874 C103.5,1365.52328 103.676875,1365.31913 103.910124,1365.27679 L104,1365.26874 L107.426688,1365.26874 Z" id="icon-manage-ledgers"></path>
        </g>
    </g>
</svg>
