<?xml version="1.0" encoding="UTF-8"?>
<svg width="28px" height="26px" viewBox="0 0 28 26" version="1.1" xmlns="http://www.w3.org/2000/svg" xmlns:xlink="http://www.w3.org/1999/xlink">
    <title>icon-transaction-details</title>
    <g id="Page-1" stroke="none" stroke-width="1" fill="none" fill-rule="evenodd">
        <g id="icon-statement-bitcoin" transform="translate(-93.000000, -654.000000)" fill="#BABABA" fill-rule="nonzero">
            <path d="M106.994709,654.5 C107.603873,654.5 108.406835,654.781303 108.924456,655.16223 L109.070702,655.279315 L113.580677,659.227958 C114.062548,659.649854 114.43814,660.42994 114.493071,661.094261 L114.5,661.257655 L114.500956,665.066213 C118.169851,665.555523 121,668.697253 121,672.5 C121,676.642136 117.642136,680 113.5,680 C111.811819,680 110.253911,679.442233 109.000507,678.50093 L95,678.5 C94.2205719,678.5 93.5795829,677.90486 93.5068694,677.144415 L93.5,677 L93.5,656 C93.5,655.220572 94.0951403,654.579583 94.8555845,654.506869 L95,654.5 L106.994709,654.5 Z M113.5,666 C109.910149,666 107,668.910149 107,672.5 C107,676.089851 109.910149,679 113.5,679 C117.089851,679 120,676.089851 120,672.5 C120,668.910149 117.089851,666 113.5,666 Z M106.994709,655.5 L95,655.5 C94.7547932,655.5 94.5504479,655.6771 94.508065,655.910199 L94.5,656 L94.5,677 C94.5,677.245207 94.6771001,677.449552 94.9101994,677.491935 L95,677.5 L107.910625,677.500996 C106.722495,676.173985 106,674.421367 106,672.5 C106,668.357864 109.357864,665 113.5,665 L113.5,665 L113.5,661.257655 C113.5,660.895704 113.284228,660.378953 113.022089,660.081058 L112.921945,659.980335 L108.41197,656.031692 C108.128322,655.783349 107.567011,655.556402 107.145435,655.509036 L106.994709,655.5 Z M117.16524,669.398601 C117.352893,669.556831 117.394945,669.823651 117.276952,670.02926 L117.225174,670.103163 L113.161545,674.922412 C112.999485,675.114606 112.724521,675.153412 112.518015,675.026514 L112.444138,674.971135 L109.876612,672.651886 C109.671694,672.466783 109.65563,672.150608 109.840733,671.94569 C110.005269,671.76354 110.273368,671.730609 110.474835,671.855544 L110.546929,671.909811 L112.73,673.882 L116.460678,669.458534 C116.638687,669.247424 116.95413,669.220591 117.16524,669.398601 Z M103.620682,673.1 C103.896825,673.1 104.120682,673.323858 104.120682,673.6 C104.120682,673.84546 103.943807,674.049608 103.710558,674.091944 L103.620682,674.1 L97.5,674.1 C97.2238576,674.1 97,673.876142 97,673.6 C97,673.35454 97.1768752,673.150392 97.4101244,673.108056 L97.5,673.1 L103.620682,673.1 Z M103.5,669.642184 C103.776142,669.642184 104,669.866042 104,670.142184 C104,670.387644 103.823125,670.591793 103.589876,670.634129 L103.5,670.642184 L97.5,670.642184 C97.2238576,670.642184 97,670.418327 97,670.142184 C97,669.896725 97.1768752,669.692576 97.4101244,669.65024 L97.5,669.642184 L103.5,669.642184 Z M105.463344,666.184369 C105.739486,666.184369 105.963344,666.408227 105.963344,666.684369 C105.963344,666.929829 105.786469,667.133977 105.553219,667.176313 L105.463344,667.184369 L103.5,667.184369 C103.223858,667.184369 103,666.960511 103,666.684369 C103,666.438909 103.176875,666.234761 103.410124,666.192425 L103.5,666.184369 L105.463344,666.184369 Z M99,658 C99.2454599,658 99.4496084,658.176875 99.4919443,658.410124 L99.5,658.5 L99.5010222,659.014169 C100.363117,659.236545 101,660.019345 101,660.950897 C101,661.227039 100.776142,661.450897 100.5,661.450897 C100.223858,661.450897 100,661.227039 100,660.950897 C100,660.398612 99.5522847,659.950897 99,659.950897 C98.4477153,659.950897 98,660.398612 98,660.950897 C98,661.503181 98.4477153,661.950897 99,661.950897 C100.104569,661.950897 101,662.846327 101,663.950897 C101,664.882448 100.363117,665.665248 99.5010222,665.887624 L99.5,666.347644 C99.5,666.623786 99.2761424,666.847644 99,666.847644 C98.7545401,666.847644 98.5503916,666.670769 98.5080557,666.43752 L98.5,666.347644 L98.4999808,665.887883 C97.6373769,665.665855 97,664.882809 97,663.950897 C97,663.674754 97.2238576,663.450897 97.5,663.450897 C97.7761424,663.450897 98,663.674754 98,663.950897 C98,664.503181 98.4477153,664.950897 99,664.950897 C99.5522847,664.950897 100,664.503181 100,663.950897 C100,663.398612 99.5522847,662.950897 99,662.950897 L99,662.950897 L98.8507377,662.945411 C97.8158778,662.869062 97,662.005258 97,660.950897 C97,660.018984 97.6373769,659.235938 98.4999808,659.01391 L98.5,658.5 C98.5,658.223858 98.7238576,658 99,658 Z M109.5,662.726553 C109.776142,662.726553 110,662.950411 110,663.226553 C110,663.472013 109.823125,663.676162 109.589876,663.718498 L109.5,663.726553 L103.5,663.726553 C103.223858,663.726553 103,663.502696 103,663.226553 C103,662.981093 103.176875,662.776945 103.410124,662.734609 L103.5,662.726553 L109.5,662.726553 Z M107.426688,659.268738 C107.70283,659.268738 107.926688,659.492595 107.926688,659.768738 C107.926688,660.014198 107.749813,660.218346 107.516563,660.260682 L107.426688,660.268738 L103.5,660.268738 C103.223858,660.268738 103,660.04488 103,659.768738 C103,659.523278 103.176875,659.319129 103.410124,659.276793 L103.5,659.268738 L107.426688,659.268738 Z" id="icon-transaction-details"></path>
        </g>
    </g>
</svg>
